Pragati Narrow-Regular.ufo
<glyph name="quotedbl" format="1">
  <advance width="267"/>
  <unicode hex="0022"/>
  <outline>
    <contour>
      <point x="232" y="630" type="line"/>
      <point x="156" y="630" type="line"/>
      <point x="156" y="495" type="line"/>
      <point x="176" y="374" type="line"/>
      <point x="211" y="374" type="line"/>
      <point x="232" y="495" type="line"/>
    </contour>
    <contour>
      <point x="109" y="630" type="line"/>
      <point x="34" y="630" type="line"/>
      <point x="34" y="495" type="line"/>
      <point x="54" y="374" type="line"/>
      <point x="90" y="374" type="line"/>
      <point x="109" y="495" type="line"/>
    </contour>
  </outline>
</glyph>
<glyph name="dollar" format="1">
  <advance width="419"/>
  <unicode hex="0024"/>
  <outline>
    <contour>
      <point x="231" y="665" type="line"/>
      <point x="186" y="665" type="line"/>
      <point x="186" y="567" type="line"/>
      <point x="107" y="556"/>
      <point x="59" y="506"/>
      <point x="59" y="431" type="curve" smooth="yes"/>
      <point x="59" y="340"/>
      <point x="124" y="314"/>
      <point x="186" y="293" type="curve"/>
      <point x="186" y="129" type="line"/>
      <point x="150" y="137"/>
      <point x="125" y="163"/>
      <point x="125" y="215" type="curve" smooth="yes"/>
      <point x="125" y="225" type="line"/>
      <point x="50" y="225" type="line"/>
      <point x="50" y="223"/>
      <point x="49" y="217"/>
      <point x="49" y="204" type="curve" smooth="yes"/>
      <point x="49" y="137"/>
      <point x="87" y="72"/>
      <point x="186" y="63" type="curve"/>
      <point x="186" y="-45" type="line"/>
      <point x="231" y="-45" type="line"/>
      <point x="231" y="63" type="line"/>
      <point x="311" y="70"/>
      <point x="368" y="115"/>
      <point x="368" y="211" type="curve" smooth="yes"/>
      <point x="368" y="310"/>
      <point x="295" y="336"/>
      <point x="231" y="357" type="curve"/>
      <point x="231" y="502" type="line"/>
      <point x="270" y="493"/>
      <point x="283" y="460"/>
      <point x="283" y="426" type="curve" smooth="yes"/>
      <point x="283" y="418" type="line"/>
      <point x="358" y="418" type="line"/>
      <point x="358" y="420"/>
      <point x="359" y="430"/>
      <point x="359" y="436" type="curve" smooth="yes"/>
      <point x="359" y="503"/>
      <point x="313" y="561"/>
      <point x="231" y="567" type="curve"/>
    </contour>
    <contour>
      <point x="231" y="277" type="line"/>
      <point x="265" y="261"/>
      <point x="292" y="241"/>
      <point x="292" y="201" type="curve" smooth="yes"/>
      <point x="292" y="157"/>
      <point x="265" y="133"/>
      <point x="231" y="128" type="curve"/>
    </contour>
    <contour>
      <point x="186" y="374" type="line"/>
      <point x="156" y="387"/>
      <point x="135" y="404"/>
      <point x="135" y="436" type="curve" smooth="yes"/>
      <point x="135" y="460"/>
      <point x="145" y="494"/>
      <point x="186" y="502" type="curve"/>
    </contour>
  </outline>
</glyph>
<glyph name="ampersand" format="1">
  <advance width="503"/>
  <unicode hex="0026"/>
  <outline>
    <contour>
      <point x="121" y="642"/>
      <point x="44" y="581"/>
      <point x="44" y="469" type="curve" smooth="yes"/>
      <point x="44" y="394"/>
      <point x="78" y="354"/>
      <point x="125" y="328" type="curve"/>
      <point x="125" y="323" type="line"/>
      <point x="72" y="304"/>
      <point x="32" y="253"/>
      <point x="32" y="170" type="curve" smooth="yes"/>
      <point x="32" y="57"/>
      <point x="113" y="-11"/>
      <point x="228" y="-11" type="curve" smooth="yes"/>
      <point x="359" y="-11"/>
      <point x="426" y="63"/>
      <point x="426" y="178" type="curve" smooth="yes"/>
      <point x="426" y="286" type="line"/>
      <point x="491" y="286" type="line"/>
      <point x="491" y="354" type="line"/>
      <point x="352" y="354" type="line"/>
      <point x="352" y="176" type="line" smooth="yes"/>
      <point x="352" y="98"/>
      <point x="312" y="58"/>
      <point x="234" y="58" type="curve" smooth="yes"/>
      <point x="162" y="58"/>
      <point x="113" y="92"/>
      <point x="113" y="175" type="curve" smooth="yes"/>
      <point x="113" y="264"/>
      <point x="166" y="287"/>
      <point x="223" y="287" type="curve" smooth="yes"/>
      <point x="267" y="287" type="line"/>
      <point x="267" y="354" type="line"/>
      <point x="220" y="354" type="line" smooth="yes"/>
      <point x="170" y="354"/>
      <point x="124" y="390"/>
      <point x="124" y="464" type="curve" smooth="yes"/>
      <point x="124" y="543"/>
      <point x="175" y="573"/>
      <point x="234" y="573" type="curve" smooth="yes"/>
      <point x="302" y="573"/>
      <point x="352" y="539"/>
      <point x="352" y="461" type="curve" smooth="yes"/>
      <point x="352" y="452" type="line"/>
      <point x="426" y="452" type="line"/>
      <point x="426" y="469" type="line" smooth="yes"/>
      <point x="426" y="574"/>
      <point x="347" y="642"/>
      <point x="235" y="642" type="curve" smooth="yes"/>
    </contour>
  </outline>
</glyph>
<glyph name="parenright" format="1">
  <advance width="251"/>
  <unicode hex="0029"/>
  <outline>
    <contour>
      <point x="14" y="676" type="line"/>
      <point x="83" y="564"/>
      <point x="136" y="410"/>
      <point x="136" y="266" type="curve" smooth="yes"/>
      <point x="136" y="123"/>
      <point x="83" y="-32"/>
      <point x="14" y="-145" type="curve"/>
      <point x="63" y="-145" type="line"/>
      <point x="160" y="-31"/>
      <point x="214" y="114"/>
      <point x="214" y="265" type="curve" smooth="yes"/>
      <point x="214" y="416"/>
      <point x="160" y="563"/>
      <point x="63" y="676" type="curve"/>
    </contour>
  </outline>
</glyph>
<glyph name="plus" format="1">
  <advance width="440"/>
  <unicode hex="002B"/>
  <outline>
    <contour>
      <point x="258" y="274" type="line"/>
      <point x="258" y="470" type="line"/>
      <point x="181" y="470" type="line"/>
      <point x="181" y="274" type="line"/>
      <point x="40" y="274" type="line"/>
      <point x="40" y="196" type="line"/>
      <point x="181" y="196" type="line"/>
      <point x="181" y="0" type="line"/>
      <point x="258" y="0" type="line"/>
      <point x="258" y="196" type="line"/>
      <point x="400" y="196" type="line"/>
      <point x="400" y="274" type="line"/>
    </contour>
  </outline>
</glyph>
<glyph name="comma" format="1">
  <advance width="210"/>
  <unicode hex="002C"/>
  <outline>
    <contour>
      <point x="151" y="8" type="line"/>
      <point x="151" y="99" type="line"/>
      <point x="59" y="99" type="line"/>
      <point x="59" y="0" type="line"/>
      <point x="96" y="0" type="line"/>
      <point x="59" y="-114" type="line"/>
      <point x="107" y="-114" type="line"/>
    </contour>
  </outline>
</glyph>
<glyph name="one" format="1">
  <advance width="419"/>
  <unicode hex="0031"/>
  <outline>
    <contour>
      <point x="271" y="68" type="line"/>
      <point x="271" y="630" type="line"/>
      <point x="241" y="630" type="line"/>
      <point x="183" y="596"/>
      <point x="97" y="569"/>
      <point x="45" y="564" type="curve"/>
      <point x="45" y="516" type="line"/>
      <point x="196" y="516" type="line"/>
      <point x="196" y="68" type="line"/>
      <point x="46" y="68" type="line"/>
      <point x="46" y="0" type="line"/>
      <point x="409" y="0" type="line"/>
      <point x="409" y="68" type="line"/>
    </contour>
  </outline>
</glyph>
<glyph name="three" format="1">
  <advance width="419"/>
  <unicode hex="0033"/>
  <outline>
    <contour>
      <point x="111" y="642"/>
      <point x="44" y="574"/>
      <point x="44" y="469" type="curve" smooth="yes"/>
      <point x="44" y="452" type="line"/>
      <point x="121" y="452" type="line"/>
      <point x="121" y="461" type="line" smooth="yes"/>
      <point x="121" y="539"/>
      <point x="157" y="574"/>
      <point x="208" y="574" type="curve" smooth="yes"/>
      <point x="254" y="574"/>
      <point x="294" y="543"/>
      <point x="294" y="464" type="curve" smooth="yes"/>
      <point x="294" y="390"/>
      <point x="252" y="354"/>
      <point x="203" y="354" type="curve" smooth="yes"/>
      <point x="149" y="354" type="line"/>
      <point x="149" y="287" type="line"/>
      <point x="202" y="287" type="line" smooth="yes"/>
      <point x="255" y="287"/>
      <point x="305" y="264"/>
      <point x="305" y="175" type="curve" smooth="yes"/>
      <point x="305" y="92"/>
      <point x="264" y="56"/>
      <point x="204" y="56" type="curve" smooth="yes"/>
      <point x="142" y="56"/>
      <point x="109" y="98"/>
      <point x="109" y="176" type="curve" smooth="yes"/>
      <point x="109" y="186" type="line"/>
      <point x="32" y="186" type="line"/>
      <point x="32" y="178" type="line" smooth="yes"/>
      <point x="32" y="63"/>
      <point x="95" y="-11"/>
      <point x="210" y="-11" type="curve" smooth="yes"/>
      <point x="311" y="-11"/>
      <point x="383" y="57"/>
      <point x="383" y="170" type="curve" smooth="yes"/>
      <point x="383" y="253"/>
      <point x="343" y="304"/>
      <point x="289" y="323" type="curve"/>
      <point x="289" y="328" type="line"/>
      <point x="337" y="354"/>
      <point x="371" y="394"/>
      <point x="371" y="469" type="curve" smooth="yes"/>
      <point x="371" y="581"/>
      <point x="305" y="642"/>
      <point x="207" y="642" type="curve" smooth="yes"/>
    </contour>
  </outline>
</glyph>
<glyph name="four" format="1">
  <advance width="419"/>
  <unicode hex="0034"/>
  <outline>
    <contour>
      <point x="182" y="642" type="line"/>
      <point x="146" y="498"/>
      <point x="84" y="344"/>
      <point x="19" y="224" type="curve"/>
      <point x="19" y="155" type="line"/>
      <point x="262" y="155" type="line"/>
      <point x="262" y="0" type="line"/>
      <point x="337" y="0" type="line"/>
      <point x="337" y="155" type="line"/>
      <point x="401" y="155" type="line"/>
      <point x="401" y="223" type="line"/>
      <point x="337" y="223" type="line"/>
      <point x="337" y="548" type="line"/>
      <point x="301" y="548" type="line"/>
      <point x="289" y="499"/>
      <point x="281" y="466"/>
      <point x="262" y="421" type="curve"/>
      <point x="262" y="223" type="line"/>
      <point x="89" y="223" type="line"/>
      <point x="124" y="274"/>
      <point x="224" y="472"/>
      <point x="258" y="642" type="curve"/>
    </contour>
  </outline>
</glyph>
<glyph name="six" format="1">
  <advance width="419"/>
  <unicode hex="0036"/>
  <outline>
    <contour>
      <point x="102" y="642"/>
      <point x="36" y="560"/>
      <point x="36" y="297" type="curve" smooth="yes"/>
      <point x="36" y="63"/>
      <point x="105" y="-11"/>
      <point x="218" y="-11" type="curve" smooth="yes"/>
      <point x="313" y="-11"/>
      <point x="383" y="68"/>
      <point x="383" y="193" type="curve" smooth="yes"/>
      <point x="383" y="306"/>
      <point x="332" y="396"/>
      <point x="226" y="396" type="curve" smooth="yes"/>
      <point x="179" y="396"/>
      <point x="140" y="373"/>
      <point x="114" y="337" type="curve"/>
      <point x="114" y="483"/>
      <point x="133" y="574"/>
      <point x="210" y="574" type="curve" smooth="yes"/>
      <point x="263" y="574"/>
      <point x="289" y="524"/>
      <point x="289" y="437" type="curve"/>
      <point x="366" y="437" type="line"/>
      <point x="366" y="553"/>
      <point x="321" y="642"/>
      <point x="213" y="642" type="curve" smooth="yes"/>
    </contour>
    <contour>
      <point x="277" y="330"/>
      <point x="305" y="268"/>
      <point x="305" y="193" type="curve" smooth="yes"/>
      <point x="305" y="118"/>
      <point x="277" y="56"/>
      <point x="213" y="56" type="curve" smooth="yes"/>
      <point x="150" y="56"/>
      <point x="121" y="118"/>
      <point x="121" y="193" type="curve" smooth="yes"/>
      <point x="121" y="268"/>
      <point x="150" y="330"/>
      <point x="213" y="330" type="curve" smooth="yes"/>
    </contour>
  </outline>
</glyph>
<glyph name="colon" format="1">
  <advance width="210"/>
  <unicode hex="003A"/>
  <outline>
    <contour>
      <point x="151" y="0" type="line"/>
      <point x="151" y="99" type="line"/>
      <point x="59" y="99" type="line"/>
      <point x="59" y="0" type="line"/>
    </contour>
    <contour>
      <point x="151" y="385" type="line"/>
      <point x="151" y="484" type="line"/>
      <point x="59" y="484" type="line"/>
      <point x="59" y="385" type="line"/>
    </contour>
  </outline>
</glyph>
<glyph name="equal" format="1">
  <advance width="440"/>
  <unicode hex="003D"/>
  <outline>
    <contour>
      <point x="400" y="292" type="line"/>
      <point x="400" y="369" type="line"/>
      <point x="40" y="369" type="line"/>
      <point x="40" y="292" type="line"/>
    </contour>
    <contour>
      <point x="400" y="98" type="line"/>
      <point x="400" y="174" type="line"/>
      <point x="40" y="174" type="line"/>
      <point x="40" y="98" type="line"/>
    </contour>
  </outline>
</glyph>
<glyph name="greater" format="1">
  <advance width="440"/>
  <unicode hex="003E"/>
  <outline>
    <contour>
      <point x="400" y="282" type="line"/>
      <point x="41" y="464" type="line"/>
      <point x="41" y="381" type="line"/>
      <point x="327" y="234" type="line"/>
      <point x="41" y="86" type="line"/>
      <point x="41" y="4" type="line"/>
      <point x="400" y="184" type="line"/>
    </contour>
  </outline>
</glyph>
<glyph name="question" format="1">
  <advance width="419"/>
  <unicode hex="003F"/>
  <outline>
    <contour>
      <point x="99" y="642"/>
      <point x="40" y="557"/>
      <point x="40" y="454" type="curve" smooth="yes"/>
      <point x="40" y="443"/>
      <point x="43" y="422"/>
      <point x="43" y="422" type="curve"/>
      <point x="124" y="422" type="line"/>
      <point x="124" y="422"/>
      <point x="123" y="432"/>
      <point x="123" y="447" type="curve" smooth="yes"/>
      <point x="123" y="489"/>
      <point x="132" y="571"/>
      <point x="210" y="571" type="curve" smooth="yes"/>
      <point x="284" y="571"/>
      <point x="292" y="494"/>
      <point x="292" y="468" type="curve" smooth="yes"/>
      <point x="292" y="347"/>
      <point x="177" y="340"/>
      <point x="177" y="217" type="curve" smooth="yes"/>
      <point x="177" y="165" type="line"/>
      <point x="257" y="165" type="line"/>
      <point x="257" y="203" type="line" smooth="yes"/>
      <point x="257" y="313"/>
      <point x="376" y="301"/>
      <point x="376" y="478" type="curve" smooth="yes"/>
      <point x="376" y="574"/>
      <point x="308" y="642"/>
      <point x="217" y="642" type="curve" smooth="yes"/>
    </contour>
    <contour>
      <point x="262" y="0" type="line"/>
      <point x="262" y="99" type="line"/>
      <point x="171" y="99" type="line"/>
      <point x="171" y="0" type="line"/>
    </contour>
  </outline>
</glyph>
<glyph name="A" format="1">
  <advance width="503"/>
  <unicode hex="0041"/>
  <outline>
    <contour>
      <point x="304" y="630" type="line"/>
      <point x="200" y="630" type="line"/>
      <point x="-1" y="0" type="line"/>
      <point x="80" y="0" type="line"/>
      <point x="123" y="140" type="line"/>
      <point x="373" y="140" type="line"/>
      <point x="416" y="0" type="line"/>
      <point x="503" y="0" type="line"/>
    </contour>
    <contour>
      <point x="250" y="565" type="line"/>
      <point x="250" y="565"/>
      <point x="258" y="516"/>
      <point x="265" y="495" type="curve" smooth="yes"/>
      <point x="350" y="214" type="line"/>
      <point x="146" y="214" type="line"/>
      <point x="232" y="495" type="line" smooth="yes"/>
      <point x="238" y="515"/>
      <point x="246" y="565"/>
      <point x="246" y="565" type="curve"/>
    </contour>
    <contour>
      <point x="452" y="9" type="move" name="ogonek"/>
    </contour>
    <contour>
      <point x="252" y="0" type="move" name="bottom"/>
    </contour>
    <contour>
      <point x="252" y="630" type="move" name="top"/>
    </contour>
  </outline>
</glyph>
<glyph name="B" format="1">
  <advance width="503"/>
  <unicode hex="0042"/>
  <outline>
    <contour>
      <point x="59" y="630" type="line"/>
      <point x="59" y="0" type="line"/>
      <point x="298" y="0" type="line" smooth="yes"/>
      <point x="395" y="0"/>
      <point x="476" y="61"/>
      <point x="476" y="167" type="curve" smooth="yes"/>
      <point x="476" y="249"/>
      <point x="427" y="308"/>
      <point x="365" y="328" type="curve"/>
      <point x="365" y="331" type="line"/>
      <point x="419" y="350"/>
      <point x="462" y="404"/>
      <point x="462" y="476" type="curve" smooth="yes"/>
      <point x="462" y="569"/>
      <point x="392" y="630"/>
      <point x="298" y="630" type="curve" smooth="yes"/>
    </contour>
    <contour>
      <point x="140" y="286" type="line"/>
      <point x="282" y="286" type="line" smooth="yes"/>
      <point x="349" y="286"/>
      <point x="392" y="235"/>
      <point x="392" y="178" type="curve" smooth="yes"/>
      <point x="392" y="110"/>
      <point x="347" y="74"/>
      <point x="288" y="74" type="curve" smooth="yes"/>
      <point x="140" y="74" type="line"/>
    </contour>
    <contour>
      <point x="140" y="557" type="line"/>
      <point x="281" y="557" type="line" smooth="yes"/>
      <point x="338" y="557"/>
      <point x="376" y="525"/>
      <point x="376" y="459" type="curve" smooth="yes"/>
      <point x="376" y="406"/>
      <point x="337" y="360"/>
      <point x="275" y="360" type="curve" smooth="yes"/>
      <point x="140" y="360" type="line"/>
    </contour>
  </outline>
</glyph>
<glyph name="D" format="1">
  <advance width="544"/>
  <unicode hex="0044"/>
  <outline>
    <contour>
      <point x="64" y="0" type="line"/>
      <point x="260" y="0" type="line" smooth="yes"/>
      <point x="409" y="0"/>
      <point x="499" y="108"/>
      <point x="499" y="324" type="curve" smooth="yes"/>
      <point x="499" y="527"/>
      <point x="409" y="630"/>
      <point x="260" y="630" type="curve" smooth="yes"/>
      <point x="64" y="630" type="line"/>
    </contour>
    <contour>
      <point x="146" y="557" type="line"/>
      <point x="253" y="557" type="line" smooth="yes"/>
      <point x="353" y="557"/>
      <point x="415" y="488"/>
      <point x="415" y="347" type="curve" smooth="yes"/>
      <point x="415" y="302" type="line" smooth="yes"/>
      <point x="415" y="148"/>
      <point x="353" y="74"/>
      <point x="253" y="74" type="curve" smooth="yes"/>
      <point x="146" y="74" type="line"/>
    </contour>
    <contour>
      <point x="272" y="315" type="move" name="center"/>
    </contour>
    <contour>
      <point x="272" y="630" type="move" name="top"/>
    </contour>
  </outline>
</glyph>
<glyph name="E" format="1">
  <advance width="503"/>
  <unicode hex="0045"/>
  <outline>
    <contour>
      <point x="64" y="0" type="line"/>
      <point x="459" y="0" type="line"/>
      <point x="459" y="74" type="line"/>
      <point x="146" y="74" type="line"/>
      <point x="146" y="286" type="line"/>
      <point x="413" y="286" type="line"/>
      <point x="413" y="360" type="line"/>
      <point x="146" y="360" type="line"/>
      <point x="146" y="557" type="line"/>
      <point x="453" y="557" type="line"/>
      <point x="453" y="630" type="line"/>
      <point x="64" y="630" type="line"/>
    </contour>
    <contour>
      <point x="452" y="9" type="move" name="ogonek"/>
    </contour>
    <contour>
      <point x="252" y="0" type="move" name="bottom"/>
    </contour>
    <contour>
      <point x="252" y="630" type="move" name="top"/>
    </contour>
  </outline>
</glyph>
<glyph name="F" format="1">
  <advance width="461"/>
  <unicode hex="0046"/>
  <outline>
    <contour>
      <point x="64" y="0" type="line"/>
      <point x="146" y="0" type="line"/>
      <point x="146" y="280" type="line"/>
      <point x="395" y="280" type="line"/>
      <point x="395" y="353" type="line"/>
      <point x="146" y="353" type="line"/>
      <point x="146" y="557" type="line"/>
      <point x="428" y="557" type="line"/>
      <point x="428" y="630" type="line"/>
      <point x="64" y="630" type="line"/>
    </contour>
    <contour>
      <point x="231" y="630" type="move" name="top"/>
    </contour>
    <contour>
      <point x="105" y="0" type="move" name="bottom"/>
    </contour>
  </outline>
</glyph>
<glyph name="I" format="1">
  <advance width="210"/>
  <unicode hex="0049"/>
  <outline>
    <contour>
      <point x="146" y="0" type="line"/>
      <point x="146" y="630" type="line"/>
      <point x="64" y="630" type="line"/>
      <point x="64" y="0" type="line"/>
    </contour>
    <contour>
      <point x="188" y="9" type="move" name="ogonek"/>
    </contour>
    <contour>
      <point x="105" y="0" type="move" name="bottom"/>
    </contour>
    <contour>
      <point x="105" y="630" type="move" name="top"/>
    </contour>
  </outline>
</glyph>
<glyph name="K" format="1">
  <advance width="503"/>
  <unicode hex="004B"/>
  <outline>
    <contour>
      <point x="146" y="297" type="line"/>
      <point x="146" y="630" type="line"/>
      <point x="64" y="630" type="line"/>
      <point x="64" y="0" type="line"/>
      <point x="146" y="0" type="line"/>
      <point x="146" y="196" type="line"/>
      <point x="246" y="308" type="line"/>
      <point x="400" y="0" type="line"/>
      <point x="492" y="0" type="line"/>
      <point x="296" y="376" type="line"/>
      <point x="486" y="630" type="line"/>
      <point x="395" y="630" type="line"/>
    </contour>
    <contour>
      <point x="252" y="630" type="move" name="top"/>
    </contour>
    <contour>
      <point x="252" y="0" type="move" name="bottom"/>
    </contour>
  </outline>
</glyph>
<glyph name="L" format="1">
  <advance width="419"/>
  <unicode hex="004C"/>
  <outline>
    <contour>
      <point x="146" y="630" type="line"/>
      <point x="64" y="630" type="line"/>
      <point x="64" y="0" type="line"/>
      <point x="402" y="0" type="line"/>
      <point x="402" y="74" type="line"/>
      <point x="146" y="74" type="line"/>
    </contour>
    <contour>
      <point x="210" y="630" type="move" name="top"/>
    </contour>
    <contour>
      <point x="210" y="0" type="move" name="bottom"/>
    </contour>
  </outline>
</glyph>
<glyph name="O" format="1">
  <advance width="587"/>
  <unicode hex="004F"/>
  <outline>
    <contour>
      <point x="138" y="642"/>
      <point x="45" y="535"/>
      <point x="45" y="315" type="curve" smooth="yes"/>
      <point x="45" y="97"/>
      <point x="138" y="-11"/>
      <point x="293" y="-11" type="curve" smooth="yes"/>
      <point x="448" y="-11"/>
      <point x="542" y="97"/>
      <point x="542" y="315" type="curve" smooth="yes"/>
      <point x="542" y="535"/>
      <point x="448" y="642"/>
      <point x="293" y="642" type="curve" smooth="yes"/>
    </contour>
    <contour>
      <point x="394" y="567"/>
      <point x="457" y="492"/>
      <point x="457" y="338" type="curve" smooth="yes"/>
      <point x="457" y="292" type="line" smooth="yes"/>
      <point x="457" y="138"/>
      <point x="394" y="63"/>
      <point x="293" y="63" type="curve" smooth="yes"/>
      <point x="192" y="63"/>
      <point x="130" y="138"/>
      <point x="130" y="292" type="curve" smooth="yes"/>
      <point x="130" y="338" type="line" smooth="yes"/>
      <point x="130" y="492"/>
      <point x="192" y="567"/>
      <point x="293" y="567" type="curve" smooth="yes"/>
    </contour>
    <contour>
      <point x="294" y="0" type="move" name="bottom"/>
    </contour>
    <contour>
      <point x="293" y="630" type="move" name="top"/>
    </contour>
    <contour>
      <point x="522" y="630" type="move" name="topright"/>
    </contour>
    <contour>
      <point x="294" y="315" type="move" name="center"/>
    </contour>
  </outline>
</glyph>
<glyph name="P" format="1">
  <advance width="503"/>
  <unicode hex="0050"/>
  <outline>
    <contour>
      <point x="146" y="260" type="line"/>
      <point x="289" y="260" type="line" smooth="yes"/>
      <point x="407" y="260"/>
      <point x="478" y="336"/>
      <point x="478" y="447" type="curve" smooth="yes"/>
      <point x="478" y="556"/>
      <point x="414" y="630"/>
      <point x="289" y="630" type="curve" smooth="yes"/>
      <point x="64" y="630" type="line"/>
      <point x="64" y="0" type="line"/>
      <point x="146" y="0" type="line"/>
    </contour>
    <contour>
      <point x="146" y="557" type="line"/>
      <point x="287" y="557" type="line" smooth="yes"/>
      <point x="356" y="557"/>
      <point x="393" y="515"/>
      <point x="393" y="447" type="curve" smooth="yes"/>
      <point x="393" y="379"/>
      <point x="352" y="334"/>
      <point x="287" y="334" type="curve" smooth="yes"/>
      <point x="146" y="334" type="line"/>
    </contour>
  </outline>
</glyph>
<glyph name="T" format="1">
  <advance width="461"/>
  <unicode hex="0054"/>
  <outline>
    <contour>
      <point x="442" y="630" type="line"/>
      <point x="18" y="630" type="line"/>
      <point x="18" y="557" type="line"/>
      <point x="189" y="557" type="line"/>
      <point x="189" y="0" type="line"/>
      <point x="270" y="0" type="line"/>
      <point x="270" y="557" type="line"/>
      <point x="442" y="557" type="line"/>
    </contour>
    <contour>
      <point x="231" y="315" type="move" name="center"/>
    </contour>
    <contour>
      <point x="231" y="0" type="move" name="bottom"/>
    </contour>
    <contour>
      <point x="231" y="630" type="move" name="top"/>
    </contour>
  </outline>
</glyph>
<glyph name="V" format="1">
  <advance width="503"/>
  <unicode hex="0056"/>
  <outline>
    <contour>
      <point x="304" y="0" type="line"/>
      <point x="495" y="630" type="line"/>
      <point x="417" y="630" type="line"/>
      <point x="257" y="89" type="line"/>
      <point x="253" y="89" type="line"/>
      <point x="97" y="630" type="line"/>
      <point x="7" y="630" type="line"/>
      <point x="200" y="0" type="line"/>
    </contour>
  </outline>
</glyph>
<glyph name="W" format="1">
  <advance width="711"/>
  <unicode hex="0057"/>
  <outline>
    <contour>
      <point x="556" y="0" type="line"/>
      <point x="702" y="630" type="line"/>
      <point x="629" y="630" type="line"/>
      <point x="532" y="194" type="line" smooth="yes"/>
      <point x="523" y="154"/>
      <point x="513" y="83"/>
      <point x="513" y="83" type="curve" smooth="yes"/>
      <point x="510" y="83" type="line" smooth="yes"/>
      <point x="510" y="83"/>
      <point x="501" y="149"/>
      <point x="493" y="194" type="curve" smooth="yes"/>
      <point x="415" y="630" type="line"/>
      <point x="303" y="630" type="line"/>
      <point x="230" y="194" type="line" smooth="yes"/>
      <point x="220" y="139"/>
      <point x="214" y="83"/>
      <point x="214" y="83" type="curve" smooth="yes"/>
      <point x="210" y="83" type="line" smooth="yes"/>
      <point x="210" y="83"/>
      <point x="200" y="158"/>
      <point x="191" y="194" type="curve" smooth="yes"/>
      <point x="95" y="630" type="line"/>
      <point x="9" y="630" type="line"/>
      <point x="155" y="0" type="line"/>
      <point x="260" y="0" type="line"/>
      <point x="336" y="427" type="line" smooth="yes"/>
      <point x="343" y="470"/>
      <point x="353" y="554"/>
      <point x="353" y="554" type="curve"/>
      <point x="357" y="554" type="line"/>
      <point x="357" y="554"/>
      <point x="367" y="470"/>
      <point x="374" y="427" type="curve" smooth="yes"/>
      <point x="451" y="0" type="line"/>
    </contour>
    <contour>
      <point x="356" y="630" type="move" name="top"/>
    </contour>
  </outline>
</glyph>
<glyph name="X" format="1">
  <advance width="503"/>
  <unicode hex="0058"/>
  <outline>
    <contour>
      <point x="479" y="630" type="line"/>
      <point x="392" y="630" type="line"/>
      <point x="251" y="400" type="line"/>
      <point x="257" y="400" type="line"/>
      <point x="118" y="630" type="line"/>
      <point x="22" y="630" type="line"/>
      <point x="205" y="328" type="line"/>
      <point x="4" y="0" type="line"/>
      <point x="90" y="0" type="line"/>
      <point x="251" y="261" type="line"/>
      <point x="246" y="261" type="line"/>
      <point x="404" y="0" type="line"/>
      <point x="499" y="0" type="line"/>
      <point x="296" y="335" type="line"/>
    </contour>
    <contour>
      <point x="252" y="630" type="move" name="top"/>
    </contour>
    <contour>
      <point x="252" y="0" type="move" name="bottom"/>
    </contour>
  </outline>
</glyph>
<glyph name="Z" format="1">
  <advance width="461"/>
  <unicode hex="005A"/>
  <outline>
    <contour>
      <point x="434" y="630" type="line"/>
      <point x="37" y="630" type="line"/>
      <point x="37" y="557" type="line"/>
      <point x="318" y="557" type="line"/>
      <point x="19" y="35" type="line"/>
      <point x="19" y="0" type="line"/>
      <point x="440" y="0" type="line"/>
      <point x="440" y="74" type="line"/>
      <point x="133" y="74" type="line"/>
      <point x="434" y="596" type="line"/>
    </contour>
    <contour>
      <point x="231" y="630" type="move" name="top"/>
    </contour>
    <contour>
      <point x="231" y="0" type="move" name="bottom"/>
    </contour>
  </outline>
</glyph>
<glyph name="bracketright" format="1">
  <advance width="210"/>
  <unicode hex="005D"/>
  <outline>
    <contour>
      <point x="164" y="-148" type="line"/>
      <point x="164" y="676" type="line"/>
      <point x="19" y="676" type="line"/>
      <point x="19" y="616" type="line"/>
      <point x="95" y="616" type="line"/>
      <point x="95" y="-88" type="line"/>
      <point x="19" y="-88" type="line"/>
      <point x="19" y="-148" type="line"/>
    </contour>
  </outline>
</glyph>
<glyph name="asciicircum" format="1">
  <advance width="354"/>
  <unicode hex="005E"/>
  <outline>
    <contour>
      <point x="353" y="270" type="line"/>
      <point x="227" y="630" type="line"/>
      <point x="129" y="630" type="line"/>
      <point x="4" y="270" type="line"/>
      <point x="86" y="270" type="line"/>
      <point x="178" y="560" type="line"/>
      <point x="270" y="270" type="line"/>
    </contour>
  </outline>
</glyph>
<glyph name="underscore" format="1">
  <advance width="419"/>
  <unicode hex="005F"/>
  <outline>
    <contour>
      <point x="418" y="-114" type="line"/>
      <point x="418" y="-66" type="line"/>
      <point x="0" y="-66" type="line"/>
      <point x="0" y="-114" type="line"/>
    </contour>
  </outline>
</glyph>
<glyph name="a" format="1">
  <advance width="419"/>
  <unicode hex="0061"/>
  <outline>
    <contour>
      <point x="114" y="495"/>
      <point x="50" y="448"/>
      <point x="50" y="361" type="curve" smooth="yes"/>
      <point x="50" y="353"/>
      <point x="50" y="345"/>
      <point x="51" y="340" type="curve"/>
      <point x="125" y="340" type="line"/>
      <point x="125" y="352" type="line" smooth="yes"/>
      <point x="125" y="388"/>
      <point x="142" y="427"/>
      <point x="200" y="427" type="curve" smooth="yes"/>
      <point x="261" y="427"/>
      <point x="276" y="395"/>
      <point x="276" y="349" type="curve" smooth="yes"/>
      <point x="276" y="287" type="line"/>
      <point x="135" y="287"/>
      <point x="31" y="258"/>
      <point x="31" y="125" type="curve" smooth="yes"/>
      <point x="31" y="8"/>
      <point x="110" y="-11"/>
      <point x="158" y="-11" type="curve" smooth="yes"/>
      <point x="209" y="-11"/>
      <point x="251" y="12"/>
      <point x="276" y="52" type="curve"/>
      <point x="281" y="52" type="line"/>
      <point x="289" y="17"/>
      <point x="317" y="-7"/>
      <point x="357" y="-7" type="curve" smooth="yes"/>
      <point x="381" y="-7"/>
      <point x="398" y="-1"/>
      <point x="407" y="4" type="curve"/>
      <point x="407" y="56" type="line"/>
      <point x="376" y="56" type="line" smooth="yes"/>
      <point x="364" y="56"/>
      <point x="352" y="66"/>
      <point x="352" y="88" type="curve" smooth="yes"/>
      <point x="352" y="360" type="line" smooth="yes"/>
      <point x="352" y="445"/>
      <point x="303" y="495"/>
      <point x="205" y="495" type="curve" smooth="yes"/>
    </contour>
    <contour>
      <point x="276" y="176" type="line"/>
      <point x="276" y="96"/>
      <point x="224" y="56"/>
      <point x="176" y="56" type="curve" smooth="yes"/>
      <point x="133" y="56"/>
      <point x="110" y="75"/>
      <point x="110" y="130" type="curve" smooth="yes"/>
      <point x="110" y="205"/>
      <point x="178" y="219"/>
      <point x="276" y="219" type="curve"/>
    </contour>
    <contour>
      <point x="376" y="9" type="move" name="ogonek"/>
    </contour>
    <contour>
      <point x="210" y="0" type="move" name="bottom"/>
    </contour>
    <contour>
      <point x="210" y="484" type="move" name="top"/>
    </contour>
  </outline>
</glyph>
<glyph name="f" format="1">
  <advance width="210"/>
  <unicode hex="0066"/>
  <outline>
    <contour>
      <point x="73" y="672"/>
      <point x="51" y="616"/>
      <point x="51" y="561" type="curve" smooth="yes"/>
      <point x="51" y="484" type="line"/>
      <point x="8" y="484" type="line"/>
      <point x="8" y="416" type="line"/>
      <point x="51" y="416" type="line"/>
      <point x="51" y="0" type="line"/>
      <point x="126" y="0" type="line"/>
      <point x="126" y="416" type="line"/>
      <point x="210" y="416" type="line"/>
      <point x="210" y="484" type="line"/>
      <point x="126" y="484" type="line"/>
      <point x="126" y="565" type="line" smooth="yes"/>
      <point x="126" y="593"/>
      <point x="140" y="608"/>
      <point x="170" y="608" type="curve" smooth="yes"/>
      <point x="210" y="608" type="line"/>
      <point x="210" y="661" type="line"/>
      <point x="194" y="667"/>
      <point x="168" y="672"/>
      <point x="147" y="672" type="curve" smooth="yes"/>
    </contour>
  </outline>
</glyph>
<glyph name="j" format="1">
  <advance width="167"/>
  <unicode hex="006A"/>
  <outline>
    <contour>
      <point x="122" y="484" type="line"/>
      <point x="46" y="484" type="line"/>
      <point x="46" y="-59" type="line" smooth="yes"/>
      <point x="46" y="-88"/>
      <point x="31" y="-104"/>
      <point x="3" y="-104" type="curve" smooth="yes"/>
      <point x="-37" y="-104" type="line"/>
      <point x="-37" y="-156" type="line"/>
      <point x="-22" y="-162"/>
      <point x="4" y="-167"/>
      <point x="26" y="-167" type="curve" smooth="yes"/>
      <point x="99" y="-167"/>
      <point x="122" y="-111"/>
      <point x="122" y="-56" type="curve" smooth="yes"/>
    </contour>
    <contour>
      <point x="122" y="574" type="line"/>
      <point x="122" y="665" type="line"/>
      <point x="46" y="665" type="line"/>
      <point x="46" y="574" type="line"/>
    </contour>
  </outline>
</glyph>
<glyph name="k" format="1">
  <advance width="376"/>
  <unicode hex="006B"/>
  <outline>
    <contour>
      <point x="131" y="259" type="line"/>
      <point x="131" y="665" type="line"/>
      <point x="55" y="665" type="line"/>
      <point x="55" y="0" type="line"/>
      <point x="131" y="0" type="line"/>
      <point x="131" y="164" type="line"/>
      <point x="182" y="220" type="line"/>
      <point x="292" y="0" type="line"/>
      <point x="378" y="0" type="line"/>
      <point x="228" y="285" type="line"/>
      <point x="370" y="484" type="line"/>
      <point x="287" y="484" type="line"/>
    </contour>
    <contour>
      <point x="188" y="0" type="move" name="bottom"/>
    </contour>
  </outline>
</glyph>
<glyph name="l" format="1">
  <advance width="167"/>
  <unicode hex="006C"/>
  <outline>
    <contour>
      <point x="122" y="0" type="line"/>
      <point x="122" y="665" type="line"/>
      <point x="46" y="665" type="line"/>
      <point x="46" y="0" type="line"/>
    </contour>
    <contour>
      <point x="83" y="630" type="move" name="top"/>
    </contour>
    <contour>
      <point x="83" y="0" type="move" name="bottom"/>
    </contour>
    <contour>
      <point x="149" y="484" type="move" name="topright"/>
    </contour>
  </outline>
</glyph>
<glyph name="m" format="1">
  <advance width="628"/>
  <unicode hex="006D"/>
  <outline>
    <contour>
      <point x="413" y="495"/>
      <point x="367" y="471"/>
      <point x="341" y="424" type="curve"/>
      <point x="323" y="474"/>
      <point x="286" y="495"/>
      <point x="238" y="495" type="curve" smooth="yes"/>
      <point x="192" y="495"/>
      <point x="154" y="475"/>
      <point x="128" y="427" type="curve"/>
      <point x="123" y="427" type="line"/>
      <point x="112" y="484" type="line"/>
      <point x="55" y="484" type="line"/>
      <point x="55" y="0" type="line"/>
      <point x="131" y="0" type="line"/>
      <point x="131" y="295" type="line" smooth="yes"/>
      <point x="131" y="379"/>
      <point x="170" y="427"/>
      <point x="214" y="427" type="curve" smooth="yes"/>
      <point x="250" y="427"/>
      <point x="277" y="410"/>
      <point x="277" y="343" type="curve" smooth="yes"/>
      <point x="277" y="0" type="line"/>
      <point x="353" y="0" type="line"/>
      <point x="353" y="295" type="line" smooth="yes"/>
      <point x="353" y="379"/>
      <point x="390" y="427"/>
      <point x="435" y="427" type="curve" smooth="yes"/>
      <point x="471" y="427"/>
      <point x="497" y="410"/>
      <point x="497" y="343" type="curve" smooth="yes"/>
      <point x="497" y="0" type="line"/>
      <point x="573" y="0" type="line"/>
      <point x="573" y="348" type="line" smooth="yes"/>
      <point x="573" y="456"/>
      <point x="527" y="495"/>
      <point x="459" y="495" type="curve" smooth="yes"/>
    </contour>
  </outline>
</glyph>
<glyph name="p" format="1">
  <advance width="419"/>
  <unicode hex="0070"/>
  <outline>
    <contour>
      <point x="188" y="495"/>
      <point x="150" y="471"/>
      <point x="127" y="427" type="curve"/>
      <point x="123" y="427" type="line"/>
      <point x="112" y="484" type="line"/>
      <point x="55" y="484" type="line"/>
      <point x="55" y="-159" type="line"/>
      <point x="131" y="-159" type="line"/>
      <point x="131" y="43" type="line"/>
      <point x="135" y="43" type="line"/>
      <point x="152" y="9"/>
      <point x="191" y="-11"/>
      <point x="238" y="-11" type="curve" smooth="yes"/>
      <point x="318" y="-11"/>
      <point x="383" y="66"/>
      <point x="383" y="241" type="curve" smooth="yes"/>
      <point x="383" y="418"/>
      <point x="324" y="495"/>
      <point x="233" y="495" type="curve" smooth="yes"/>
    </contour>
    <contour>
      <point x="275" y="427"/>
      <point x="304" y="380"/>
      <point x="304" y="259" type="curve" smooth="yes"/>
      <point x="304" y="225" type="line" smooth="yes"/>
      <point x="304" y="104"/>
      <point x="275" y="56"/>
      <point x="217" y="56" type="curve" smooth="yes"/>
      <point x="159" y="56"/>
      <point x="131" y="113"/>
      <point x="131" y="225" type="curve" smooth="yes"/>
      <point x="131" y="259" type="line" smooth="yes"/>
      <point x="131" y="370"/>
      <point x="159" y="427"/>
      <point x="217" y="427" type="curve" smooth="yes"/>
    </contour>
    <contour>
      <point x="210" y="484" type="move" name="top"/>
    </contour>
    <contour>
      <point x="93" y="-161" type="move" name="bottom"/>
    </contour>
  </outline>
</glyph>
<glyph name="t" format="1">
  <advance width="210"/>
  <unicode hex="0074"/>
  <outline>
    <contour>
      <point x="130" y="484" type="line"/>
      <point x="130" y="618" type="line"/>
      <point x="71" y="618" type="line"/>
      <point x="54" y="484" type="line"/>
      <point x="12" y="484" type="line"/>
      <point x="12" y="416" type="line"/>
      <point x="54" y="416" type="line"/>
      <point x="54" y="102" type="line" smooth="yes"/>
      <point x="54" y="47"/>
      <point x="75" y="-9"/>
      <point x="140" y="-9" type="curve" smooth="yes"/>
      <point x="159" y="-9"/>
      <point x="182" y="-4"/>
      <point x="194" y="4" type="curve"/>
      <point x="194" y="56" type="line"/>
      <point x="173" y="56" type="line" smooth="yes"/>
      <point x="145" y="56"/>
      <point x="130" y="72"/>
      <point x="130" y="100" type="curve" smooth="yes"/>
      <point x="130" y="416" type="line"/>
      <point x="194" y="416" type="line"/>
      <point x="194" y="484" type="line"/>
    </contour>
    <contour>
      <point x="105" y="241" type="move" name="center"/>
    </contour>
    <contour>
      <point x="123" y="0" type="move" name="bottom"/>
    </contour>
  </outline>
</glyph>
<glyph name="v" format="1">
  <advance width="376"/>
  <unicode hex="0076"/>
  <outline>
    <contour>
      <point x="368" y="484" type="line"/>
      <point x="292" y="484" type="line"/>
      <point x="226" y="234" type="line" smooth="yes"/>
      <point x="215" y="194"/>
      <point x="204" y="155"/>
      <point x="194" y="115" type="curve"/>
      <point x="190" y="115" type="line"/>
      <point x="179" y="156"/>
      <point x="170" y="196"/>
      <point x="158" y="236" type="curve" smooth="yes"/>
      <point x="92" y="484" type="line"/>
      <point x="9" y="484" type="line"/>
      <point x="148" y="0" type="line"/>
      <point x="230" y="0" type="line"/>
    </contour>
    <contour>
      <point x="188" y="484" type="move" name="top"/>
    </contour>
    <contour>
      <point x="188" y="0" type="move" name="bottom"/>
    </contour>
  </outline>
</glyph>
<glyph name="w" format="1">
  <advance width="544"/>
  <unicode hex="0077"/>
  <outline>
    <contour>
      <point x="422" y="0" type="line"/>
      <point x="543" y="484" type="line"/>
      <point x="466" y="484" type="line"/>
      <point x="406" y="211" type="line" smooth="yes"/>
      <point x="393" y="156"/>
      <point x="386" y="97"/>
      <point x="386" y="97" type="curve" smooth="yes"/>
      <point x="383" y="97" type="line" smooth="yes"/>
      <point x="383" y="97"/>
      <point x="376" y="162"/>
      <point x="368" y="211" type="curve" smooth="yes"/>
      <point x="318" y="484" type="line"/>
      <point x="231" y="484" type="line"/>
      <point x="182" y="211" type="line" smooth="yes"/>
      <point x="174" y="162"/>
      <point x="167" y="97"/>
      <point x="167" y="97" type="curve" smooth="yes"/>
      <point x="163" y="97" type="line" smooth="yes"/>
      <point x="163" y="97"/>
      <point x="154" y="172"/>
      <point x="145" y="211" type="curve" smooth="yes"/>
      <point x="83" y="484" type="line"/>
      <point x="1" y="484" type="line"/>
      <point x="122" y="0" type="line"/>
      <point x="205" y="0" type="line"/>
      <point x="255" y="276" type="line" smooth="yes"/>
      <point x="264" y="327"/>
      <point x="269" y="387"/>
      <point x="269" y="387" type="curve"/>
      <point x="274" y="387" type="line"/>
      <point x="274" y="387"/>
      <point x="279" y="326"/>
      <point x="288" y="276" type="curve" smooth="yes"/>
      <point x="338" y="0" type="line"/>
    </contour>
    <contour>
      <point x="272" y="484" type="move" name="top"/>
    </contour>
  </outline>
</glyph>
<glyph name="x" format="1">
  <advance width="376"/>
  <unicode hex="0078"/>
  <outline>
    <contour>
      <point x="365" y="484" type="line"/>
      <point x="281" y="484" type="line"/>
      <point x="187" y="313" type="line"/>
      <point x="192" y="313" type="line"/>
      <point x="103" y="484" type="line"/>
      <point x="11" y="484" type="line"/>
      <point x="147" y="244" type="line"/>
      <point x="5" y="0" type="line"/>
      <point x="88" y="0" type="line"/>
      <point x="188" y="182" type="line"/>
      <point x="184" y="182" type="line"/>
      <point x="281" y="0" type="line"/>
      <point x="371" y="0" type="line"/>
      <point x="230" y="251" type="line"/>
    </contour>
  </outline>
</glyph>
<glyph name="y" format="1">
  <advance width="376"/>
  <unicode hex="0079"/>
  <outline>
    <contour>
      <point x="368" y="484" type="line"/>
      <point x="292" y="484" type="line"/>
      <point x="233" y="234" type="line"/>
      <point x="223" y="192"/>
      <point x="212" y="151"/>
      <point x="202" y="108" type="curve"/>
      <point x="199" y="108" type="line"/>
      <point x="186" y="151"/>
      <point x="175" y="193"/>
      <point x="162" y="235" type="curve"/>
      <point x="92" y="484" type="line"/>
      <point x="9" y="484" type="line"/>
      <point x="157" y="0" type="line"/>
      <point x="139" y="-83"/>
      <point x="102" y="-107"/>
      <point x="61" y="-107" type="curve" smooth="yes"/>
      <point x="35" y="-107" type="line"/>
      <point x="35" y="-160" type="line"/>
      <point x="51" y="-165"/>
      <point x="68" y="-167"/>
      <point x="89" y="-167" type="curve" smooth="yes"/>
      <point x="174" y="-167"/>
      <point x="217" y="-81"/>
      <point x="245" y="25" type="curve" smooth="yes"/>
    </contour>
    <contour>
      <point x="188" y="484" type="move" name="top"/>
    </contour>
    <contour>
      <point x="310" y="0" type="move" name="bottom"/>
    </contour>
  </outline>
</glyph>
<glyph name="z" format="1">
  <advance width="376"/>
  <unicode hex="007A"/>
  <outline>
    <contour>
      <point x="340" y="448" type="line"/>
      <point x="340" y="484" type="line"/>
      <point x="38" y="484" type="line"/>
      <point x="38" y="416" type="line"/>
      <point x="236" y="416" type="line"/>
      <point x="24" y="35" type="line"/>
      <point x="24" y="0" type="line"/>
      <point x="353" y="0" type="line"/>
      <point x="353" y="68" type="line"/>
      <point x="127" y="68" type="line"/>
    </contour>
    <contour>
      <point x="188" y="484" type="move" name="top"/>
    </contour>
    <contour>
      <point x="188" y="0" type="move" name="bottom"/>
    </contour>
  </outline>
</glyph>
<glyph name="braceleft" format="1">
  <advance width="252"/>
  <unicode hex="007B"/>
  <outline>
    <contour>
      <point x="234" y="676" type="line"/>
      <point x="157" y="676"/>
      <point x="89" y="655"/>
      <point x="89" y="540" type="curve" smooth="yes"/>
      <point x="89" y="359" type="line" smooth="yes"/>
      <point x="89" y="317"/>
      <point x="52" y="304"/>
      <point x="19" y="304" type="curve"/>
      <point x="19" y="226" type="line"/>
      <point x="52" y="226"/>
      <point x="89" y="212"/>
      <point x="89" y="171" type="curve" smooth="yes"/>
      <point x="89" y="-10" type="line" smooth="yes"/>
      <point x="89" y="-126"/>
      <point x="157" y="-147"/>
      <point x="234" y="-147" type="curve"/>
      <point x="234" y="-94" type="line"/>
      <point x="201" y="-94"/>
      <point x="161" y="-83"/>
      <point x="161" y="-28" type="curve" smooth="yes"/>
      <point x="161" y="35"/>
      <point x="157" y="97"/>
      <point x="155" y="161" type="curve" smooth="yes"/>
      <point x="153" y="224"/>
      <point x="132" y="260"/>
      <point x="74" y="260" type="curve"/>
      <point x="74" y="269" type="line"/>
      <point x="132" y="269"/>
      <point x="153" y="306"/>
      <point x="155" y="368" type="curve" smooth="yes"/>
      <point x="157" y="433"/>
      <point x="161" y="495"/>
      <point x="161" y="558" type="curve" smooth="yes"/>
      <point x="161" y="613"/>
      <point x="201" y="623"/>
      <point x="234" y="623" type="curve"/>
    </contour>
  </outline>
</glyph>
<glyph name="braceright" format="1">
  <advance width="252"/>
  <unicode hex="007D"/>
  <outline>
    <contour>
      <point x="19" y="623" type="line"/>
      <point x="52" y="623"/>
      <point x="92" y="613"/>
      <point x="92" y="558" type="curve" smooth="yes"/>
      <point x="92" y="495"/>
      <point x="95" y="433"/>
      <point x="98" y="368" type="curve" smooth="yes"/>
      <point x="99" y="306"/>
      <point x="120" y="269"/>
      <point x="178" y="269" type="curve"/>
      <point x="178" y="260" type="line"/>
      <point x="120" y="260"/>
      <point x="99" y="224"/>
      <point x="98" y="161" type="curve" smooth="yes"/>
      <point x="95" y="97"/>
      <point x="92" y="35"/>
      <point x="92" y="-28" type="curve" smooth="yes"/>
      <point x="92" y="-83"/>
      <point x="52" y="-94"/>
      <point x="19" y="-94" type="curve"/>
      <point x="19" y="-147" type="line"/>
      <point x="95" y="-147"/>
      <point x="162" y="-126"/>
      <point x="162" y="-10" type="curve" smooth="yes"/>
      <point x="162" y="171" type="line" smooth="yes"/>
      <point x="162" y="212"/>
      <point x="201" y="226"/>
      <point x="234" y="226" type="curve"/>
      <point x="234" y="304" type="line"/>
      <point x="201" y="304"/>
      <point x="162" y="317"/>
      <point x="162" y="359" type="curve" smooth="yes"/>
      <point x="162" y="540" type="line" smooth="yes"/>
      <point x="162" y="655"/>
      <point x="95" y="676"/>
      <point x="19" y="676" type="curve"/>
    </contour>
  </outline>
</glyph>
<glyph name="asciitilde" format="1">
  <advance width="440"/>
  <unicode hex="007E"/>
  <outline>
    <contour>
      <point x="408" y="357" type="line"/>
      <point x="408" y="357"/>
      <point x="363" y="289"/>
      <point x="300" y="289" type="curve" smooth="yes"/>
      <point x="241" y="289"/>
      <point x="198" y="345"/>
      <point x="140" y="345" type="curve" smooth="yes"/>
      <point x="68" y="345"/>
      <point x="32" y="279"/>
      <point x="32" y="279" type="curve"/>
      <point x="32" y="194" type="line"/>
      <point x="32" y="194"/>
      <point x="77" y="261"/>
      <point x="140" y="261" type="curve" smooth="yes"/>
      <point x="200" y="261"/>
      <point x="242" y="205"/>
      <point x="300" y="205" type="curve" smooth="yes"/>
      <point x="372" y="205"/>
      <point x="408" y="272"/>
      <point x="408" y="272" type="curve"/>
    </contour>
  </outline>
</glyph>
<glyph name="exclamdown" format="1">
  <advance width="251"/>
  <unicode hex="00A1"/>
  <outline>
    <contour>
      <point x="114" y="327" type="line"/>
      <point x="107" y="170"/>
      <point x="101" y="10"/>
      <point x="92" y="-147" type="curve"/>
      <point x="196" y="-147" type="line"/>
      <point x="191" y="-95"/>
      <point x="180" y="160"/>
      <point x="172" y="327" type="curve"/>
    </contour>
    <contour>
      <point x="190" y="484" type="line"/>
      <point x="99" y="484" type="line"/>
      <point x="99" y="385" type="line"/>
      <point x="190" y="385" type="line"/>
    </contour>
  </outline>
</glyph>
<glyph name="currency" format="1">
  <advance width="419"/>
  <unicode hex="00A4"/>
  <outline>
    <contour>
      <point x="160" y="542"/>
      <point x="114" y="521"/>
      <point x="80" y="488" type="curve"/>
      <point x="42" y="527" type="line"/>
      <point x="-3" y="483" type="line"/>
      <point x="43" y="438" type="line"/>
      <point x="22" y="401"/>
      <point x="10" y="360"/>
      <point x="10" y="314" type="curve" smooth="yes"/>
      <point x="10" y="268"/>
      <point x="22" y="226"/>
      <point x="43" y="191" type="curve"/>
      <point x="-3" y="147" type="line"/>
      <point x="42" y="102" type="line"/>
      <point x="81" y="141" type="line"/>
      <point x="115" y="108"/>
      <point x="160" y="88"/>
      <point x="210" y="88" type="curve" smooth="yes"/>
      <point x="258" y="88"/>
      <point x="304" y="108"/>
      <point x="338" y="141" type="curve"/>
      <point x="378" y="102" type="line"/>
      <point x="422" y="147" type="line"/>
      <point x="376" y="191" type="line"/>
      <point x="397" y="226"/>
      <point x="409" y="268"/>
      <point x="409" y="314" type="curve" smooth="yes"/>
      <point x="409" y="360"/>
      <point x="397" y="401"/>
      <point x="376" y="438" type="curve"/>
      <point x="422" y="483" type="line"/>
      <point x="378" y="527" type="line"/>
      <point x="338" y="488" type="line"/>
      <point x="304" y="521"/>
      <point x="258" y="542"/>
      <point x="210" y="542" type="curve" smooth="yes"/>
    </contour>
    <contour>
      <point x="285" y="478"/>
      <point x="345" y="406"/>
      <point x="345" y="314" type="curve" smooth="yes"/>
      <point x="345" y="225"/>
      <point x="285" y="152"/>
      <point x="210" y="152" type="curve" smooth="yes"/>
      <point x="133" y="152"/>
      <point x="73" y="225"/>
      <point x="73" y="314" type="curve" smooth="yes"/>
      <point x="73" y="406"/>
      <point x="133" y="478"/>
      <point x="210" y="478" type="curve" smooth="yes"/>
    </contour>
  </outline>
</glyph>
<glyph name="yen" format="1">
  <advance width="419"/>
  <unicode hex="00A5"/>
  <outline>
    <contour>
      <point x="279" y="339" type="line"/>
      <point x="416" y="630" type="line"/>
      <point x="340" y="630" type="line"/>
      <point x="218" y="361" type="line"/>
      <point x="214" y="361" type="line"/>
      <point x="89" y="630" type="line"/>
      <point x="2" y="630" type="line"/>
      <point x="140" y="339" type="line"/>
      <point x="23" y="339" type="line"/>
      <point x="23" y="280" type="line"/>
      <point x="170" y="280" type="line"/>
      <point x="170" y="215" type="line"/>
      <point x="23" y="215" type="line"/>
      <point x="23" y="155" type="line"/>
      <point x="170" y="155" type="line"/>
      <point x="170" y="0" type="line"/>
      <point x="250" y="0" type="line"/>
      <point x="250" y="155" type="line"/>
      <point x="396" y="155" type="line"/>
      <point x="396" y="215" type="line"/>
      <point x="250" y="215" type="line"/>
      <point x="250" y="280" type="line"/>
      <point x="396" y="280" type="line"/>
      <point x="396" y="339" type="line"/>
    </contour>
  </outline>
</glyph>
<glyph name="section" format="1">
  <advance width="419"/>
  <unicode hex="00A7"/>
  <outline>
    <contour>
      <point x="127" y="642"/>
      <point x="72" y="590"/>
      <point x="72" y="503" type="curve" smooth="yes"/>
      <point x="72" y="443"/>
      <point x="95" y="406"/>
      <point x="127" y="378" type="curve"/>
      <point x="95" y="356"/>
      <point x="62" y="314"/>
      <point x="62" y="255" type="curve" smooth="yes"/>
      <point x="62" y="69"/>
      <point x="283" y="102"/>
      <point x="283" y="-35" type="curve" smooth="yes"/>
      <point x="283" y="-61"/>
      <point x="270" y="-101"/>
      <point x="218" y="-101" type="curve" smooth="yes"/>
      <point x="166" y="-101"/>
      <point x="151" y="-63"/>
      <point x="151" y="-26" type="curve" smooth="yes"/>
      <point x="151" y="-18" type="line"/>
      <point x="73" y="-18" type="line"/>
      <point x="73" y="-20"/>
      <point x="72" y="-28"/>
      <point x="72" y="-35" type="curve" smooth="yes"/>
      <point x="72" y="-107"/>
      <point x="121" y="-167"/>
      <point x="210" y="-167" type="curve" smooth="yes"/>
      <point x="306" y="-167"/>
      <point x="361" y="-115"/>
      <point x="361" y="-29" type="curve" smooth="yes"/>
      <point x="361" y="31"/>
      <point x="337" y="68"/>
      <point x="306" y="96" type="curve"/>
      <point x="338" y="119"/>
      <point x="370" y="160"/>
      <point x="370" y="219" type="curve" smooth="yes"/>
      <point x="370" y="406"/>
      <point x="150" y="372"/>
      <point x="150" y="510" type="curve" smooth="yes"/>
      <point x="150" y="536"/>
      <point x="162" y="575"/>
      <point x="215" y="575" type="curve" smooth="yes"/>
      <point x="266" y="575"/>
      <point x="282" y="538"/>
      <point x="282" y="500" type="curve" smooth="yes"/>
      <point x="282" y="492" type="line"/>
      <point x="361" y="492" type="line"/>
      <point x="361" y="494"/>
      <point x="361" y="503"/>
      <point x="361" y="510" type="curve" smooth="yes"/>
      <point x="361" y="581"/>
      <point x="313" y="642"/>
      <point x="223" y="642" type="curve" smooth="yes"/>
    </contour>
    <contour>
      <point x="229" y="311"/>
      <point x="297" y="284"/>
      <point x="297" y="201" type="curve" smooth="yes"/>
      <point x="297" y="166"/>
      <point x="284" y="140"/>
      <point x="265" y="125" type="curve"/>
      <point x="204" y="163"/>
      <point x="136" y="190"/>
      <point x="136" y="274" type="curve" smooth="yes"/>
      <point x="136" y="308"/>
      <point x="148" y="334"/>
      <point x="167" y="348" type="curve"/>
    </contour>
  </outline>
</glyph>
<glyph name="dieresis" format="1">
  <advance width="251"/>
  <unicode hex="00A8"/>
  <outline>
    <contour>
      <point x="234" y="577" type="line"/>
      <point x="234" y="665" type="line"/>
      <point x="155" y="665" type="line"/>
      <point x="155" y="577" type="line"/>
    </contour>
    <contour>
      <point x="97" y="577" type="line"/>
      <point x="97" y="665" type="line"/>
      <point x="17" y="665" type="line"/>
      <point x="17" y="577" type="line"/>
    </contour>
    <contour>
      <point x="126" y="484" type="move" name="_top"/>
    </contour>
  </outline>
</glyph>
<glyph name="copyright" format="1">
  <advance width="555"/>
  <unicode hex="00A9"/>
  <outline>
    <contour>
      <point x="116" y="642"/>
      <point x="20" y="514"/>
      <point x="20" y="315" type="curve" smooth="yes"/>
      <point x="20" y="116"/>
      <point x="116" y="-11"/>
      <point x="278" y="-11" type="curve" smooth="yes"/>
      <point x="439" y="-11"/>
      <point x="536" y="116"/>
      <point x="536" y="315" type="curve" smooth="yes"/>
      <point x="536" y="514"/>
      <point x="439" y="642"/>
      <point x="278" y="642" type="curve" smooth="yes"/>
    </contour>
    <contour>
      <point x="183" y="513"/>
      <point x="133" y="449"/>
      <point x="133" y="320" type="curve" smooth="yes"/>
      <point x="133" y="191"/>
      <point x="183" y="128"/>
      <point x="280" y="128" type="curve" smooth="yes"/>
      <point x="355" y="128"/>
      <point x="409" y="172"/>
      <point x="409" y="267" type="curve"/>
      <point x="358" y="267" type="line"/>
      <point x="358" y="206"/>
      <point x="327" y="176"/>
      <point x="280" y="176" type="curve" smooth="yes"/>
      <point x="217" y="176"/>
      <point x="187" y="219"/>
      <point x="187" y="307" type="curve" smooth="yes"/>
      <point x="187" y="335" type="line" smooth="yes"/>
      <point x="187" y="422"/>
      <point x="217" y="465"/>
      <point x="280" y="465" type="curve" smooth="yes"/>
      <point x="326" y="465"/>
      <point x="356" y="435"/>
      <point x="356" y="372" type="curve"/>
      <point x="409" y="372" type="line"/>
      <point x="409" y="467"/>
      <point x="355" y="513"/>
      <point x="280" y="513" type="curve" smooth="yes"/>
    </contour>
    <contour>
      <point x="412" y="598"/>
      <point x="494" y="488"/>
      <point x="494" y="315" type="curve" smooth="yes"/>
      <point x="494" y="144"/>
      <point x="412" y="32"/>
      <point x="278" y="32" type="curve" smooth="yes"/>
      <point x="144" y="32"/>
      <point x="61" y="144"/>
      <point x="61" y="315" type="curve" smooth="yes"/>
      <point x="61" y="488"/>
      <point x="144" y="598"/>
      <point x="278" y="598" type="curve" smooth="yes"/>
    </contour>
  </outline>
</glyph>
<glyph name="ordfeminine" format="1">
  <advance width="279"/>
  <unicode hex="00AA"/>
  <outline>
    <contour>
      <point x="75" y="676"/>
      <point x="31" y="645"/>
      <point x="31" y="583" type="curve" smooth="yes"/>
      <point x="31" y="578"/>
      <point x="31" y="574"/>
      <point x="31" y="568" type="curve"/>
      <point x="85" y="568" type="line"/>
      <point x="85" y="577" type="line" smooth="yes"/>
      <point x="85" y="602"/>
      <point x="98" y="628"/>
      <point x="134" y="628" type="curve" smooth="yes"/>
      <point x="173" y="628"/>
      <point x="183" y="606"/>
      <point x="183" y="576" type="curve" smooth="yes"/>
      <point x="183" y="537" type="line"/>
      <point x="88" y="537"/>
      <point x="19" y="518"/>
      <point x="19" y="425" type="curve" smooth="yes"/>
      <point x="19" y="345"/>
      <point x="73" y="333"/>
      <point x="106" y="333" type="curve" smooth="yes"/>
      <point x="140" y="333"/>
      <point x="171" y="349"/>
      <point x="187" y="378" type="curve"/>
      <point x="185" y="379" type="line"/>
      <point x="191" y="353"/>
      <point x="211" y="336"/>
      <point x="239" y="336" type="curve" smooth="yes"/>
      <point x="255" y="336"/>
      <point x="267" y="339"/>
      <point x="274" y="344" type="curve"/>
      <point x="274" y="382" type="line"/>
      <point x="253" y="382" type="line" smooth="yes"/>
      <point x="245" y="382"/>
      <point x="237" y="387"/>
      <point x="237" y="401" type="curve" smooth="yes"/>
      <point x="237" y="583" type="line" smooth="yes"/>
      <point x="237" y="642"/>
      <point x="204" y="676"/>
      <point x="137" y="676" type="curve" smooth="yes"/>
    </contour>
    <contour>
      <point x="183" y="460" type="line"/>
      <point x="183" y="408"/>
      <point x="148" y="382"/>
      <point x="118" y="382" type="curve" smooth="yes"/>
      <point x="90" y="382"/>
      <point x="75" y="393"/>
      <point x="75" y="428" type="curve" smooth="yes"/>
      <point x="75" y="478"/>
      <point x="120" y="488"/>
      <point x="183" y="488" type="curve"/>
    </contour>
  </outline>
</glyph>
<glyph name="registered" format="1">
  <advance width="555"/>
  <unicode hex="00AE"/>
  <outline>
    <contour>
      <point x="116" y="642"/>
      <point x="20" y="514"/>
      <point x="20" y="315" type="curve" smooth="yes"/>
      <point x="20" y="116"/>
      <point x="116" y="-11"/>
      <point x="278" y="-11" type="curve" smooth="yes"/>
      <point x="439" y="-11"/>
      <point x="536" y="116"/>
      <point x="536" y="315" type="curve" smooth="yes"/>
      <point x="536" y="514"/>
      <point x="439" y="642"/>
      <point x="278" y="642" type="curve" smooth="yes"/>
    </contour>
    <contour>
      <point x="412" y="598"/>
      <point x="494" y="488"/>
      <point x="494" y="315" type="curve" smooth="yes"/>
      <point x="494" y="144"/>
      <point x="412" y="32"/>
      <point x="278" y="32" type="curve" smooth="yes"/>
      <point x="144" y="32"/>
      <point x="61" y="144"/>
      <point x="61" y="315" type="curve" smooth="yes"/>
      <point x="61" y="488"/>
      <point x="144" y="598"/>
      <point x="278" y="598" type="curve" smooth="yes"/>
    </contour>
    <contour>
      <point x="160" y="505" type="line"/>
      <point x="160" y="136" type="line"/>
      <point x="212" y="136" type="line"/>
      <point x="212" y="297" type="line"/>
      <point x="287" y="297" type="line" smooth="yes"/>
      <point x="312" y="297"/>
      <point x="346" y="279"/>
      <point x="346" y="203" type="curve" smooth="yes"/>
      <point x="346" y="149"/>
      <point x="371" y="133"/>
      <point x="399" y="133" type="curve" smooth="yes"/>
      <point x="409" y="133"/>
      <point x="421" y="136"/>
      <point x="425" y="138" type="curve"/>
      <point x="425" y="154" type="line"/>
      <point x="409" y="160"/>
      <point x="400" y="173"/>
      <point x="400" y="225" type="curve" smooth="yes"/>
      <point x="400" y="295"/>
      <point x="356" y="318"/>
      <point x="344" y="322" type="curve"/>
      <point x="344" y="327" type="line"/>
      <point x="376" y="337"/>
      <point x="402" y="368"/>
      <point x="402" y="413" type="curve" smooth="yes"/>
      <point x="402" y="468"/>
      <point x="362" y="505"/>
      <point x="308" y="505" type="curve" smooth="yes"/>
    </contour>
    <contour>
      <point x="212" y="457" type="line"/>
      <point x="291" y="457" type="line" smooth="yes"/>
      <point x="326" y="457"/>
      <point x="348" y="438"/>
      <point x="348" y="402" type="curve" smooth="yes"/>
      <point x="348" y="369"/>
      <point x="326" y="345"/>
      <point x="289" y="345" type="curve" smooth="yes"/>
      <point x="212" y="345" type="line"/>
    </contour>
  </outline>
</glyph>
<glyph name="degree" format="1">
  <advance width="368"/>
  <unicode hex="00B0"/>
  <outline>
    <contour>
      <point x="113" y="642"/>
      <point x="58" y="587"/>
      <point x="58" y="518" type="curve" smooth="yes"/>
      <point x="58" y="448"/>
      <point x="113" y="393"/>
      <point x="182" y="393" type="curve" smooth="yes"/>
      <point x="251" y="393"/>
      <point x="306" y="448"/>
      <point x="306" y="518" type="curve" smooth="yes"/>
      <point x="306" y="587"/>
      <point x="251" y="642"/>
      <point x="182" y="642" type="curve" smooth="yes"/>
    </contour>
    <contour>
      <point x="224" y="592"/>
      <point x="257" y="558"/>
      <point x="257" y="518" type="curve" smooth="yes"/>
      <point x="257" y="476"/>
      <point x="224" y="442"/>
      <point x="182" y="442" type="curve" smooth="yes"/>
      <point x="140" y="442"/>
      <point x="107" y="476"/>
      <point x="107" y="518" type="curve" smooth="yes"/>
      <point x="107" y="558"/>
      <point x="140" y="592"/>
      <point x="182" y="592" type="curve" smooth="yes"/>
    </contour>
  </outline>
</glyph>
<glyph name="paragraph" format="1">
  <advance width="405"/>
  <unicode hex="00B6"/>
  <outline>
    <contour>
      <point x="385" y="574" type="line"/>
      <point x="385" y="630" type="line"/>
      <point x="193" y="630" type="line" smooth="yes"/>
      <point x="95" y="630"/>
      <point x="17" y="541"/>
      <point x="17" y="430" type="curve" smooth="yes"/>
      <point x="17" y="326"/>
      <point x="83" y="241"/>
      <point x="172" y="230" type="curve"/>
      <point x="172" y="-159" type="line"/>
      <point x="232" y="-159" type="line"/>
      <point x="232" y="574" type="line"/>
      <point x="281" y="574" type="line"/>
      <point x="281" y="-159" type="line"/>
      <point x="341" y="-159" type="line"/>
      <point x="341" y="574" type="line"/>
    </contour>
  </outline>
</glyph>
<glyph name="periodcentered" format="1">
  <advance width="210"/>
  <unicode hex="00B7"/>
  <outline>
    <contour>
      <point x="151" y="265" type="line"/>
      <point x="151" y="367" type="line"/>
      <point x="58" y="367" type="line"/>
      <point x="58" y="265" type="line"/>
    </contour>
  </outline>
</glyph>
<glyph name="onehalf" format="1">
  <advance width="629"/>
  <unicode hex="00BD"/>
  <outline>
    <contour>
      <point x="154" y="-11" type="line"/>
      <point x="535" y="642" type="line"/>
      <point x="478" y="642" type="line"/>
      <point x="96" y="-11" type="line"/>
    </contour>
    <contour>
      <point x="159" y="314" type="line"/>
      <point x="159" y="630" type="line"/>
      <point x="132" y="630" type="line"/>
      <point x="104" y="612"/>
      <point x="57" y="595"/>
      <point x="28" y="591" type="curve"/>
      <point x="28" y="551" type="line"/>
      <point x="102" y="551" type="line"/>
      <point x="102" y="314" type="line"/>
      <point x="29" y="314" type="line"/>
      <point x="29" y="261" type="line"/>
      <point x="226" y="261" type="line"/>
      <point x="226" y="314" type="line"/>
    </contour>
    <contour>
      <point x="432" y="380"/>
      <point x="384" y="345"/>
      <point x="384" y="264" type="curve" smooth="yes"/>
      <point x="384" y="252"/>
      <point x="385" y="236"/>
      <point x="385" y="236" type="curve"/>
      <point x="443" y="236" type="line"/>
      <point x="443" y="265" type="line" smooth="yes"/>
      <point x="443" y="297"/>
      <point x="456" y="326"/>
      <point x="487" y="326" type="curve" smooth="yes"/>
      <point x="519" y="326"/>
      <point x="527" y="300"/>
      <point x="527" y="280" type="curve" smooth="yes"/>
      <point x="527" y="226"/>
      <point x="484" y="186"/>
      <point x="443" y="141" type="curve" smooth="yes"/>
      <point x="410" y="106"/>
      <point x="380" y="67"/>
      <point x="380" y="15" type="curve" smooth="yes"/>
      <point x="380" y="0" type="line"/>
      <point x="590" y="0" type="line"/>
      <point x="590" y="58" type="line"/>
      <point x="450" y="58" type="line"/>
      <point x="462" y="83"/>
      <point x="485" y="103"/>
      <point x="502" y="123" type="curve" smooth="yes"/>
      <point x="542" y="165"/>
      <point x="589" y="218"/>
      <point x="589" y="280" type="curve" smooth="yes"/>
      <point x="589" y="352"/>
      <point x="543" y="380"/>
      <point x="488" y="380" type="curve" smooth="yes"/>
    </contour>
  </outline>
</glyph>
<glyph name="threequarters" format="1">
  <advance width="629"/>
  <unicode hex="00BE"/>
  <outline>
    <contour>
      <point x="156" y="-11" type="line"/>
      <point x="538" y="642" type="line"/>
      <point x="480" y="642" type="line"/>
      <point x="99" y="-11" type="line"/>
    </contour>
    <contour>
      <point x="73" y="642"/>
      <point x="31" y="600"/>
      <point x="31" y="536" type="curve" smooth="yes"/>
      <point x="31" y="519" type="line"/>
      <point x="89" y="519" type="line"/>
      <point x="89" y="531" type="line" smooth="yes"/>
      <point x="89" y="571"/>
      <point x="108" y="590"/>
      <point x="132" y="590" type="curve" smooth="yes"/>
      <point x="155" y="590"/>
      <point x="175" y="573"/>
      <point x="175" y="534" type="curve" smooth="yes"/>
      <point x="175" y="495"/>
      <point x="154" y="478"/>
      <point x="130" y="478" type="curve" smooth="yes"/>
      <point x="97" y="478" type="line"/>
      <point x="97" y="425" type="line"/>
      <point x="129" y="425" type="line" smooth="yes"/>
      <point x="155" y="425"/>
      <point x="180" y="414"/>
      <point x="180" y="368" type="curve" smooth="yes"/>
      <point x="180" y="328"/>
      <point x="160" y="309"/>
      <point x="130" y="309" type="curve" smooth="yes"/>
      <point x="99" y="309"/>
      <point x="83" y="329"/>
      <point x="83" y="369" type="curve" smooth="yes"/>
      <point x="83" y="382" type="line"/>
      <point x="25" y="382" type="line"/>
      <point x="25" y="371" type="line" smooth="yes"/>
      <point x="25" y="301"/>
      <point x="63" y="257"/>
      <point x="133" y="257" type="curve" smooth="yes"/>
      <point x="194" y="257"/>
      <point x="238" y="297"/>
      <point x="238" y="366" type="curve" smooth="yes"/>
      <point x="238" y="409"/>
      <point x="217" y="440"/>
      <point x="188" y="454" type="curve"/>
      <point x="216" y="471"/>
      <point x="233" y="495"/>
      <point x="233" y="536" type="curve" smooth="yes"/>
      <point x="233" y="604"/>
      <point x="192" y="642"/>
      <point x="131" y="642" type="curve" smooth="yes"/>
    </contour>
    <contour>
      <point x="453" y="380" type="line"/>
      <point x="431" y="295"/>
      <point x="396" y="206"/>
      <point x="358" y="136" type="curve"/>
      <point x="358" y="88" type="line"/>
      <point x="496" y="88" type="line"/>
      <point x="496" y="0" type="line"/>
      <point x="553" y="0" type="line"/>
      <point x="553" y="88" type="line"/>
      <point x="591" y="88" type="line"/>
      <point x="591" y="140" type="line"/>
      <point x="553" y="140" type="line"/>
      <point x="553" y="327" type="line"/>
      <point x="528" y="327" type="line"/>
      <point x="521" y="290"/>
      <point x="504" y="246"/>
      <point x="496" y="225" type="curve"/>
      <point x="496" y="140" type="line"/>
      <point x="418" y="140" type="line"/>
      <point x="442" y="181"/>
      <point x="490" y="286"/>
      <point x="511" y="380" type="curve"/>
    </contour>
  </outline>
</glyph>
<glyph name="questiondown" format="1">
  <advance width="461"/>
  <unicode hex="00BF"/>
  <outline>
    <contour>
      <point x="264" y="318" type="line"/>
      <point x="184" y="318" type="line"/>
      <point x="184" y="281" type="line" smooth="yes"/>
      <point x="184" y="170"/>
      <point x="64" y="172"/>
      <point x="64" y="2" type="curve" smooth="yes"/>
      <point x="64" y="-93"/>
      <point x="134" y="-158"/>
      <point x="228" y="-158" type="curve" smooth="yes"/>
      <point x="344" y="-158"/>
      <point x="400" y="-79"/>
      <point x="400" y="29" type="curve" smooth="yes"/>
      <point x="400" y="41"/>
      <point x="398" y="61"/>
      <point x="398" y="61" type="curve" smooth="yes"/>
      <point x="316" y="61" type="line" smooth="yes"/>
      <point x="316" y="61"/>
      <point x="317" y="52"/>
      <point x="317" y="36" type="curve" smooth="yes"/>
      <point x="317" y="-6"/>
      <point x="309" y="-87"/>
      <point x="234" y="-87" type="curve" smooth="yes"/>
      <point x="157" y="-87"/>
      <point x="148" y="-12"/>
      <point x="148" y="11" type="curve" smooth="yes"/>
      <point x="148" y="134"/>
      <point x="264" y="141"/>
      <point x="264" y="266" type="curve" smooth="yes"/>
    </contour>
    <contour>
      <point x="270" y="385" type="line"/>
      <point x="270" y="484" type="line"/>
      <point x="178" y="484" type="line"/>
      <point x="178" y="385" type="line"/>
    </contour>
  </outline>
</glyph>
<glyph name="Atilde" format="1">
  <advance width="503"/>
  <unicode hex="00C3"/>
  <outline>
    <contour>
      <point x="304" y="630" type="line"/>
      <point x="200" y="630" type="line"/>
      <point x="-1" y="0" type="line"/>
      <point x="80" y="0" type="line"/>
      <point x="123" y="140" type="line"/>
      <point x="373" y="140" type="line"/>
      <point x="416" y="0" type="line"/>
      <point x="503" y="0" type="line"/>
    </contour>
    <contour>
      <point x="250" y="565" type="line"/>
      <point x="250" y="565"/>
      <point x="258" y="516"/>
      <point x="265" y="495" type="curve" smooth="yes"/>
      <point x="350" y="214" type="line"/>
      <point x="146" y="214" type="line"/>
      <point x="232" y="495" type="line" smooth="yes"/>
      <point x="238" y="515"/>
      <point x="246" y="565"/>
      <point x="246" y="565" type="curve"/>
    </contour>
    <contour>
      <point x="332" y="812" type="line"/>
      <point x="329" y="790"/>
      <point x="317" y="784"/>
      <point x="301" y="784" type="curve" smooth="yes"/>
      <point x="265" y="784"/>
      <point x="234" y="812"/>
      <point x="194" y="812" type="curve" smooth="yes"/>
      <point x="139" y="812"/>
      <point x="116" y="758"/>
      <point x="116" y="717" type="curve"/>
      <point x="171" y="717" type="line"/>
      <point x="173" y="737"/>
      <point x="185" y="745"/>
      <point x="202" y="745" type="curve" smooth="yes"/>
      <point x="237" y="745"/>
      <point x="267" y="717"/>
      <point x="307" y="717" type="curve" smooth="yes"/>
      <point x="363" y="717"/>
      <point x="385" y="770"/>
      <point x="385" y="812" type="curve"/>
    </contour>
  </outline>
</glyph>
<glyph name="Aring" format="1">
  <advance width="503"/>
  <unicode hex="00C5"/>
  <outline>
    <contour>
      <point x="304" y="630" type="line"/>
      <point x="200" y="630" type="line"/>
      <point x="-1" y="0" type="line"/>
      <point x="80" y="0" type="line"/>
      <point x="123" y="140" type="line"/>
      <point x="373" y="140" type="line"/>
      <point x="416" y="0" type="line"/>
      <point x="503" y="0" type="line"/>
    </contour>
    <contour>
      <point x="250" y="565" type="line"/>
      <point x="250" y="565"/>
      <point x="258" y="516"/>
      <point x="265" y="495" type="curve" smooth="yes"/>
      <point x="350" y="214" type="line"/>
      <point x="146" y="214" type="line"/>
      <point x="232" y="495" type="line" smooth="yes"/>
      <point x="238" y="515"/>
      <point x="246" y="565"/>
      <point x="246" y="565" type="curve"/>
    </contour>
    <contour>
      <point x="202" y="841"/>
      <point x="162" y="802"/>
      <point x="162" y="753" type="curve" smooth="yes"/>
      <point x="162" y="703"/>
      <point x="203" y="665"/>
      <point x="251" y="665" type="curve" smooth="yes"/>
      <point x="301" y="665"/>
      <point x="339" y="704"/>
      <point x="339" y="753" type="curve" smooth="yes"/>
      <point x="339" y="801"/>
      <point x="302" y="841"/>
      <point x="251" y="841" type="curve" smooth="yes"/>
    </contour>
    <contour>
      <point x="276" y="800"/>
      <point x="297" y="779"/>
      <point x="297" y="753" type="curve" smooth="yes"/>
      <point x="297" y="727"/>
      <point x="276" y="706"/>
      <point x="251" y="706" type="curve" smooth="yes"/>
      <point x="226" y="706"/>
      <point x="204" y="727"/>
      <point x="204" y="753" type="curve" smooth="yes"/>
      <point x="204" y="779"/>
      <point x="226" y="800"/>
      <point x="251" y="800" type="curve" smooth="yes"/>
    </contour>
  </outline>
</glyph>
<glyph name="AE" format="1">
  <advance width="754"/>
  <unicode hex="00C6"/>
  <outline>
    <contour>
      <point x="714" y="630" type="line"/>
      <point x="257" y="630" type="line"/>
      <point x="-1" y="0" type="line"/>
      <point x="80" y="0" type="line"/>
      <point x="134" y="140" type="line"/>
      <point x="385" y="140" type="line"/>
      <point x="416" y="0" type="line"/>
      <point x="720" y="0" type="line"/>
      <point x="720" y="74" type="line"/>
      <point x="487" y="74" type="line"/>
      <point x="439" y="286" type="line"/>
      <point x="674" y="286" type="line"/>
      <point x="674" y="360" type="line"/>
      <point x="422" y="360" type="line"/>
      <point x="376" y="557" type="line"/>
      <point x="714" y="557" type="line"/>
    </contour>
    <contour>
      <point x="297" y="556" type="line"/>
      <point x="301" y="537"/>
      <point x="303" y="519"/>
      <point x="307" y="499" type="curve" smooth="yes"/>
      <point x="369" y="214" type="line"/>
      <point x="162" y="214" type="line"/>
      <point x="274" y="499" type="line" smooth="yes"/>
      <point x="282" y="519"/>
      <point x="287" y="537"/>
      <point x="293" y="556" type="curve"/>
    </contour>
    <contour>
      <point x="376" y="630" type="move" name="top"/>
    </contour>
  </outline>
</glyph>
<glyph name="Eacute" format="1">
  <advance width="503"/>
  <unicode hex="00C9"/>
  <outline>
    <contour>
      <point x="453" y="630" type="line"/>
      <point x="64" y="630" type="line"/>
      <point x="64" y="0" type="line"/>
      <point x="459" y="0" type="line"/>
      <point x="459" y="74" type="line"/>
      <point x="146" y="74" type="line"/>
      <point x="146" y="286" type="line"/>
      <point x="413" y="286" type="line"/>
      <point x="413" y="360" type="line"/>
      <point x="146" y="360" type="line"/>
      <point x="146" y="557" type="line"/>
      <point x="453" y="557" type="line"/>
    </contour>
    <contour>
      <point x="359" y="812" type="line"/>
      <point x="276" y="812" type="line"/>
      <point x="197" y="691" type="line"/>
      <point x="260" y="691" type="line"/>
      <point x="360" y="809" type="line"/>
    </contour>
  </outline>
</glyph>
<glyph name="Igrave" format="1">
  <advance width="210"/>
  <unicode hex="00CC"/>
  <outline>
    <contour>
      <point x="146" y="630" type="line"/>
      <point x="64" y="630" type="line"/>
      <point x="64" y="0" type="line"/>
      <point x="146" y="0" type="line"/>
    </contour>
    <contour>
      <point x="81" y="812" type="line"/>
      <point x="-2" y="812" type="line"/>
      <point x="-3" y="809" type="line"/>
      <point x="97" y="691" type="line"/>
      <point x="160" y="691" type="line"/>
    </contour>
  </outline>
</glyph>
<glyph name="Iacute" format="1">
  <advance width="210"/>
  <unicode hex="00CD"/>
  <outline>
    <contour>
      <point x="146" y="630" type="line"/>
      <point x="64" y="630" type="line"/>
      <point x="64" y="0" type="line"/>
      <point x="146" y="0" type="line"/>
    </contour>
    <contour>
      <point x="211" y="812" type="line"/>
      <point x="130" y="812" type="line"/>
      <point x="51" y="691" type="line"/>
      <point x="114" y="691" type="line"/>
      <point x="212" y="809" type="line"/>
    </contour>
  </outline>
</glyph>
<glyph name="Idieresis" format="1">
  <advance width="210"/>
  <unicode hex="00CF"/>
  <outline>
    <contour>
      <point x="146" y="630" type="line"/>
      <point x="64" y="630" type="line"/>
      <point x="64" y="0" type="line"/>
      <point x="146" y="0" type="line"/>
    </contour>
    <contour>
      <point x="76" y="812" type="line"/>
      <point x="-4" y="812" type="line"/>
      <point x="-4" y="725" type="line"/>
      <point x="76" y="725" type="line"/>
    </contour>
    <contour>
      <point x="214" y="812" type="line"/>
      <point x="134" y="812" type="line"/>
      <point x="134" y="725" type="line"/>
      <point x="214" y="725" type="line"/>
    </contour>
  </outline>
</glyph>
<glyph name="Ntilde" format="1">
  <advance width="544"/>
  <unicode hex="00D1"/>
  <outline>
    <contour>
      <point x="479" y="630" type="line"/>
      <point x="408" y="630" type="line"/>
      <point x="408" y="234" type="line" smooth="yes"/>
      <point x="408" y="214"/>
      <point x="410" y="151"/>
      <point x="410" y="151" type="curve"/>
      <point x="408" y="150" type="line"/>
      <point x="408" y="150"/>
      <point x="383" y="210"/>
      <point x="368" y="234" type="curve" smooth="yes"/>
      <point x="134" y="630" type="line"/>
      <point x="64" y="630" type="line"/>
      <point x="64" y="0" type="line"/>
      <point x="137" y="0" type="line"/>
      <point x="137" y="401" type="line" smooth="yes"/>
      <point x="137" y="427"/>
      <point x="133" y="486"/>
      <point x="133" y="486" type="curve"/>
      <point x="136" y="487" type="line"/>
      <point x="136" y="487"/>
      <point x="161" y="428"/>
      <point x="177" y="401" type="curve" smooth="yes"/>
      <point x="413" y="0" type="line"/>
      <point x="479" y="0" type="line"/>
    </contour>
    <contour>
      <point x="353" y="812" type="line"/>
      <point x="350" y="790"/>
      <point x="338" y="784"/>
      <point x="321" y="784" type="curve" smooth="yes"/>
      <point x="286" y="784"/>
      <point x="256" y="812"/>
      <point x="216" y="812" type="curve" smooth="yes"/>
      <point x="161" y="812"/>
      <point x="138" y="758"/>
      <point x="138" y="717" type="curve"/>
      <point x="191" y="717" type="line"/>
      <point x="194" y="737"/>
      <point x="206" y="745"/>
      <point x="223" y="745" type="curve" smooth="yes"/>
      <point x="258" y="745"/>
      <point x="288" y="717"/>
      <point x="329" y="717" type="curve" smooth="yes"/>
      <point x="384" y="717"/>
      <point x="407" y="770"/>
      <point x="407" y="812" type="curve"/>
    </contour>
  </outline>
</glyph>
<glyph name="Oacute" format="1">
  <advance width="587"/>
  <unicode hex="00D3"/>
  <outline>
    <contour>
      <point x="138" y="642"/>
      <point x="45" y="535"/>
      <point x="45" y="315" type="curve" smooth="yes"/>
      <point x="45" y="97"/>
      <point x="138" y="-11"/>
      <point x="293" y="-11" type="curve" smooth="yes"/>
      <point x="448" y="-11"/>
      <point x="542" y="97"/>
      <point x="542" y="315" type="curve" smooth="yes"/>
      <point x="542" y="535"/>
      <point x="448" y="642"/>
      <point x="293" y="642" type="curve" smooth="yes"/>
    </contour>
    <contour>
      <point x="394" y="567"/>
      <point x="457" y="492"/>
      <point x="457" y="338" type="curve" smooth="yes"/>
      <point x="457" y="292" type="line" smooth="yes"/>
      <point x="457" y="138"/>
      <point x="394" y="63"/>
      <point x="293" y="63" type="curve" smooth="yes"/>
      <point x="192" y="63"/>
      <point x="130" y="138"/>
      <point x="130" y="292" type="curve" smooth="yes"/>
      <point x="130" y="338" type="line" smooth="yes"/>
      <point x="130" y="492"/>
      <point x="192" y="567"/>
      <point x="293" y="567" type="curve" smooth="yes"/>
    </contour>
    <contour>
      <point x="400" y="812" type="line"/>
      <point x="318" y="812" type="line"/>
      <point x="239" y="691" type="line"/>
      <point x="303" y="691" type="line"/>
      <point x="401" y="809" type="line"/>
    </contour>
  </outline>
</glyph>
<glyph name="Ocircumflex" format="1">
  <advance width="587"/>
  <unicode hex="00D4"/>
  <outline>
    <contour>
      <point x="138" y="642"/>
      <point x="45" y="535"/>
      <point x="45" y="315" type="curve" smooth="yes"/>
      <point x="45" y="97"/>
      <point x="138" y="-11"/>
      <point x="293" y="-11" type="curve" smooth="yes"/>
      <point x="448" y="-11"/>
      <point x="542" y="97"/>
      <point x="542" y="315" type="curve" smooth="yes"/>
      <point x="542" y="535"/>
      <point x="448" y="642"/>
      <point x="293" y="642" type="curve" smooth="yes"/>
    </contour>
    <contour>
      <point x="394" y="567"/>
      <point x="457" y="492"/>
      <point x="457" y="338" type="curve" smooth="yes"/>
      <point x="457" y="292" type="line" smooth="yes"/>
      <point x="457" y="138"/>
      <point x="394" y="63"/>
      <point x="293" y="63" type="curve" smooth="yes"/>
      <point x="192" y="63"/>
      <point x="130" y="138"/>
      <point x="130" y="292" type="curve" smooth="yes"/>
      <point x="130" y="338" type="line" smooth="yes"/>
      <point x="130" y="492"/>
      <point x="192" y="567"/>
      <point x="293" y="567" type="curve" smooth="yes"/>
    </contour>
    <contour>
      <point x="408" y="686" type="line"/>
      <point x="330" y="811" type="line"/>
      <point x="258" y="811" type="line"/>
      <point x="179" y="686" type="line"/>
      <point x="253" y="686" type="line"/>
      <point x="294" y="759" type="line"/>
      <point x="335" y="686" type="line"/>
    </contour>
  </outline>
</glyph>
<glyph name="Otilde" format="1">
  <advance width="587"/>
  <unicode hex="00D5"/>
  <outline>
    <contour>
      <point x="138" y="642"/>
      <point x="45" y="535"/>
      <point x="45" y="315" type="curve" smooth="yes"/>
      <point x="45" y="97"/>
      <point x="138" y="-11"/>
      <point x="293" y="-11" type="curve" smooth="yes"/>
      <point x="448" y="-11"/>
      <point x="542" y="97"/>
      <point x="542" y="315" type="curve" smooth="yes"/>
      <point x="542" y="535"/>
      <point x="448" y="642"/>
      <point x="293" y="642" type="curve" smooth="yes"/>
    </contour>
    <contour>
      <point x="394" y="567"/>
      <point x="457" y="492"/>
      <point x="457" y="338" type="curve" smooth="yes"/>
      <point x="457" y="292" type="line" smooth="yes"/>
      <point x="457" y="138"/>
      <point x="394" y="63"/>
      <point x="293" y="63" type="curve" smooth="yes"/>
      <point x="192" y="63"/>
      <point x="130" y="138"/>
      <point x="130" y="292" type="curve" smooth="yes"/>
      <point x="130" y="338" type="line" smooth="yes"/>
      <point x="130" y="492"/>
      <point x="192" y="567"/>
      <point x="293" y="567" type="curve" smooth="yes"/>
    </contour>
    <contour>
      <point x="374" y="812" type="line"/>
      <point x="371" y="790"/>
      <point x="360" y="784"/>
      <point x="343" y="784" type="curve" smooth="yes"/>
      <point x="307" y="784"/>
      <point x="277" y="812"/>
      <point x="237" y="812" type="curve" smooth="yes"/>
      <point x="182" y="812"/>
      <point x="159" y="758"/>
      <point x="159" y="717" type="curve"/>
      <point x="212" y="717" type="line"/>
      <point x="215" y="737"/>
      <point x="227" y="745"/>
      <point x="243" y="745" type="curve" smooth="yes"/>
      <point x="280" y="745"/>
      <point x="310" y="717"/>
      <point x="349" y="717" type="curve" smooth="yes"/>
      <point x="405" y="717"/>
      <point x="427" y="770"/>
      <point x="427" y="812" type="curve"/>
    </contour>
  </outline>
</glyph>
<glyph name="multiply" format="1">
  <advance width="440"/>
  <unicode hex="00D7"/>
  <outline>
    <contour>
      <point x="368" y="428" type="line"/>
      <point x="227" y="289" type="line"/>
      <point x="85" y="428" type="line"/>
      <point x="35" y="374" type="line"/>
      <point x="176" y="234" type="line"/>
      <point x="35" y="96" type="line"/>
      <point x="85" y="42" type="line"/>
      <point x="227" y="179" type="line"/>
      <point x="368" y="42" type="line"/>
      <point x="418" y="96" type="line"/>
      <point x="278" y="234" type="line"/>
      <point x="418" y="374" type="line"/>
    </contour>
  </outline>
</glyph>
<glyph name="Ugrave" format="1">
  <advance width="544"/>
  <unicode hex="00D9"/>
  <outline>
    <contour>
      <point x="479" y="630" type="line"/>
      <point x="399" y="630" type="line"/>
      <point x="399" y="201" type="line" smooth="yes"/>
      <point x="399" y="111"/>
      <point x="352" y="63"/>
      <point x="272" y="63" type="curve" smooth="yes"/>
      <point x="193" y="63"/>
      <point x="146" y="111"/>
      <point x="146" y="201" type="curve" smooth="yes"/>
      <point x="146" y="630" type="line"/>
      <point x="64" y="630" type="line"/>
      <point x="64" y="205" type="line" smooth="yes"/>
      <point x="64" y="63"/>
      <point x="142" y="-11"/>
      <point x="272" y="-11" type="curve" smooth="yes"/>
      <point x="401" y="-11"/>
      <point x="479" y="63"/>
      <point x="479" y="205" type="curve" smooth="yes"/>
    </contour>
    <contour>
      <point x="249" y="812" type="line"/>
      <point x="164" y="812" type="line"/>
      <point x="163" y="809" type="line"/>
      <point x="264" y="691" type="line"/>
      <point x="327" y="691" type="line"/>
    </contour>
  </outline>
</glyph>
<glyph name="Yacute" format="1">
  <advance width="503"/>
  <unicode hex="00DD"/>
  <outline>
    <contour>
      <point x="495" y="630" type="line"/>
      <point x="417" y="630" type="line"/>
      <point x="260" y="338" type="line"/>
      <point x="257" y="338" type="line"/>
      <point x="97" y="630" type="line"/>
      <point x="7" y="630" type="line"/>
      <point x="211" y="261" type="line"/>
      <point x="211" y="0" type="line"/>
      <point x="292" y="0" type="line"/>
      <point x="292" y="261" type="line"/>
    </contour>
    <contour>
      <point x="359" y="812" type="line"/>
      <point x="276" y="812" type="line"/>
      <point x="197" y="691" type="line"/>
      <point x="260" y="691" type="line"/>
      <point x="360" y="809" type="line"/>
    </contour>
  </outline>
</glyph>
<glyph name="Thorn" format="1">
  <advance width="503"/>
  <unicode hex="00DE"/>
  <outline>
    <contour>
      <point x="146" y="630" type="line"/>
      <point x="64" y="630" type="line"/>
      <point x="64" y="0" type="line"/>
      <point x="146" y="0" type="line"/>
      <point x="146" y="135" type="line"/>
      <point x="289" y="135" type="line" smooth="yes"/>
      <point x="407" y="135"/>
      <point x="478" y="210"/>
      <point x="478" y="321" type="curve" smooth="yes"/>
      <point x="478" y="432"/>
      <point x="414" y="505"/>
      <point x="289" y="505" type="curve" smooth="yes"/>
      <point x="146" y="505" type="line"/>
    </contour>
    <contour>
      <point x="287" y="432" type="line"/>
      <point x="356" y="432"/>
      <point x="393" y="390"/>
      <point x="393" y="321" type="curve" smooth="yes"/>
      <point x="393" y="254"/>
      <point x="352" y="209"/>
      <point x="287" y="209" type="curve" smooth="yes"/>
      <point x="146" y="209" type="line"/>
      <point x="146" y="432" type="line"/>
    </contour>
  </outline>
</glyph>
<glyph name="germandbls" format="1">
  <advance width="461"/>
  <unicode hex="00DF"/>
  <outline>
    <contour>
      <point x="129" y="676"/>
      <point x="46" y="618"/>
      <point x="46" y="474" type="curve" smooth="yes"/>
      <point x="46" y="0" type="line"/>
      <point x="122" y="0" type="line"/>
      <point x="122" y="476" type="line" smooth="yes"/>
      <point x="122" y="564"/>
      <point x="163" y="608"/>
      <point x="229" y="608" type="curve" smooth="yes"/>
      <point x="294" y="608"/>
      <point x="329" y="566"/>
      <point x="329" y="501" type="curve" smooth="yes"/>
      <point x="329" y="440"/>
      <point x="283" y="389"/>
      <point x="227" y="389" type="curve" smooth="yes"/>
      <point x="173" y="389" type="line"/>
      <point x="173" y="321" type="line"/>
      <point x="234" y="321" type="line" smooth="yes"/>
      <point x="297" y="321"/>
      <point x="348" y="265"/>
      <point x="348" y="198" type="curve" smooth="yes"/>
      <point x="348" y="126"/>
      <point x="297" y="68"/>
      <point x="234" y="68" type="curve" smooth="yes"/>
      <point x="173" y="68" type="line"/>
      <point x="173" y="0" type="line"/>
      <point x="241" y="0" type="line" smooth="yes"/>
      <point x="344" y="0"/>
      <point x="425" y="78"/>
      <point x="425" y="197" type="curve" smooth="yes"/>
      <point x="425" y="267"/>
      <point x="382" y="337"/>
      <point x="319" y="360" type="curve"/>
      <point x="319" y="363" type="line"/>
      <point x="370" y="384"/>
      <point x="407" y="443"/>
      <point x="407" y="503" type="curve" smooth="yes"/>
      <point x="407" y="612"/>
      <point x="333" y="676"/>
      <point x="234" y="676" type="curve" smooth="yes"/>
    </contour>
  </outline>
</glyph>
<glyph name="aring" format="1">
  <advance width="419"/>
  <unicode hex="00E5"/>
  <outline>
    <contour>
      <point x="114" y="495"/>
      <point x="50" y="448"/>
      <point x="50" y="361" type="curve" smooth="yes"/>
      <point x="50" y="353"/>
      <point x="50" y="345"/>
      <point x="51" y="340" type="curve"/>
      <point x="125" y="340" type="line"/>
      <point x="125" y="352" type="line" smooth="yes"/>
      <point x="125" y="388"/>
      <point x="142" y="427"/>
      <point x="200" y="427" type="curve" smooth="yes"/>
      <point x="261" y="427"/>
      <point x="276" y="395"/>
      <point x="276" y="349" type="curve" smooth="yes"/>
      <point x="276" y="287" type="line"/>
      <point x="135" y="287"/>
      <point x="31" y="258"/>
      <point x="31" y="125" type="curve" smooth="yes"/>
      <point x="31" y="8"/>
      <point x="110" y="-11"/>
      <point x="158" y="-11" type="curve" smooth="yes"/>
      <point x="209" y="-11"/>
      <point x="251" y="12"/>
      <point x="276" y="52" type="curve"/>
      <point x="281" y="52" type="line"/>
      <point x="289" y="17"/>
      <point x="317" y="-7"/>
      <point x="357" y="-7" type="curve" smooth="yes"/>
      <point x="381" y="-7"/>
      <point x="398" y="-1"/>
      <point x="407" y="4" type="curve"/>
      <point x="407" y="56" type="line"/>
      <point x="376" y="56" type="line" smooth="yes"/>
      <point x="364" y="56"/>
      <point x="352" y="66"/>
      <point x="352" y="88" type="curve" smooth="yes"/>
      <point x="352" y="360" type="line" smooth="yes"/>
      <point x="352" y="445"/>
      <point x="303" y="495"/>
      <point x="205" y="495" type="curve" smooth="yes"/>
    </contour>
    <contour>
      <point x="276" y="176" type="line"/>
      <point x="276" y="96"/>
      <point x="224" y="56"/>
      <point x="176" y="56" type="curve" smooth="yes"/>
      <point x="133" y="56"/>
      <point x="110" y="75"/>
      <point x="110" y="130" type="curve" smooth="yes"/>
      <point x="110" y="205"/>
      <point x="178" y="219"/>
      <point x="276" y="219" type="curve"/>
    </contour>
    <contour>
      <point x="161" y="694"/>
      <point x="122" y="654"/>
      <point x="122" y="606" type="curve" smooth="yes"/>
      <point x="122" y="555"/>
      <point x="162" y="517"/>
      <point x="210" y="517" type="curve" smooth="yes"/>
      <point x="258" y="517"/>
      <point x="297" y="556"/>
      <point x="297" y="606" type="curve" smooth="yes"/>
      <point x="297" y="653"/>
      <point x="259" y="694"/>
      <point x="210" y="694" type="curve" smooth="yes"/>
    </contour>
    <contour>
      <point x="234" y="652"/>
      <point x="257" y="631"/>
      <point x="257" y="606" type="curve" smooth="yes"/>
      <point x="257" y="580"/>
      <point x="234" y="558"/>
      <point x="210" y="558" type="curve" smooth="yes"/>
      <point x="184" y="558"/>
      <point x="162" y="580"/>
      <point x="162" y="606" type="curve" smooth="yes"/>
      <point x="162" y="631"/>
      <point x="184" y="652"/>
      <point x="210" y="652" type="curve" smooth="yes"/>
    </contour>
  </outline>
</glyph>
<glyph name="ae" format="1">
  <advance width="670"/>
  <unicode hex="00E6"/>
  <outline>
    <contour>
      <point x="408" y="495"/>
      <point x="365" y="477"/>
      <point x="335" y="440" type="curve"/>
      <point x="312" y="475"/>
      <point x="269" y="495"/>
      <point x="210" y="495" type="curve" smooth="yes"/>
      <point x="120" y="495"/>
      <point x="55" y="448"/>
      <point x="55" y="361" type="curve" smooth="yes"/>
      <point x="55" y="353"/>
      <point x="55" y="345"/>
      <point x="56" y="340" type="curve"/>
      <point x="131" y="340" type="line"/>
      <point x="131" y="352" type="line" smooth="yes"/>
      <point x="131" y="388"/>
      <point x="148" y="427"/>
      <point x="205" y="427" type="curve" smooth="yes"/>
      <point x="266" y="427"/>
      <point x="282" y="395"/>
      <point x="282" y="349" type="curve" smooth="yes"/>
      <point x="282" y="287" type="line"/>
      <point x="140" y="287"/>
      <point x="36" y="258"/>
      <point x="36" y="125" type="curve" smooth="yes"/>
      <point x="36" y="8"/>
      <point x="118" y="-11"/>
      <point x="178" y="-11" type="curve" smooth="yes"/>
      <point x="234" y="-11"/>
      <point x="283" y="18"/>
      <point x="317" y="62" type="curve"/>
      <point x="347" y="11"/>
      <point x="397" y="-11"/>
      <point x="464" y="-11" type="curve" smooth="yes"/>
      <point x="558" y="-11"/>
      <point x="622" y="56"/>
      <point x="622" y="164" type="curve"/>
      <point x="548" y="164" type="line"/>
      <point x="548" y="98"/>
      <point x="514" y="56"/>
      <point x="466" y="56" type="curve" smooth="yes"/>
      <point x="394" y="56"/>
      <point x="361" y="107"/>
      <point x="361" y="219" type="curve"/>
      <point x="622" y="219" type="line"/>
      <point x="622" y="267" type="line" smooth="yes"/>
      <point x="622" y="430"/>
      <point x="569" y="495"/>
      <point x="464" y="495" type="curve" smooth="yes"/>
    </contour>
    <contour>
      <point x="282" y="168" type="line"/>
      <point x="282" y="93"/>
      <point x="229" y="56"/>
      <point x="181" y="56" type="curve" smooth="yes"/>
      <point x="138" y="56"/>
      <point x="115" y="75"/>
      <point x="115" y="130" type="curve" smooth="yes"/>
      <point x="115" y="205"/>
      <point x="183" y="219"/>
      <point x="282" y="219" type="curve"/>
    </contour>
    <contour>
      <point x="516" y="427"/>
      <point x="543" y="379"/>
      <point x="543" y="287" type="curve"/>
      <point x="361" y="287" type="line"/>
      <point x="368" y="380"/>
      <point x="396" y="427"/>
      <point x="464" y="427" type="curve" smooth="yes"/>
    </contour>
    <contour>
      <point x="336" y="484" type="move" name="top"/>
    </contour>
  </outline>
</glyph>
<glyph name="icircumflex" format="1">
  <advance width="210"/>
  <unicode hex="00EE"/>
  <outline>
    <contour>
      <point x="142" y="0" type="line"/>
      <point x="142" y="484" type="line"/>
      <point x="68" y="484" type="line"/>
      <point x="68" y="0" type="line"/>
    </contour>
    <contour>
      <point x="219" y="540" type="line"/>
      <point x="141" y="664" type="line"/>
      <point x="70" y="664" type="line"/>
      <point x="-10" y="540" type="line"/>
      <point x="64" y="540" type="line"/>
      <point x="106" y="613" type="line"/>
      <point x="147" y="540" type="line"/>
    </contour>
  </outline>
</glyph>
<glyph name="eth" format="1">
  <advance width="419"/>
  <unicode hex="00F0"/>
  <outline>
    <contour>
      <point x="109" y="665" type="line"/>
      <point x="107" y="661" type="line"/>
      <point x="123" y="645"/>
      <point x="137" y="628"/>
      <point x="151" y="613" type="curve"/>
      <point x="85" y="606" type="line"/>
      <point x="85" y="551" type="line"/>
      <point x="194" y="561" type="line"/>
      <point x="214" y="534"/>
      <point x="233" y="508"/>
      <point x="248" y="479" type="curve"/>
      <point x="250" y="482" type="line"/>
      <point x="234" y="489"/>
      <point x="218" y="495"/>
      <point x="200" y="495" type="curve" smooth="yes"/>
      <point x="105" y="495"/>
      <point x="36" y="420"/>
      <point x="36" y="241" type="curve" smooth="yes"/>
      <point x="36" y="68"/>
      <point x="97" y="-11"/>
      <point x="210" y="-11" type="curve" smooth="yes"/>
      <point x="322" y="-11"/>
      <point x="383" y="68"/>
      <point x="383" y="241" type="curve" smooth="yes"/>
      <point x="383" y="375"/>
      <point x="339" y="479"/>
      <point x="274" y="568" type="curve"/>
      <point x="339" y="574" type="line"/>
      <point x="339" y="630" type="line"/>
      <point x="232" y="620" type="line"/>
      <point x="218" y="635"/>
      <point x="204" y="650"/>
      <point x="190" y="665" type="curve"/>
    </contour>
    <contour>
      <point x="271" y="427"/>
      <point x="304" y="370"/>
      <point x="304" y="259" type="curve" smooth="yes"/>
      <point x="304" y="225" type="line" smooth="yes"/>
      <point x="304" y="113"/>
      <point x="272" y="56"/>
      <point x="210" y="56" type="curve" smooth="yes"/>
      <point x="147" y="56"/>
      <point x="115" y="113"/>
      <point x="115" y="225" type="curve" smooth="yes"/>
      <point x="115" y="259" type="line" smooth="yes"/>
      <point x="115" y="370"/>
      <point x="147" y="427"/>
      <point x="210" y="427" type="curve" smooth="yes"/>
    </contour>
  </outline>
</glyph>
<glyph name="oacute" format="1">
  <advance width="419"/>
  <unicode hex="00F3"/>
  <outline>
    <contour>
      <point x="97" y="495"/>
      <point x="36" y="416"/>
      <point x="36" y="241" type="curve" smooth="yes"/>
      <point x="36" y="68"/>
      <point x="97" y="-11"/>
      <point x="210" y="-11" type="curve" smooth="yes"/>
      <point x="322" y="-11"/>
      <point x="383" y="68"/>
      <point x="383" y="241" type="curve" smooth="yes"/>
      <point x="383" y="416"/>
      <point x="322" y="495"/>
      <point x="210" y="495" type="curve" smooth="yes"/>
    </contour>
    <contour>
      <point x="272" y="427"/>
      <point x="304" y="370"/>
      <point x="304" y="259" type="curve" smooth="yes"/>
      <point x="304" y="225" type="line" smooth="yes"/>
      <point x="304" y="113"/>
      <point x="272" y="56"/>
      <point x="210" y="56" type="curve" smooth="yes"/>
      <point x="147" y="56"/>
      <point x="115" y="113"/>
      <point x="115" y="225" type="curve" smooth="yes"/>
      <point x="115" y="259" type="line" smooth="yes"/>
      <point x="115" y="370"/>
      <point x="147" y="427"/>
      <point x="210" y="427" type="curve" smooth="yes"/>
    </contour>
    <contour>
      <point x="316" y="665" type="line"/>
      <point x="234" y="665" type="line"/>
      <point x="155" y="543" type="line"/>
      <point x="218" y="543" type="line"/>
      <point x="317" y="661" type="line"/>
    </contour>
  </outline>
</glyph>
<glyph name="divide" format="1">
  <advance width="504"/>
  <unicode hex="00F7"/>
  <outline>
    <contour>
      <point x="464" y="196" type="line"/>
      <point x="464" y="274" type="line"/>
      <point x="40" y="274" type="line"/>
      <point x="40" y="196" type="line"/>
    </contour>
    <contour>
      <point x="290" y="47" type="line"/>
      <point x="290" y="130" type="line"/>
      <point x="213" y="130" type="line"/>
      <point x="213" y="47" type="line"/>
    </contour>
    <contour>
      <point x="290" y="339" type="line"/>
      <point x="290" y="423" type="line"/>
      <point x="213" y="423" type="line"/>
      <point x="213" y="339" type="line"/>
    </contour>
  </outline>
</glyph>
<glyph name="ucircumflex" format="1">
  <advance width="419"/>
  <unicode hex="00FB"/>
  <outline>
    <contour>
      <point x="364" y="0" type="line"/>
      <point x="364" y="484" type="line"/>
      <point x="289" y="484" type="line"/>
      <point x="289" y="188" type="line" smooth="yes"/>
      <point x="289" y="105"/>
      <point x="246" y="56"/>
      <point x="199" y="56" type="curve" smooth="yes"/>
      <point x="158" y="56"/>
      <point x="131" y="74"/>
      <point x="131" y="140" type="curve" smooth="yes"/>
      <point x="131" y="484" type="line"/>
      <point x="55" y="484" type="line"/>
      <point x="55" y="135" type="line" smooth="yes"/>
      <point x="55" y="28"/>
      <point x="102" y="-11"/>
      <point x="175" y="-11" type="curve" smooth="yes"/>
      <point x="223" y="-11"/>
      <point x="265" y="8"/>
      <point x="291" y="56" type="curve"/>
      <point x="297" y="56" type="line"/>
      <point x="307" y="0" type="line"/>
    </contour>
    <contour>
      <point x="324" y="540" type="line"/>
      <point x="246" y="664" type="line"/>
      <point x="174" y="664" type="line"/>
      <point x="96" y="540" type="line"/>
      <point x="170" y="540" type="line"/>
      <point x="210" y="613" type="line"/>
      <point x="251" y="540" type="line"/>
    </contour>
  </outline>
</glyph>
<glyph name="Aogonek" format="1">
  <advance width="503"/>
  <unicode hex="0104"/>
  <outline>
    <contour>
      <point x="416" y="0" type="line"/>
      <point x="503" y="0" type="line"/>
      <point x="304" y="630" type="line"/>
      <point x="200" y="630" type="line"/>
      <point x="-1" y="0" type="line"/>
      <point x="80" y="0" type="line"/>
      <point x="123" y="140" type="line"/>
      <point x="373" y="140" type="line"/>
    </contour>
    <contour>
      <point x="250" y="565" type="line"/>
      <point x="250" y="565"/>
      <point x="258" y="516"/>
      <point x="265" y="495" type="curve" smooth="yes"/>
      <point x="350" y="214" type="line"/>
      <point x="146" y="214" type="line"/>
      <point x="232" y="495" type="line" smooth="yes"/>
      <point x="238" y="515"/>
      <point x="246" y="565"/>
      <point x="246" y="565" type="curve"/>
    </contour>
    <contour>
      <point x="446" y="0" type="line"/>
      <point x="428" y="-22"/>
      <point x="410" y="-43"/>
      <point x="410" y="-84" type="curve" smooth="yes"/>
      <point x="410" y="-148"/>
      <point x="457" y="-167"/>
      <point x="496" y="-167" type="curve" smooth="yes"/>
      <point x="515" y="-167"/>
      <point x="534" y="-162"/>
      <point x="552" y="-155" type="curve"/>
      <point x="552" y="-107" type="line"/>
      <point x="524" y="-107" type="line" smooth="yes"/>
      <point x="493" y="-107"/>
      <point x="482" y="-83"/>
      <point x="482" y="-57" type="curve" smooth="yes"/>
      <point x="482" y="-31"/>
      <point x="494" y="-14"/>
      <point x="503" y="0" type="curve"/>
    </contour>
  </outline>
</glyph>
<glyph name="Ccircumflex" format="1">
  <advance width="544"/>
  <unicode hex="0108"/>
  <outline>
    <contour>
      <point x="123" y="642"/>
      <point x="38" y="535"/>
      <point x="38" y="315" type="curve" smooth="yes"/>
      <point x="38" y="97"/>
      <point x="123" y="-11"/>
      <point x="287" y="-11" type="curve" smooth="yes"/>
      <point x="416" y="-11"/>
      <point x="506" y="63"/>
      <point x="506" y="226" type="curve"/>
      <point x="426" y="226" type="line"/>
      <point x="426" y="116"/>
      <point x="371" y="63"/>
      <point x="287" y="63" type="curve" smooth="yes"/>
      <point x="177" y="63"/>
      <point x="123" y="138"/>
      <point x="123" y="292" type="curve" smooth="yes"/>
      <point x="123" y="338" type="line" smooth="yes"/>
      <point x="123" y="492"/>
      <point x="177" y="567"/>
      <point x="287" y="567" type="curve" smooth="yes"/>
      <point x="369" y="567"/>
      <point x="424" y="513"/>
      <point x="424" y="402" type="curve"/>
      <point x="506" y="402" type="line"/>
      <point x="506" y="564"/>
      <point x="416" y="642"/>
      <point x="287" y="642" type="curve" smooth="yes"/>
    </contour>
    <contour>
      <point x="387" y="686" type="line"/>
      <point x="308" y="811" type="line"/>
      <point x="236" y="811" type="line"/>
      <point x="157" y="686" type="line"/>
      <point x="231" y="686" type="line"/>
      <point x="274" y="759" type="line"/>
      <point x="313" y="686" type="line"/>
    </contour>
  </outline>
</glyph>
<glyph name="ccircumflex" format="1">
  <advance width="376"/>
  <unicode hex="0109"/>
  <outline>
    <contour>
      <point x="85" y="495"/>
      <point x="33" y="416"/>
      <point x="33" y="241" type="curve" smooth="yes"/>
      <point x="33" y="68"/>
      <point x="84" y="-11"/>
      <point x="199" y="-11" type="curve" smooth="yes"/>
      <point x="305" y="-11"/>
      <point x="346" y="78"/>
      <point x="346" y="179" type="curve"/>
      <point x="272" y="179" type="line"/>
      <point x="272" y="99"/>
      <point x="253" y="56"/>
      <point x="199" y="56" type="curve" smooth="yes"/>
      <point x="138" y="56"/>
      <point x="112" y="113"/>
      <point x="112" y="225" type="curve" smooth="yes"/>
      <point x="112" y="259" type="line" smooth="yes"/>
      <point x="112" y="370"/>
      <point x="138" y="427"/>
      <point x="199" y="427" type="curve" smooth="yes"/>
      <point x="253" y="427"/>
      <point x="268" y="388"/>
      <point x="268" y="305" type="curve"/>
      <point x="346" y="305" type="line"/>
      <point x="346" y="427"/>
      <point x="304" y="495"/>
      <point x="199" y="495" type="curve" smooth="yes"/>
    </contour>
    <contour>
      <point x="304" y="540" type="line"/>
      <point x="226" y="664" type="line"/>
      <point x="154" y="664" type="line"/>
      <point x="75" y="540" type="line"/>
      <point x="148" y="540" type="line"/>
      <point x="189" y="613" type="line"/>
      <point x="230" y="540" type="line"/>
    </contour>
  </outline>
</glyph>
<glyph name="Ccaron" format="1">
  <advance width="544"/>
  <unicode hex="010C"/>
  <outline>
    <contour>
      <point x="123" y="642"/>
      <point x="38" y="535"/>
      <point x="38" y="315" type="curve" smooth="yes"/>
      <point x="38" y="97"/>
      <point x="123" y="-11"/>
      <point x="287" y="-11" type="curve" smooth="yes"/>
      <point x="416" y="-11"/>
      <point x="506" y="63"/>
      <point x="506" y="226" type="curve"/>
      <point x="426" y="226" type="line"/>
      <point x="426" y="116"/>
      <point x="371" y="63"/>
      <point x="287" y="63" type="curve" smooth="yes"/>
      <point x="177" y="63"/>
      <point x="123" y="138"/>
      <point x="123" y="292" type="curve" smooth="yes"/>
      <point x="123" y="338" type="line" smooth="yes"/>
      <point x="123" y="492"/>
      <point x="177" y="567"/>
      <point x="287" y="567" type="curve" smooth="yes"/>
      <point x="369" y="567"/>
      <point x="424" y="513"/>
      <point x="424" y="402" type="curve"/>
      <point x="506" y="402" type="line"/>
      <point x="506" y="564"/>
      <point x="416" y="642"/>
      <point x="287" y="642" type="curve" smooth="yes"/>
    </contour>
    <contour>
      <point x="307" y="687" type="line"/>
      <point x="387" y="812" type="line"/>
      <point x="313" y="812" type="line"/>
      <point x="272" y="739" type="line"/>
      <point x="231" y="812" type="line"/>
      <point x="157" y="812" type="line"/>
      <point x="235" y="687" type="line"/>
    </contour>
  </outline>
</glyph>
<glyph name="Dcaron" format="1">
  <advance width="544"/>
  <unicode hex="010E"/>
  <outline>
    <contour>
      <point x="307" y="687" type="line"/>
      <point x="387" y="812" type="line"/>
      <point x="313" y="812" type="line"/>
      <point x="272" y="739" type="line"/>
      <point x="231" y="812" type="line"/>
      <point x="157" y="812" type="line"/>
      <point x="235" y="687" type="line"/>
    </contour>
    <contour>
      <point x="64" y="0" type="line"/>
      <point x="260" y="0" type="line" smooth="yes"/>
      <point x="409" y="0"/>
      <point x="499" y="108"/>
      <point x="499" y="324" type="curve" smooth="yes"/>
      <point x="499" y="527"/>
      <point x="409" y="630"/>
      <point x="260" y="630" type="curve" smooth="yes"/>
      <point x="64" y="630" type="line"/>
    </contour>
    <contour>
      <point x="146" y="557" type="line"/>
      <point x="253" y="557" type="line" smooth="yes"/>
      <point x="353" y="557"/>
      <point x="415" y="488"/>
      <point x="415" y="347" type="curve" smooth="yes"/>
      <point x="415" y="302" type="line" smooth="yes"/>
      <point x="415" y="148"/>
      <point x="353" y="74"/>
      <point x="253" y="74" type="curve" smooth="yes"/>
      <point x="146" y="74" type="line"/>
    </contour>
  </outline>
</glyph>
<glyph name="dcroat" format="1">
  <advance width="416"/>
  <unicode hex="0111"/>
  <outline>
    <contour>
      <point x="364" y="665" type="line"/>
      <point x="289" y="665" type="line"/>
      <point x="289" y="598" type="line"/>
      <point x="186" y="598" type="line"/>
      <point x="186" y="536" type="line"/>
      <point x="289" y="536" type="line"/>
      <point x="289" y="438" type="line"/>
      <point x="284" y="438" type="line"/>
      <point x="267" y="473"/>
      <point x="228" y="495"/>
      <point x="181" y="495" type="curve" smooth="yes"/>
      <point x="101" y="495"/>
      <point x="36" y="418"/>
      <point x="36" y="242" type="curve" smooth="yes"/>
      <point x="36" y="66"/>
      <point x="95" y="-11"/>
      <point x="186" y="-11" type="curve" smooth="yes"/>
      <point x="231" y="-11"/>
      <point x="269" y="11"/>
      <point x="292" y="56" type="curve"/>
      <point x="297" y="56" type="line"/>
      <point x="307" y="0" type="line"/>
      <point x="364" y="0" type="line"/>
      <point x="364" y="536" type="line"/>
      <point x="417" y="536" type="line"/>
      <point x="417" y="598" type="line"/>
      <point x="364" y="598" type="line"/>
    </contour>
    <contour>
      <point x="260" y="427"/>
      <point x="289" y="369"/>
      <point x="289" y="256" type="curve" smooth="yes"/>
      <point x="289" y="225" type="line" smooth="yes"/>
      <point x="289" y="113"/>
      <point x="260" y="56"/>
      <point x="202" y="56" type="curve" smooth="yes"/>
      <point x="145" y="56"/>
      <point x="115" y="104"/>
      <point x="115" y="225" type="curve" smooth="yes"/>
      <point x="115" y="259" type="line" smooth="yes"/>
      <point x="115" y="380"/>
      <point x="145" y="427"/>
      <point x="202" y="427" type="curve" smooth="yes"/>
    </contour>
  </outline>
</glyph>
<glyph name="Emacron" format="1">
  <advance width="503"/>
  <unicode hex="0112"/>
  <outline>
    <contour>
      <point x="367" y="698" type="line"/>
      <point x="367" y="764" type="line"/>
      <point x="136" y="764" type="line"/>
      <point x="136" y="698" type="line"/>
    </contour>
    <contour>
      <point x="64" y="0" type="line"/>
      <point x="459" y="0" type="line"/>
      <point x="459" y="74" type="line"/>
      <point x="146" y="74" type="line"/>
      <point x="146" y="286" type="line"/>
      <point x="413" y="286" type="line"/>
      <point x="413" y="360" type="line"/>
      <point x="146" y="360" type="line"/>
      <point x="146" y="557" type="line"/>
      <point x="453" y="557" type="line"/>
      <point x="453" y="630" type="line"/>
      <point x="64" y="630" type="line"/>
    </contour>
  </outline>
</glyph>
<glyph name="Eogonek" format="1">
  <advance width="503"/>
  <unicode hex="0118"/>
  <outline>
    <contour>
      <point x="453" y="557" type="line"/>
      <point x="453" y="630" type="line"/>
      <point x="64" y="630" type="line"/>
      <point x="64" y="0" type="line"/>
      <point x="399" y="0" type="line"/>
      <point x="380" y="-21"/>
      <point x="365" y="-46"/>
      <point x="365" y="-84" type="curve" smooth="yes"/>
      <point x="365" y="-148"/>
      <point x="412" y="-167"/>
      <point x="451" y="-167" type="curve" smooth="yes"/>
      <point x="470" y="-167"/>
      <point x="488" y="-162"/>
      <point x="508" y="-155" type="curve"/>
      <point x="508" y="-107" type="line"/>
      <point x="479" y="-107" type="line" smooth="yes"/>
      <point x="448" y="-107"/>
      <point x="437" y="-83"/>
      <point x="437" y="-57" type="curve" smooth="yes"/>
      <point x="437" y="-35"/>
      <point x="448" y="-14"/>
      <point x="459" y="0" type="curve"/>
      <point x="459" y="74" type="line"/>
      <point x="146" y="74" type="line"/>
      <point x="146" y="286" type="line"/>
      <point x="413" y="286" type="line"/>
      <point x="413" y="360" type="line"/>
      <point x="146" y="360" type="line"/>
      <point x="146" y="557" type="line"/>
    </contour>
  </outline>
</glyph>
<glyph name="eogonek" format="1">
  <advance width="419"/>
  <unicode hex="0119"/>
  <outline>
    <contour>
      <point x="99" y="495"/>
      <point x="38" y="416"/>
      <point x="38" y="241" type="curve" smooth="yes"/>
      <point x="38" y="62"/>
      <point x="101" y="-11"/>
      <point x="222" y="-11" type="curve" smooth="yes"/>
      <point x="234" y="-11"/>
      <point x="242" y="-10"/>
      <point x="254" y="-8" type="curve"/>
      <point x="237" y="4" type="line"/>
      <point x="215" y="-18"/>
      <point x="199" y="-44"/>
      <point x="199" y="-84" type="curve" smooth="yes"/>
      <point x="199" y="-148"/>
      <point x="245" y="-167"/>
      <point x="285" y="-167" type="curve" smooth="yes"/>
      <point x="304" y="-167"/>
      <point x="321" y="-162"/>
      <point x="341" y="-155" type="curve"/>
      <point x="341" y="-107" type="line"/>
      <point x="312" y="-107" type="line" smooth="yes"/>
      <point x="282" y="-107"/>
      <point x="270" y="-83"/>
      <point x="270" y="-57" type="curve" smooth="yes"/>
      <point x="270" y="-31"/>
      <point x="286" y="-6"/>
      <point x="297" y="6" type="curve"/>
      <point x="347" y="33"/>
      <point x="380" y="88"/>
      <point x="380" y="164" type="curve"/>
      <point x="305" y="164" type="line"/>
      <point x="305" y="98"/>
      <point x="271" y="56"/>
      <point x="224" y="56" type="curve" smooth="yes"/>
      <point x="152" y="56"/>
      <point x="119" y="107"/>
      <point x="118" y="219" type="curve"/>
      <point x="380" y="219" type="line"/>
      <point x="380" y="267" type="line" smooth="yes"/>
      <point x="380" y="430"/>
      <point x="327" y="495"/>
      <point x="220" y="495" type="curve" smooth="yes"/>
    </contour>
    <contour>
      <point x="274" y="427"/>
      <point x="301" y="379"/>
      <point x="301" y="287" type="curve"/>
      <point x="119" y="287" type="line"/>
      <point x="125" y="380"/>
      <point x="154" y="427"/>
      <point x="220" y="427" type="curve" smooth="yes"/>
    </contour>
  </outline>
</glyph>
<glyph name="Ecaron" format="1">
  <advance width="503"/>
  <unicode hex="011A"/>
  <outline>
    <contour>
      <point x="287" y="687" type="line"/>
      <point x="366" y="812" type="line"/>
      <point x="292" y="812" type="line"/>
      <point x="251" y="739" type="line"/>
      <point x="210" y="812" type="line"/>
      <point x="137" y="812" type="line"/>
      <point x="215" y="687" type="line"/>
    </contour>
    <contour>
      <point x="64" y="0" type="line"/>
      <point x="459" y="0" type="line"/>
      <point x="459" y="74" type="line"/>
      <point x="146" y="74" type="line"/>
      <point x="146" y="286" type="line"/>
      <point x="413" y="286" type="line"/>
      <point x="413" y="360" type="line"/>
      <point x="146" y="360" type="line"/>
      <point x="146" y="557" type="line"/>
      <point x="453" y="557" type="line"/>
      <point x="453" y="630" type="line"/>
      <point x="64" y="630" type="line"/>
    </contour>
  </outline>
</glyph>
<glyph name="Gcommaaccent" format="1">
  <advance width="587"/>
  <unicode hex="0122"/>
  <outline>
    <contour>
      <point x="333" y="-132" type="line"/>
      <point x="333" y="-55" type="line"/>
      <point x="255" y="-55" type="line"/>
      <point x="255" y="-138" type="line"/>
      <point x="286" y="-138" type="line"/>
      <point x="265" y="-204" type="line"/>
      <point x="306" y="-204" type="line"/>
    </contour>
    <contour>
      <point x="140" y="642"/>
      <point x="45" y="535"/>
      <point x="45" y="315" type="curve" smooth="yes"/>
      <point x="45" y="97"/>
      <point x="134" y="-11"/>
      <point x="293" y="-11" type="curve" smooth="yes"/>
      <point x="361" y="-11"/>
      <point x="417" y="12"/>
      <point x="456" y="70" type="curve"/>
      <point x="473" y="0" type="line"/>
      <point x="527" y="0" type="line"/>
      <point x="527" y="329" type="line"/>
      <point x="281" y="329" type="line"/>
      <point x="281" y="258" type="line"/>
      <point x="478" y="258" type="line"/>
      <point x="444" y="291" type="line"/>
      <point x="444" y="242" type="line" smooth="yes"/>
      <point x="444" y="123"/>
      <point x="398" y="63"/>
      <point x="293" y="63" type="curve" smooth="yes"/>
      <point x="187" y="63"/>
      <point x="130" y="138"/>
      <point x="130" y="292" type="curve" smooth="yes"/>
      <point x="130" y="338" type="line" smooth="yes"/>
      <point x="130" y="492"/>
      <point x="194" y="567"/>
      <point x="297" y="567" type="curve" smooth="yes"/>
      <point x="385" y="567"/>
      <point x="444" y="520"/>
      <point x="444" y="416" type="curve"/>
      <point x="527" y="416" type="line"/>
      <point x="527" y="568"/>
      <point x="430" y="642"/>
      <point x="297" y="642" type="curve" smooth="yes"/>
    </contour>
  </outline>
</glyph>
<glyph name="Hbar" format="1">
  <advance width="544"/>
  <unicode hex="0126"/>
  <outline>
    <contour>
      <point x="526" y="450" type="line"/>
      <point x="526" y="517" type="line"/>
      <point x="479" y="517" type="line"/>
      <point x="479" y="630" type="line"/>
      <point x="399" y="630" type="line"/>
      <point x="399" y="517" type="line"/>
      <point x="146" y="517" type="line"/>
      <point x="146" y="630" type="line"/>
      <point x="64" y="630" type="line"/>
      <point x="64" y="517" type="line"/>
      <point x="19" y="517" type="line"/>
      <point x="19" y="450" type="line"/>
      <point x="64" y="450" type="line"/>
      <point x="64" y="0" type="line"/>
      <point x="146" y="0" type="line"/>
      <point x="146" y="282" type="line"/>
      <point x="399" y="282" type="line"/>
      <point x="399" y="0" type="line"/>
      <point x="479" y="0" type="line"/>
      <point x="479" y="450" type="line"/>
    </contour>
    <contour>
      <point x="399" y="355" type="line"/>
      <point x="146" y="355" type="line"/>
      <point x="146" y="450" type="line"/>
      <point x="399" y="450" type="line"/>
    </contour>
  </outline>
</glyph>
<glyph name="hbar" format="1">
  <advance width="419"/>
  <unicode hex="0127"/>
  <outline>
    <contour>
      <point x="131" y="665" type="line"/>
      <point x="55" y="665" type="line"/>
      <point x="55" y="598" type="line"/>
      <point x="0" y="598" type="line"/>
      <point x="0" y="536" type="line"/>
      <point x="55" y="536" type="line"/>
      <point x="55" y="0" type="line"/>
      <point x="131" y="0" type="line"/>
      <point x="131" y="295" type="line" smooth="yes"/>
      <point x="131" y="379"/>
      <point x="173" y="427"/>
      <point x="220" y="427" type="curve" smooth="yes"/>
      <point x="261" y="427"/>
      <point x="289" y="410"/>
      <point x="289" y="343" type="curve" smooth="yes"/>
      <point x="289" y="0" type="line"/>
      <point x="364" y="0" type="line"/>
      <point x="364" y="348" type="line" smooth="yes"/>
      <point x="364" y="456"/>
      <point x="317" y="495"/>
      <point x="244" y="495" type="curve" smooth="yes"/>
      <point x="197" y="495"/>
      <point x="161" y="476"/>
      <point x="136" y="433" type="curve"/>
      <point x="131" y="433" type="line"/>
      <point x="131" y="536" type="line"/>
      <point x="230" y="536" type="line"/>
      <point x="230" y="598" type="line"/>
      <point x="131" y="598" type="line"/>
    </contour>
  </outline>
</glyph>
<glyph name="Itilde" format="1">
  <advance width="210"/>
  <unicode hex="0128"/>
  <outline>
    <contour>
      <point x="146" y="0" type="line"/>
      <point x="146" y="630" type="line"/>
      <point x="64" y="630" type="line"/>
      <point x="64" y="0" type="line"/>
    </contour>
    <contour>
      <point x="186" y="812" type="line"/>
      <point x="183" y="790"/>
      <point x="171" y="784"/>
      <point x="155" y="784" type="curve" smooth="yes"/>
      <point x="119" y="784"/>
      <point x="88" y="812"/>
      <point x="49" y="812" type="curve" smooth="yes"/>
      <point x="-6" y="812"/>
      <point x="-29" y="758"/>
      <point x="-29" y="717" type="curve"/>
      <point x="24" y="717" type="line"/>
      <point x="27" y="737"/>
      <point x="38" y="745"/>
      <point x="55" y="745" type="curve" smooth="yes"/>
      <point x="92" y="745"/>
      <point x="122" y="717"/>
      <point x="161" y="717" type="curve" smooth="yes"/>
      <point x="216" y="717"/>
      <point x="239" y="770"/>
      <point x="239" y="812" type="curve"/>
    </contour>
  </outline>
</glyph>
<glyph name="itilde" format="1">
  <advance width="210"/>
  <unicode hex="0129"/>
  <outline>
    <contour>
      <point x="142" y="0" type="line"/>
      <point x="142" y="484" type="line"/>
      <point x="68" y="484" type="line"/>
      <point x="68" y="0" type="line"/>
    </contour>
    <contour>
      <point x="186" y="665" type="line"/>
      <point x="183" y="644"/>
      <point x="171" y="636"/>
      <point x="155" y="636" type="curve" smooth="yes"/>
      <point x="119" y="636"/>
      <point x="88" y="665"/>
      <point x="49" y="665" type="curve" smooth="yes"/>
      <point x="-6" y="665"/>
      <point x="-29" y="612"/>
      <point x="-29" y="569" type="curve"/>
      <point x="24" y="569" type="line"/>
      <point x="27" y="591"/>
      <point x="38" y="598"/>
      <point x="55" y="598" type="curve" smooth="yes"/>
      <point x="92" y="598"/>
      <point x="122" y="569"/>
      <point x="161" y="569" type="curve" smooth="yes"/>
      <point x="216" y="569"/>
      <point x="239" y="622"/>
      <point x="239" y="665" type="curve"/>
    </contour>
  </outline>
</glyph>
<glyph name="imacron" format="1">
  <advance width="210"/>
  <unicode hex="012B"/>
  <outline>
    <contour>
      <point x="142" y="0" type="line"/>
      <point x="142" y="484" type="line"/>
      <point x="68" y="484" type="line"/>
      <point x="68" y="0" type="line"/>
    </contour>
    <contour>
      <point x="220" y="551" type="line"/>
      <point x="220" y="617" type="line"/>
      <point x="-10" y="617" type="line"/>
      <point x="-10" y="551" type="line"/>
    </contour>
  </outline>
</glyph>
<glyph name="Ibreve" format="1">
  <advance width="210"/>
  <unicode hex="012C"/>
  <outline>
    <contour>
      <point x="146" y="0" type="line"/>
      <point x="146" y="630" type="line"/>
      <point x="64" y="630" type="line"/>
      <point x="64" y="0" type="line"/>
    </contour>
    <contour>
      <point x="160" y="812" type="line"/>
      <point x="158" y="799"/>
      <point x="136" y="781"/>
      <point x="105" y="781" type="curve" smooth="yes"/>
      <point x="75" y="781"/>
      <point x="53" y="799"/>
      <point x="51" y="812" type="curve"/>
      <point x="-9" y="812" type="line"/>
      <point x="-9" y="771"/>
      <point x="35" y="723"/>
      <point x="105" y="723" type="curve" smooth="yes"/>
      <point x="176" y="723"/>
      <point x="218" y="771"/>
      <point x="218" y="812" type="curve"/>
    </contour>
  </outline>
</glyph>
<glyph name="ibreve" format="1">
  <advance width="210"/>
  <unicode hex="012D"/>
  <outline>
    <contour>
      <point x="142" y="0" type="line"/>
      <point x="142" y="484" type="line"/>
      <point x="68" y="484" type="line"/>
      <point x="68" y="0" type="line"/>
    </contour>
    <contour>
      <point x="160" y="665" type="line"/>
      <point x="158" y="652"/>
      <point x="136" y="634"/>
      <point x="105" y="634" type="curve" smooth="yes"/>
      <point x="75" y="634"/>
      <point x="53" y="652"/>
      <point x="51" y="665" type="curve"/>
      <point x="-9" y="665" type="line"/>
      <point x="-9" y="623"/>
      <point x="35" y="575"/>
      <point x="105" y="575" type="curve" smooth="yes"/>
      <point x="176" y="575"/>
      <point x="218" y="623"/>
      <point x="218" y="665" type="curve"/>
    </contour>
  </outline>
</glyph>
<glyph name="iogonek" format="1">
  <advance width="167"/>
  <unicode hex="012F"/>
  <outline>
    <contour>
      <point x="122" y="484" type="line"/>
      <point x="46" y="484" type="line"/>
      <point x="46" y="0" type="line"/>
      <point x="61" y="0" type="line"/>
      <point x="43" y="-21"/>
      <point x="28" y="-46"/>
      <point x="28" y="-84" type="curve" smooth="yes"/>
      <point x="28" y="-148"/>
      <point x="75" y="-167"/>
      <point x="114" y="-167" type="curve" smooth="yes"/>
      <point x="132" y="-167"/>
      <point x="151" y="-162"/>
      <point x="171" y="-155" type="curve"/>
      <point x="171" y="-107" type="line"/>
      <point x="140" y="-107" type="line" smooth="yes"/>
      <point x="110" y="-107"/>
      <point x="99" y="-83"/>
      <point x="99" y="-57" type="curve" smooth="yes"/>
      <point x="99" y="-35"/>
      <point x="111" y="-14"/>
      <point x="122" y="0" type="curve"/>
    </contour>
    <contour>
      <point x="125" y="665" type="line"/>
      <point x="44" y="665" type="line"/>
      <point x="44" y="577" type="line"/>
      <point x="125" y="577" type="line"/>
    </contour>
  </outline>
</glyph>
<glyph name="ij" format="1">
  <advance width="335"/>
  <unicode hex="0133"/>
  <outline>
    <contour>
      <point x="289" y="484" type="line"/>
      <point x="213" y="484" type="line"/>
      <point x="213" y="-59" type="line" smooth="yes"/>
      <point x="213" y="-88"/>
      <point x="199" y="-104"/>
      <point x="171" y="-104" type="curve" smooth="yes"/>
      <point x="130" y="-104" type="line"/>
      <point x="130" y="-156" type="line"/>
      <point x="146" y="-162"/>
      <point x="171" y="-167"/>
      <point x="193" y="-167" type="curve" smooth="yes"/>
      <point x="266" y="-167"/>
      <point x="289" y="-111"/>
      <point x="289" y="-56" type="curve" smooth="yes"/>
    </contour>
    <contour>
      <point x="122" y="484" type="line"/>
      <point x="46" y="484" type="line"/>
      <point x="46" y="0" type="line"/>
      <point x="122" y="0" type="line"/>
    </contour>
    <contour>
      <point x="122" y="665" type="line"/>
      <point x="46" y="665" type="line"/>
      <point x="46" y="574" type="line"/>
      <point x="122" y="574" type="line"/>
    </contour>
    <contour>
      <point x="289" y="665" type="line"/>
      <point x="213" y="665" type="line"/>
      <point x="213" y="574" type="line"/>
      <point x="289" y="574" type="line"/>
    </contour>
  </outline>
</glyph>
<glyph name="jcircumflex" format="1">
  <advance width="167"/>
  <unicode hex="0135"/>
  <outline>
    <contour>
      <point x="122" y="484" type="line"/>
      <point x="46" y="484" type="line"/>
      <point x="46" y="-59" type="line" smooth="yes"/>
      <point x="46" y="-88"/>
      <point x="31" y="-104"/>
      <point x="3" y="-104" type="curve" smooth="yes"/>
      <point x="-37" y="-104" type="line"/>
      <point x="-37" y="-156" type="line"/>
      <point x="-22" y="-162"/>
      <point x="4" y="-167"/>
      <point x="26" y="-167" type="curve" smooth="yes"/>
      <point x="99" y="-167"/>
      <point x="122" y="-111"/>
      <point x="122" y="-56" type="curve" smooth="yes"/>
    </contour>
    <contour>
      <point x="199" y="540" type="line"/>
      <point x="120" y="664" type="line"/>
      <point x="48" y="664" type="line"/>
      <point x="-31" y="540" type="line"/>
      <point x="43" y="540" type="line"/>
      <point x="84" y="613" type="line"/>
      <point x="125" y="540" type="line"/>
    </contour>
  </outline>
</glyph>
<glyph name="Kcommaaccent" format="1">
  <advance width="503"/>
  <unicode hex="0136"/>
  <outline>
    <contour>
      <point x="290" y="-132" type="line"/>
      <point x="290" y="-55" type="line"/>
      <point x="212" y="-55" type="line"/>
      <point x="212" y="-138" type="line"/>
      <point x="243" y="-138" type="line"/>
      <point x="224" y="-204" type="line"/>
      <point x="264" y="-204" type="line"/>
    </contour>
    <contour>
      <point x="146" y="297" type="line"/>
      <point x="146" y="630" type="line"/>
      <point x="64" y="630" type="line"/>
      <point x="64" y="0" type="line"/>
      <point x="146" y="0" type="line"/>
      <point x="146" y="196" type="line"/>
      <point x="246" y="308" type="line"/>
      <point x="400" y="0" type="line"/>
      <point x="492" y="0" type="line"/>
      <point x="296" y="376" type="line"/>
      <point x="486" y="630" type="line"/>
      <point x="395" y="630" type="line"/>
    </contour>
  </outline>
</glyph>
<glyph name="kcommaaccent" format="1">
  <advance width="376"/>
  <unicode hex="0137"/>
  <outline>
    <contour>
      <point x="131" y="259" type="line"/>
      <point x="131" y="665" type="line"/>
      <point x="55" y="665" type="line"/>
      <point x="55" y="0" type="line"/>
      <point x="131" y="0" type="line"/>
      <point x="131" y="164" type="line"/>
      <point x="182" y="220" type="line"/>
      <point x="292" y="0" type="line"/>
      <point x="378" y="0" type="line"/>
      <point x="228" y="285" type="line"/>
      <point x="370" y="484" type="line"/>
      <point x="287" y="484" type="line"/>
    </contour>
    <contour>
      <point x="228" y="-132" type="line"/>
      <point x="228" y="-55" type="line"/>
      <point x="150" y="-55" type="line"/>
      <point x="150" y="-138" type="line"/>
      <point x="181" y="-138" type="line"/>
      <point x="160" y="-204" type="line"/>
      <point x="202" y="-204" type="line"/>
    </contour>
  </outline>
</glyph>
<glyph name="Lacute" format="1">
  <advance width="419"/>
  <unicode hex="0139"/>
  <outline>
    <contour>
      <point x="146" y="630" type="line"/>
      <point x="64" y="630" type="line"/>
      <point x="64" y="0" type="line"/>
      <point x="402" y="0" type="line"/>
      <point x="402" y="74" type="line"/>
      <point x="146" y="74" type="line"/>
    </contour>
    <contour>
      <point x="209" y="812" type="line"/>
      <point x="126" y="812" type="line"/>
      <point x="47" y="691" type="line"/>
      <point x="111" y="691" type="line"/>
      <point x="210" y="809" type="line"/>
    </contour>
  </outline>
</glyph>
<glyph name="lacute" format="1">
  <advance width="167"/>
  <unicode hex="013A"/>
  <outline>
    <contour>
      <point x="122" y="665" type="line"/>
      <point x="46" y="665" type="line"/>
      <point x="46" y="0" type="line"/>
      <point x="122" y="0" type="line"/>
    </contour>
    <contour>
      <point x="191" y="812" type="line"/>
      <point x="108" y="812" type="line"/>
      <point x="29" y="691" type="line"/>
      <point x="93" y="691" type="line"/>
      <point x="191" y="809" type="line"/>
    </contour>
  </outline>
</glyph>
<glyph name="Lcommaaccent" format="1">
  <advance width="419"/>
  <unicode hex="013B"/>
  <outline>
    <contour>
      <point x="146" y="630" type="line"/>
      <point x="64" y="630" type="line"/>
      <point x="64" y="0" type="line"/>
      <point x="402" y="0" type="line"/>
      <point x="402" y="74" type="line"/>
      <point x="146" y="74" type="line"/>
    </contour>
    <contour>
      <point x="250" y="-55" type="line"/>
      <point x="171" y="-55" type="line"/>
      <point x="171" y="-138" type="line"/>
      <point x="202" y="-138" type="line"/>
      <point x="181" y="-204" type="line"/>
      <point x="223" y="-204" type="line"/>
      <point x="250" y="-132" type="line"/>
    </contour>
  </outline>
</glyph>
<glyph name="Lcaron" format="1">
  <advance width="419"/>
  <unicode hex="013D"/>
  <outline>
    <contour>
      <point x="146" y="630" type="line"/>
      <point x="64" y="630" type="line"/>
      <point x="64" y="0" type="line"/>
      <point x="402" y="0" type="line"/>
      <point x="402" y="74" type="line"/>
      <point x="146" y="74" type="line"/>
    </contour>
    <contour>
      <point x="385" y="630" type="line"/>
      <point x="293" y="630" type="line"/>
      <point x="293" y="531" type="line"/>
      <point x="330" y="531" type="line"/>
      <point x="293" y="417" type="line"/>
      <point x="341" y="417" type="line"/>
      <point x="385" y="540" type="line"/>
    </contour>
  </outline>
</glyph>
<glyph name="lcaron" format="1">
  <advance width="219"/>
  <unicode hex="013E"/>
  <outline>
    <contour>
      <point x="122" y="0" type="line"/>
      <point x="122" y="665" type="line"/>
      <point x="46" y="665" type="line"/>
      <point x="46" y="0" type="line"/>
    </contour>
    <contour>
      <point x="250" y="540" type="line"/>
      <point x="250" y="630" type="line"/>
      <point x="158" y="630" type="line"/>
      <point x="158" y="531" type="line"/>
      <point x="194" y="531" type="line"/>
      <point x="158" y="417" type="line"/>
      <point x="206" y="417" type="line"/>
    </contour>
  </outline>
</glyph>
<glyph name="Ldot" format="1">
  <advance width="419"/>
  <unicode hex="013F"/>
  <outline>
    <contour>
      <point x="146" y="630" type="line"/>
      <point x="64" y="630" type="line"/>
      <point x="64" y="0" type="line"/>
      <point x="402" y="0" type="line"/>
      <point x="402" y="74" type="line"/>
      <point x="146" y="74" type="line"/>
    </contour>
    <contour>
      <point x="364" y="483" type="line"/>
      <point x="271" y="483" type="line"/>
      <point x="271" y="381" type="line"/>
      <point x="364" y="381" type="line"/>
    </contour>
  </outline>
</glyph>
<glyph name="ldot" format="1">
  <advance width="297"/>
  <unicode hex="0140"/>
  <outline>
    <contour>
      <point x="122" y="0" type="line"/>
      <point x="122" y="665" type="line"/>
      <point x="46" y="665" type="line"/>
      <point x="46" y="0" type="line"/>
    </contour>
    <contour>
      <point x="251" y="265" type="line"/>
      <point x="251" y="367" type="line"/>
      <point x="158" y="367" type="line"/>
      <point x="158" y="265" type="line"/>
    </contour>
  </outline>
</glyph>
<glyph name="Lslash" format="1">
  <advance width="419"/>
  <unicode hex="0141"/>
  <outline>
    <contour>
      <point x="146" y="630" type="line"/>
      <point x="64" y="630" type="line"/>
      <point x="64" y="291" type="line"/>
      <point x="0" y="234" type="line"/>
      <point x="0" y="170" type="line"/>
      <point x="64" y="226" type="line"/>
      <point x="64" y="0" type="line"/>
      <point x="402" y="0" type="line"/>
      <point x="402" y="74" type="line"/>
      <point x="146" y="74" type="line"/>
      <point x="146" y="297" type="line"/>
      <point x="271" y="408" type="line"/>
      <point x="271" y="475" type="line"/>
      <point x="146" y="363" type="line"/>
    </contour>
  </outline>
</glyph>
<glyph name="Ncommaaccent" format="1">
  <advance width="544"/>
  <unicode hex="0145"/>
  <outline>
    <contour>
      <point x="479" y="630" type="line"/>
      <point x="408" y="630" type="line"/>
      <point x="408" y="234" type="line" smooth="yes"/>
      <point x="408" y="214"/>
      <point x="410" y="151"/>
      <point x="410" y="151" type="curve"/>
      <point x="408" y="150" type="line"/>
      <point x="408" y="150"/>
      <point x="383" y="210"/>
      <point x="368" y="234" type="curve" smooth="yes"/>
      <point x="134" y="630" type="line"/>
      <point x="64" y="630" type="line"/>
      <point x="64" y="0" type="line"/>
      <point x="137" y="0" type="line"/>
      <point x="137" y="401" type="line" smooth="yes"/>
      <point x="137" y="427"/>
      <point x="133" y="486"/>
      <point x="133" y="486" type="curve"/>
      <point x="136" y="487" type="line"/>
      <point x="136" y="487"/>
      <point x="161" y="428"/>
      <point x="177" y="401" type="curve" smooth="yes"/>
      <point x="413" y="0" type="line"/>
      <point x="479" y="0" type="line"/>
    </contour>
    <contour>
      <point x="312" y="-55" type="line"/>
      <point x="233" y="-55" type="line"/>
      <point x="233" y="-138" type="line"/>
      <point x="265" y="-138" type="line"/>
      <point x="243" y="-204" type="line"/>
      <point x="285" y="-204" type="line"/>
      <point x="312" y="-132" type="line"/>
    </contour>
  </outline>
</glyph>
<glyph name="Eng" format="1">
  <advance width="544"/>
  <unicode hex="014A"/>
  <outline>
    <contour>
      <point x="479" y="630" type="line"/>
      <point x="405" y="630" type="line"/>
      <point x="408" y="234" type="line" smooth="yes"/>
      <point x="408" y="214"/>
      <point x="410" y="151"/>
      <point x="410" y="151" type="curve"/>
      <point x="408" y="150" type="line"/>
      <point x="408" y="150"/>
      <point x="383" y="210"/>
      <point x="368" y="234" type="curve" smooth="yes"/>
      <point x="134" y="630" type="line"/>
      <point x="64" y="630" type="line"/>
      <point x="64" y="0" type="line"/>
      <point x="137" y="0" type="line"/>
      <point x="137" y="401" type="line" smooth="yes"/>
      <point x="137" y="427"/>
      <point x="133" y="486"/>
      <point x="133" y="486" type="curve"/>
      <point x="136" y="487" type="line"/>
      <point x="136" y="487"/>
      <point x="161" y="428"/>
      <point x="177" y="401" type="curve" smooth="yes"/>
      <point x="405" y="14" type="line"/>
      <point x="405" y="-59" type="line" smooth="yes"/>
      <point x="405" y="-88"/>
      <point x="390" y="-104"/>
      <point x="361" y="-104" type="curve" smooth="yes"/>
      <point x="321" y="-104" type="line"/>
      <point x="321" y="-156" type="line"/>
      <point x="337" y="-162"/>
      <point x="362" y="-167"/>
      <point x="385" y="-167" type="curve" smooth="yes"/>
      <point x="458" y="-167"/>
      <point x="479" y="-111"/>
      <point x="479" y="-56" type="curve" smooth="yes"/>
    </contour>
  </outline>
</glyph>
<glyph name="eng" format="1">
  <advance width="419"/>
  <unicode hex="014B"/>
  <outline>
    <contour>
      <point x="197" y="495"/>
      <point x="155" y="475"/>
      <point x="128" y="427" type="curve"/>
      <point x="123" y="427" type="line"/>
      <point x="112" y="484" type="line"/>
      <point x="55" y="484" type="line"/>
      <point x="55" y="0" type="line"/>
      <point x="131" y="0" type="line"/>
      <point x="131" y="295" type="line" smooth="yes"/>
      <point x="131" y="379"/>
      <point x="173" y="427"/>
      <point x="220" y="427" type="curve" smooth="yes"/>
      <point x="261" y="427"/>
      <point x="289" y="410"/>
      <point x="289" y="343" type="curve" smooth="yes"/>
      <point x="289" y="-59" type="line" smooth="yes"/>
      <point x="289" y="-88"/>
      <point x="274" y="-104"/>
      <point x="245" y="-104" type="curve" smooth="yes"/>
      <point x="205" y="-104" type="line"/>
      <point x="205" y="-156" type="line"/>
      <point x="220" y="-162"/>
      <point x="246" y="-167"/>
      <point x="268" y="-167" type="curve" smooth="yes"/>
      <point x="342" y="-167"/>
      <point x="364" y="-111"/>
      <point x="364" y="-56" type="curve" smooth="yes"/>
      <point x="364" y="348" type="line" smooth="yes"/>
      <point x="364" y="456"/>
      <point x="317" y="495"/>
      <point x="244" y="495" type="curve" smooth="yes"/>
    </contour>
  </outline>
</glyph>
<glyph name="Obreve" format="1">
  <advance width="587"/>
  <unicode hex="014E"/>
  <outline>
    <contour>
      <point x="138" y="642"/>
      <point x="45" y="535"/>
      <point x="45" y="315" type="curve" smooth="yes"/>
      <point x="45" y="97"/>
      <point x="138" y="-11"/>
      <point x="293" y="-11" type="curve" smooth="yes"/>
      <point x="448" y="-11"/>
      <point x="542" y="97"/>
      <point x="542" y="315" type="curve" smooth="yes"/>
      <point x="542" y="535"/>
      <point x="448" y="642"/>
      <point x="293" y="642" type="curve" smooth="yes"/>
    </contour>
    <contour>
      <point x="394" y="567"/>
      <point x="457" y="492"/>
      <point x="457" y="338" type="curve" smooth="yes"/>
      <point x="457" y="292" type="line" smooth="yes"/>
      <point x="457" y="138"/>
      <point x="394" y="63"/>
      <point x="293" y="63" type="curve" smooth="yes"/>
      <point x="192" y="63"/>
      <point x="130" y="138"/>
      <point x="130" y="292" type="curve" smooth="yes"/>
      <point x="130" y="338" type="line" smooth="yes"/>
      <point x="130" y="492"/>
      <point x="192" y="567"/>
      <point x="293" y="567" type="curve" smooth="yes"/>
    </contour>
    <contour>
      <point x="348" y="812" type="line"/>
      <point x="346" y="799"/>
      <point x="324" y="781"/>
      <point x="293" y="781" type="curve" smooth="yes"/>
      <point x="263" y="781"/>
      <point x="241" y="799"/>
      <point x="239" y="812" type="curve"/>
      <point x="180" y="812" type="line"/>
      <point x="180" y="771"/>
      <point x="224" y="723"/>
      <point x="293" y="723" type="curve" smooth="yes"/>
      <point x="364" y="723"/>
      <point x="408" y="771"/>
      <point x="408" y="812" type="curve"/>
    </contour>
  </outline>
</glyph>
<glyph name="obreve" format="1">
  <advance width="419"/>
  <unicode hex="014F"/>
  <outline>
    <contour>
      <point x="97" y="495"/>
      <point x="36" y="416"/>
      <point x="36" y="241" type="curve" smooth="yes"/>
      <point x="36" y="68"/>
      <point x="97" y="-11"/>
      <point x="210" y="-11" type="curve" smooth="yes"/>
      <point x="322" y="-11"/>
      <point x="383" y="68"/>
      <point x="383" y="241" type="curve" smooth="yes"/>
      <point x="383" y="416"/>
      <point x="322" y="495"/>
      <point x="210" y="495" type="curve" smooth="yes"/>
    </contour>
    <contour>
      <point x="272" y="427"/>
      <point x="304" y="370"/>
      <point x="304" y="259" type="curve" smooth="yes"/>
      <point x="304" y="225" type="line" smooth="yes"/>
      <point x="304" y="113"/>
      <point x="272" y="56"/>
      <point x="210" y="56" type="curve" smooth="yes"/>
      <point x="147" y="56"/>
      <point x="115" y="113"/>
      <point x="115" y="225" type="curve" smooth="yes"/>
      <point x="115" y="259" type="line" smooth="yes"/>
      <point x="115" y="370"/>
      <point x="147" y="427"/>
      <point x="210" y="427" type="curve" smooth="yes"/>
    </contour>
    <contour>
      <point x="265" y="665" type="line"/>
      <point x="263" y="652"/>
      <point x="241" y="634"/>
      <point x="210" y="634" type="curve" smooth="yes"/>
      <point x="178" y="634"/>
      <point x="158" y="652"/>
      <point x="155" y="665" type="curve"/>
      <point x="96" y="665" type="line"/>
      <point x="96" y="623"/>
      <point x="139" y="575"/>
      <point x="210" y="575" type="curve" smooth="yes"/>
      <point x="281" y="575"/>
      <point x="323" y="623"/>
      <point x="323" y="665" type="curve"/>
    </contour>
  </outline>
</glyph>
<glyph name="OE" format="1">
  <advance width="754"/>
  <unicode hex="0152"/>
  <outline>
    <contour>
      <point x="122" y="642"/>
      <point x="45" y="535"/>
      <point x="45" y="315" type="curve" smooth="yes"/>
      <point x="45" y="97"/>
      <point x="122" y="-11"/>
      <point x="251" y="-11" type="curve" smooth="yes"/>
      <point x="310" y="-11"/>
      <point x="357" y="12"/>
      <point x="391" y="62" type="curve"/>
      <point x="391" y="0" type="line"/>
      <point x="721" y="0" type="line"/>
      <point x="721" y="74" type="line"/>
      <point x="471" y="74" type="line"/>
      <point x="471" y="286" type="line"/>
      <point x="674" y="286" type="line"/>
      <point x="674" y="360" type="line"/>
      <point x="471" y="360" type="line"/>
      <point x="471" y="557" type="line"/>
      <point x="716" y="557" type="line"/>
      <point x="716" y="630" type="line"/>
      <point x="391" y="630" type="line"/>
      <point x="391" y="568" type="line"/>
      <point x="357" y="617"/>
      <point x="310" y="642"/>
      <point x="251" y="642" type="curve" smooth="yes"/>
    </contour>
    <contour>
      <point x="341" y="567"/>
      <point x="391" y="492"/>
      <point x="391" y="338" type="curve" smooth="yes"/>
      <point x="391" y="292" type="line" smooth="yes"/>
      <point x="391" y="138"/>
      <point x="341" y="63"/>
      <point x="260" y="63" type="curve" smooth="yes"/>
      <point x="179" y="63"/>
      <point x="130" y="138"/>
      <point x="130" y="292" type="curve" smooth="yes"/>
      <point x="130" y="338" type="line" smooth="yes"/>
      <point x="130" y="492"/>
      <point x="179" y="567"/>
      <point x="260" y="567" type="curve" smooth="yes"/>
    </contour>
    <contour>
      <point x="376" y="630" type="move" name="top"/>
    </contour>
  </outline>
</glyph>
<glyph name="oe" format="1">
  <advance width="711"/>
  <unicode hex="0153"/>
  <outline>
    <contour>
      <point x="434" y="495"/>
      <point x="386" y="471"/>
      <point x="356" y="424" type="curve"/>
      <point x="328" y="471"/>
      <point x="282" y="495"/>
      <point x="222" y="495" type="curve" smooth="yes"/>
      <point x="108" y="495"/>
      <point x="49" y="416"/>
      <point x="49" y="241" type="curve" smooth="yes"/>
      <point x="49" y="68"/>
      <point x="108" y="-11"/>
      <point x="222" y="-11" type="curve" smooth="yes"/>
      <point x="282" y="-11"/>
      <point x="328" y="11"/>
      <point x="356" y="59" type="curve"/>
      <point x="386" y="10"/>
      <point x="435" y="-11"/>
      <point x="500" y="-11" type="curve" smooth="yes"/>
      <point x="594" y="-11"/>
      <point x="658" y="56"/>
      <point x="658" y="164" type="curve"/>
      <point x="583" y="164" type="line"/>
      <point x="583" y="98"/>
      <point x="550" y="56"/>
      <point x="502" y="56" type="curve" smooth="yes"/>
      <point x="431" y="56"/>
      <point x="397" y="107"/>
      <point x="396" y="219" type="curve"/>
      <point x="658" y="219" type="line"/>
      <point x="658" y="267" type="line" smooth="yes"/>
      <point x="658" y="430"/>
      <point x="605" y="495"/>
      <point x="499" y="495" type="curve" smooth="yes"/>
    </contour>
    <contour>
      <point x="284" y="427"/>
      <point x="315" y="370"/>
      <point x="315" y="259" type="curve" smooth="yes"/>
      <point x="315" y="225" type="line" smooth="yes"/>
      <point x="315" y="113"/>
      <point x="284" y="56"/>
      <point x="222" y="56" type="curve" smooth="yes"/>
      <point x="159" y="56"/>
      <point x="128" y="113"/>
      <point x="128" y="225" type="curve" smooth="yes"/>
      <point x="128" y="259" type="line" smooth="yes"/>
      <point x="128" y="370"/>
      <point x="159" y="427"/>
      <point x="222" y="427" type="curve" smooth="yes"/>
    </contour>
    <contour>
      <point x="551" y="427"/>
      <point x="579" y="379"/>
      <point x="579" y="287" type="curve"/>
      <point x="397" y="287" type="line"/>
      <point x="404" y="380"/>
      <point x="432" y="427"/>
      <point x="499" y="427" type="curve" smooth="yes"/>
    </contour>
    <contour>
      <point x="356" y="484" type="move" name="top"/>
    </contour>
  </outline>
</glyph>
<glyph name="Racute" format="1">
  <advance width="544"/>
  <unicode hex="0154"/>
  <outline>
    <contour>
      <point x="64" y="630" type="line"/>
      <point x="64" y="0" type="line"/>
      <point x="146" y="0" type="line"/>
      <point x="146" y="279" type="line"/>
      <point x="314" y="279" type="line"/>
      <point x="432" y="0" type="line"/>
      <point x="521" y="0" type="line"/>
      <point x="394" y="293" type="line"/>
      <point x="465" y="317"/>
      <point x="506" y="378"/>
      <point x="506" y="456" type="curve" smooth="yes"/>
      <point x="506" y="560"/>
      <point x="442" y="630"/>
      <point x="318" y="630" type="curve" smooth="yes"/>
    </contour>
    <contour>
      <point x="315" y="557" type="line"/>
      <point x="385" y="557"/>
      <point x="422" y="519"/>
      <point x="422" y="456" type="curve" smooth="yes"/>
      <point x="422" y="393"/>
      <point x="380" y="353"/>
      <point x="315" y="353" type="curve" smooth="yes"/>
      <point x="146" y="353" type="line"/>
      <point x="146" y="557" type="line"/>
    </contour>
    <contour>
      <point x="359" y="812" type="line"/>
      <point x="276" y="812" type="line"/>
      <point x="197" y="691" type="line"/>
      <point x="261" y="691" type="line"/>
      <point x="360" y="809" type="line"/>
    </contour>
  </outline>
</glyph>
<glyph name="rcommaaccent" format="1">
  <advance width="251"/>
  <unicode hex="0157"/>
  <outline>
    <contour>
      <point x="163" y="495"/>
      <point x="139" y="457"/>
      <point x="128" y="420" type="curve"/>
      <point x="123" y="420" type="line"/>
      <point x="112" y="484" type="line"/>
      <point x="55" y="484" type="line"/>
      <point x="55" y="0" type="line"/>
      <point x="131" y="0" type="line"/>
      <point x="131" y="295" type="line" smooth="yes"/>
      <point x="131" y="381"/>
      <point x="173" y="409"/>
      <point x="220" y="409" type="curve" smooth="yes"/>
      <point x="245" y="409" type="line"/>
      <point x="245" y="488" type="line"/>
      <point x="245" y="488"/>
      <point x="230" y="495"/>
      <point x="210" y="495" type="curve" smooth="yes"/>
    </contour>
    <contour>
      <point x="139" y="-132" type="line"/>
      <point x="139" y="-55" type="line"/>
      <point x="60" y="-55" type="line"/>
      <point x="60" y="-138" type="line"/>
      <point x="93" y="-138" type="line"/>
      <point x="72" y="-204" type="line"/>
      <point x="113" y="-204" type="line"/>
    </contour>
  </outline>
</glyph>
<glyph name="Rcaron" format="1">
  <advance width="544"/>
  <unicode hex="0158"/>
  <outline>
    <contour>
      <point x="64" y="630" type="line"/>
      <point x="64" y="0" type="line"/>
      <point x="146" y="0" type="line"/>
      <point x="146" y="279" type="line"/>
      <point x="314" y="279" type="line"/>
      <point x="432" y="0" type="line"/>
      <point x="521" y="0" type="line"/>
      <point x="394" y="293" type="line"/>
      <point x="465" y="317"/>
      <point x="506" y="378"/>
      <point x="506" y="456" type="curve" smooth="yes"/>
      <point x="506" y="560"/>
      <point x="442" y="630"/>
      <point x="318" y="630" type="curve" smooth="yes"/>
    </contour>
    <contour>
      <point x="315" y="557" type="line"/>
      <point x="385" y="557"/>
      <point x="422" y="519"/>
      <point x="422" y="456" type="curve" smooth="yes"/>
      <point x="422" y="393"/>
      <point x="380" y="353"/>
      <point x="315" y="353" type="curve" smooth="yes"/>
      <point x="146" y="353" type="line"/>
      <point x="146" y="557" type="line"/>
    </contour>
    <contour>
      <point x="387" y="812" type="line"/>
      <point x="313" y="812" type="line"/>
      <point x="272" y="739" type="line"/>
      <point x="231" y="812" type="line"/>
      <point x="157" y="812" type="line"/>
      <point x="235" y="687" type="line"/>
      <point x="307" y="687" type="line"/>
    </contour>
  </outline>
</glyph>
<glyph name="rcaron" format="1">
  <advance width="251"/>
  <unicode hex="0159"/>
  <outline>
    <contour>
      <point x="163" y="495"/>
      <point x="139" y="457"/>
      <point x="128" y="420" type="curve"/>
      <point x="123" y="420" type="line"/>
      <point x="112" y="484" type="line"/>
      <point x="55" y="484" type="line"/>
      <point x="55" y="0" type="line"/>
      <point x="131" y="0" type="line"/>
      <point x="131" y="295" type="line" smooth="yes"/>
      <point x="131" y="381"/>
      <point x="173" y="409"/>
      <point x="220" y="409" type="curve" smooth="yes"/>
      <point x="245" y="409" type="line"/>
      <point x="245" y="488" type="line"/>
      <point x="245" y="488"/>
      <point x="230" y="495"/>
      <point x="210" y="495" type="curve" smooth="yes"/>
    </contour>
    <contour>
      <point x="148" y="541" type="line"/>
      <point x="227" y="665" type="line"/>
      <point x="154" y="665" type="line"/>
      <point x="112" y="592" type="line"/>
      <point x="72" y="665" type="line"/>
      <point x="-3" y="665" type="line"/>
      <point x="76" y="541" type="line"/>
    </contour>
  </outline>
</glyph>
<glyph name="Scircumflex" format="1">
  <advance width="503"/>
  <unicode hex="015C"/>
  <outline>
    <contour>
      <point x="140" y="642"/>
      <point x="51" y="589"/>
      <point x="51" y="472" type="curve" smooth="yes"/>
      <point x="51" y="244"/>
      <point x="379" y="328"/>
      <point x="379" y="168" type="curve" smooth="yes"/>
      <point x="379" y="100"/>
      <point x="331" y="63"/>
      <point x="246" y="63" type="curve" smooth="yes"/>
      <point x="175" y="63"/>
      <point x="122" y="100"/>
      <point x="122" y="178" type="curve" smooth="yes"/>
      <point x="122" y="183"/>
      <point x="123" y="196"/>
      <point x="123" y="197" type="curve"/>
      <point x="38" y="197" type="line"/>
      <point x="38" y="194"/>
      <point x="37" y="185"/>
      <point x="37" y="178" type="curve" smooth="yes"/>
      <point x="37" y="40"/>
      <point x="135" y="-11"/>
      <point x="250" y="-11" type="curve" smooth="yes"/>
      <point x="372" y="-11"/>
      <point x="464" y="41"/>
      <point x="464" y="182" type="curve" smooth="yes"/>
      <point x="464" y="404"/>
      <point x="136" y="329"/>
      <point x="136" y="479" type="curve" smooth="yes"/>
      <point x="136" y="540"/>
      <point x="186" y="567"/>
      <point x="253" y="567" type="curve" smooth="yes"/>
      <point x="316" y="567"/>
      <point x="365" y="531"/>
      <point x="365" y="467" type="curve" smooth="yes"/>
      <point x="365" y="453" type="line"/>
      <point x="448" y="453" type="line"/>
      <point x="448" y="464" type="line" smooth="yes"/>
      <point x="448" y="591"/>
      <point x="361" y="642"/>
      <point x="251" y="642" type="curve" smooth="yes"/>
    </contour>
    <contour>
      <point x="366" y="686" type="line"/>
      <point x="288" y="811" type="line"/>
      <point x="216" y="811" type="line"/>
      <point x="137" y="686" type="line"/>
      <point x="210" y="686" type="line"/>
      <point x="252" y="759" type="line"/>
      <point x="292" y="686" type="line"/>
    </contour>
  </outline>
</glyph>
<glyph name="scircumflex" format="1">
  <advance width="376"/>
  <unicode hex="015D"/>
  <outline>
    <contour>
      <point x="100" y="495"/>
      <point x="42" y="442"/>
      <point x="42" y="357" type="curve" smooth="yes"/>
      <point x="42" y="183"/>
      <point x="262" y="249"/>
      <point x="262" y="127" type="curve" smooth="yes"/>
      <point x="262" y="80"/>
      <point x="229" y="55"/>
      <point x="189" y="55" type="curve" smooth="yes"/>
      <point x="146" y="55"/>
      <point x="110" y="81"/>
      <point x="110" y="141" type="curve" smooth="yes"/>
      <point x="110" y="151" type="line"/>
      <point x="31" y="151" type="line"/>
      <point x="31" y="149"/>
      <point x="30" y="144"/>
      <point x="30" y="131" type="curve" smooth="yes"/>
      <point x="30" y="59"/>
      <point x="75" y="-11"/>
      <point x="186" y="-11" type="curve" smooth="yes"/>
      <point x="275" y="-11"/>
      <point x="340" y="34"/>
      <point x="340" y="138" type="curve" smooth="yes"/>
      <point x="340" y="318"/>
      <point x="120" y="257"/>
      <point x="120" y="362" type="curve" smooth="yes"/>
      <point x="120" y="389"/>
      <point x="131" y="428"/>
      <point x="185" y="428" type="curve" smooth="yes"/>
      <point x="236" y="428"/>
      <point x="252" y="391"/>
      <point x="252" y="353" type="curve" smooth="yes"/>
      <point x="252" y="344" type="line"/>
      <point x="330" y="344" type="line"/>
      <point x="330" y="346"/>
      <point x="331" y="356"/>
      <point x="331" y="362" type="curve" smooth="yes"/>
      <point x="331" y="434"/>
      <point x="282" y="495"/>
      <point x="192" y="495" type="curve" smooth="yes"/>
    </contour>
    <contour>
      <point x="226" y="664" type="line"/>
      <point x="154" y="664" type="line"/>
      <point x="75" y="540" type="line"/>
      <point x="148" y="540" type="line"/>
      <point x="189" y="613" type="line"/>
      <point x="230" y="540" type="line"/>
      <point x="304" y="540" type="line"/>
    </contour>
  </outline>
</glyph>
<glyph name="Scedilla" format="1">
  <advance width="503"/>
  <unicode hex="015E"/>
  <outline>
    <contour>
      <point x="140" y="642"/>
      <point x="51" y="589"/>
      <point x="51" y="472" type="curve" smooth="yes"/>
      <point x="51" y="244"/>
      <point x="379" y="328"/>
      <point x="379" y="168" type="curve" smooth="yes"/>
      <point x="379" y="100"/>
      <point x="331" y="63"/>
      <point x="246" y="63" type="curve" smooth="yes"/>
      <point x="175" y="63"/>
      <point x="122" y="100"/>
      <point x="122" y="178" type="curve" smooth="yes"/>
      <point x="122" y="183"/>
      <point x="123" y="196"/>
      <point x="123" y="197" type="curve"/>
      <point x="38" y="197" type="line"/>
      <point x="38" y="194"/>
      <point x="37" y="185"/>
      <point x="37" y="178" type="curve" smooth="yes"/>
      <point x="37" y="53"/>
      <point x="115" y="0"/>
      <point x="216" y="-9" type="curve"/>
      <point x="207" y="-71" type="line"/>
      <point x="237" y="-71" type="line" smooth="yes"/>
      <point x="261" y="-71"/>
      <point x="268" y="-78"/>
      <point x="268" y="-93" type="curve" smooth="yes"/>
      <point x="268" y="-110"/>
      <point x="256" y="-115"/>
      <point x="235" y="-115" type="curve" smooth="yes"/>
      <point x="165" y="-115" type="line"/>
      <point x="165" y="-160" type="line"/>
      <point x="187" y="-164"/>
      <point x="216" y="-167"/>
      <point x="242" y="-167" type="curve" smooth="yes"/>
      <point x="280" y="-167"/>
      <point x="338" y="-155"/>
      <point x="338" y="-93" type="curve" smooth="yes"/>
      <point x="338" y="-51"/>
      <point x="304" y="-35"/>
      <point x="264" y="-33" type="curve"/>
      <point x="266" y="-10" type="line"/>
      <point x="381" y="-5"/>
      <point x="464" y="47"/>
      <point x="464" y="182" type="curve" smooth="yes"/>
      <point x="464" y="404"/>
      <point x="136" y="329"/>
      <point x="136" y="479" type="curve" smooth="yes"/>
      <point x="136" y="540"/>
      <point x="186" y="567"/>
      <point x="253" y="567" type="curve" smooth="yes"/>
      <point x="316" y="567"/>
      <point x="365" y="531"/>
      <point x="365" y="467" type="curve" smooth="yes"/>
      <point x="365" y="453" type="line"/>
      <point x="448" y="453" type="line"/>
      <point x="448" y="464" type="line" smooth="yes"/>
      <point x="448" y="591"/>
      <point x="361" y="642"/>
      <point x="251" y="642" type="curve" smooth="yes"/>
    </contour>
  </outline>
</glyph>
<glyph name="scedilla" format="1">
  <advance width="376"/>
  <unicode hex="015F"/>
  <outline>
    <contour>
      <point x="100" y="495"/>
      <point x="42" y="442"/>
      <point x="42" y="357" type="curve" smooth="yes"/>
      <point x="42" y="183"/>
      <point x="262" y="249"/>
      <point x="262" y="127" type="curve" smooth="yes"/>
      <point x="262" y="80"/>
      <point x="229" y="55"/>
      <point x="189" y="55" type="curve" smooth="yes"/>
      <point x="146" y="55"/>
      <point x="110" y="81"/>
      <point x="110" y="141" type="curve" smooth="yes"/>
      <point x="110" y="151" type="line"/>
      <point x="31" y="151" type="line"/>
      <point x="31" y="149"/>
      <point x="30" y="144"/>
      <point x="30" y="131" type="curve" smooth="yes"/>
      <point x="30" y="67"/>
      <point x="66" y="3"/>
      <point x="153" y="-9" type="curve"/>
      <point x="144" y="-71" type="line"/>
      <point x="174" y="-71" type="line" smooth="yes"/>
      <point x="198" y="-71"/>
      <point x="205" y="-78"/>
      <point x="205" y="-93" type="curve" smooth="yes"/>
      <point x="205" y="-110"/>
      <point x="192" y="-115"/>
      <point x="172" y="-115" type="curve" smooth="yes"/>
      <point x="102" y="-115" type="line"/>
      <point x="102" y="-160" type="line"/>
      <point x="124" y="-164"/>
      <point x="154" y="-167"/>
      <point x="179" y="-167" type="curve" smooth="yes"/>
      <point x="217" y="-167"/>
      <point x="275" y="-155"/>
      <point x="275" y="-93" type="curve" smooth="yes"/>
      <point x="275" y="-51"/>
      <point x="240" y="-35"/>
      <point x="201" y="-33" type="curve"/>
      <point x="203" y="-10" type="line"/>
      <point x="283" y="-4"/>
      <point x="340" y="41"/>
      <point x="340" y="138" type="curve" smooth="yes"/>
      <point x="340" y="318"/>
      <point x="120" y="257"/>
      <point x="120" y="362" type="curve" smooth="yes"/>
      <point x="120" y="389"/>
      <point x="131" y="428"/>
      <point x="185" y="428" type="curve" smooth="yes"/>
      <point x="236" y="428"/>
      <point x="252" y="391"/>
      <point x="252" y="353" type="curve" smooth="yes"/>
      <point x="252" y="344" type="line"/>
      <point x="330" y="344" type="line"/>
      <point x="330" y="346"/>
      <point x="331" y="356"/>
      <point x="331" y="362" type="curve" smooth="yes"/>
      <point x="331" y="434"/>
      <point x="282" y="495"/>
      <point x="192" y="495" type="curve" smooth="yes"/>
    </contour>
  </outline>
</glyph>
<glyph name="Tcaron" format="1">
  <advance width="461"/>
  <unicode hex="0164"/>
  <outline>
    <contour>
      <point x="442" y="630" type="line"/>
      <point x="18" y="630" type="line"/>
      <point x="18" y="557" type="line"/>
      <point x="189" y="557" type="line"/>
      <point x="189" y="0" type="line"/>
      <point x="270" y="0" type="line"/>
      <point x="270" y="557" type="line"/>
      <point x="442" y="557" type="line"/>
    </contour>
    <contour>
      <point x="344" y="812" type="line"/>
      <point x="271" y="812" type="line"/>
      <point x="230" y="739" type="line"/>
      <point x="189" y="812" type="line"/>
      <point x="115" y="812" type="line"/>
      <point x="194" y="687" type="line"/>
      <point x="265" y="687" type="line"/>
    </contour>
  </outline>
</glyph>
<glyph name="Tbar" format="1">
  <advance width="461"/>
  <unicode hex="0166"/>
  <outline>
    <contour>
      <point x="442" y="630" type="line"/>
      <point x="18" y="630" type="line"/>
      <point x="18" y="557" type="line"/>
      <point x="189" y="557" type="line"/>
      <point x="189" y="361" type="line"/>
      <point x="71" y="361" type="line"/>
      <point x="71" y="294" type="line"/>
      <point x="189" y="294" type="line"/>
      <point x="189" y="0" type="line"/>
      <point x="270" y="0" type="line"/>
      <point x="270" y="294" type="line"/>
      <point x="391" y="294" type="line"/>
      <point x="391" y="361" type="line"/>
      <point x="270" y="361" type="line"/>
      <point x="270" y="557" type="line"/>
      <point x="442" y="557" type="line"/>
    </contour>
  </outline>
</glyph>
<glyph name="tbar" format="1">
  <advance width="210"/>
  <unicode hex="0167"/>
  <outline>
    <contour>
      <point x="130" y="618" type="line"/>
      <point x="71" y="618" type="line"/>
      <point x="54" y="484" type="line"/>
      <point x="12" y="484" type="line"/>
      <point x="12" y="416" type="line"/>
      <point x="54" y="416" type="line"/>
      <point x="54" y="321" type="line"/>
      <point x="15" y="321" type="line"/>
      <point x="15" y="258" type="line"/>
      <point x="54" y="258" type="line"/>
      <point x="54" y="102" type="line" smooth="yes"/>
      <point x="54" y="47"/>
      <point x="75" y="-9"/>
      <point x="140" y="-9" type="curve" smooth="yes"/>
      <point x="159" y="-9"/>
      <point x="182" y="-4"/>
      <point x="194" y="4" type="curve"/>
      <point x="194" y="56" type="line"/>
      <point x="173" y="56" type="line" smooth="yes"/>
      <point x="145" y="56"/>
      <point x="130" y="72"/>
      <point x="130" y="100" type="curve" smooth="yes"/>
      <point x="130" y="258" type="line"/>
      <point x="190" y="258" type="line"/>
      <point x="190" y="321" type="line"/>
      <point x="130" y="321" type="line"/>
      <point x="130" y="416" type="line"/>
      <point x="194" y="416" type="line"/>
      <point x="194" y="484" type="line"/>
      <point x="130" y="484" type="line"/>
    </contour>
  </outline>
</glyph>
<glyph name="Utilde" format="1">
  <advance width="544"/>
  <unicode hex="0168"/>
  <outline>
    <contour>
      <point x="479" y="630" type="line"/>
      <point x="399" y="630" type="line"/>
      <point x="399" y="201" type="line" smooth="yes"/>
      <point x="399" y="111"/>
      <point x="352" y="63"/>
      <point x="272" y="63" type="curve" smooth="yes"/>
      <point x="193" y="63"/>
      <point x="146" y="111"/>
      <point x="146" y="201" type="curve" smooth="yes"/>
      <point x="146" y="630" type="line"/>
      <point x="64" y="630" type="line"/>
      <point x="64" y="205" type="line" smooth="yes"/>
      <point x="64" y="63"/>
      <point x="142" y="-11"/>
      <point x="272" y="-11" type="curve" smooth="yes"/>
      <point x="401" y="-11"/>
      <point x="479" y="63"/>
      <point x="479" y="205" type="curve" smooth="yes"/>
    </contour>
    <contour>
      <point x="353" y="812" type="line"/>
      <point x="350" y="790"/>
      <point x="338" y="784"/>
      <point x="321" y="784" type="curve" smooth="yes"/>
      <point x="286" y="784"/>
      <point x="256" y="812"/>
      <point x="216" y="812" type="curve" smooth="yes"/>
      <point x="161" y="812"/>
      <point x="138" y="758"/>
      <point x="138" y="717" type="curve"/>
      <point x="191" y="717" type="line"/>
      <point x="194" y="737"/>
      <point x="206" y="745"/>
      <point x="223" y="745" type="curve" smooth="yes"/>
      <point x="258" y="745"/>
      <point x="288" y="717"/>
      <point x="329" y="717" type="curve" smooth="yes"/>
      <point x="384" y="717"/>
      <point x="407" y="770"/>
      <point x="407" y="812" type="curve"/>
    </contour>
  </outline>
</glyph>
<glyph name="Umacron" format="1">
  <advance width="544"/>
  <unicode hex="016A"/>
  <outline>
    <contour>
      <point x="479" y="630" type="line"/>
      <point x="399" y="630" type="line"/>
      <point x="399" y="201" type="line" smooth="yes"/>
      <point x="399" y="111"/>
      <point x="352" y="63"/>
      <point x="272" y="63" type="curve" smooth="yes"/>
      <point x="193" y="63"/>
      <point x="146" y="111"/>
      <point x="146" y="201" type="curve" smooth="yes"/>
      <point x="146" y="630" type="line"/>
      <point x="64" y="630" type="line"/>
      <point x="64" y="205" type="line" smooth="yes"/>
      <point x="64" y="63"/>
      <point x="142" y="-11"/>
      <point x="272" y="-11" type="curve" smooth="yes"/>
      <point x="401" y="-11"/>
      <point x="479" y="63"/>
      <point x="479" y="205" type="curve" smooth="yes"/>
    </contour>
    <contour>
      <point x="387" y="764" type="line"/>
      <point x="157" y="764" type="line"/>
      <point x="157" y="698" type="line"/>
      <point x="387" y="698" type="line"/>
    </contour>
  </outline>
</glyph>
<glyph name="Ubreve" format="1">
  <advance width="544"/>
  <unicode hex="016C"/>
  <outline>
    <contour>
      <point x="479" y="630" type="line"/>
      <point x="399" y="630" type="line"/>
      <point x="399" y="201" type="line" smooth="yes"/>
      <point x="399" y="111"/>
      <point x="352" y="63"/>
      <point x="272" y="63" type="curve" smooth="yes"/>
      <point x="193" y="63"/>
      <point x="146" y="111"/>
      <point x="146" y="201" type="curve" smooth="yes"/>
      <point x="146" y="630" type="line"/>
      <point x="64" y="630" type="line"/>
      <point x="64" y="205" type="line" smooth="yes"/>
      <point x="64" y="63"/>
      <point x="142" y="-11"/>
      <point x="272" y="-11" type="curve" smooth="yes"/>
      <point x="401" y="-11"/>
      <point x="479" y="63"/>
      <point x="479" y="205" type="curve" smooth="yes"/>
    </contour>
    <contour>
      <point x="328" y="812" type="line"/>
      <point x="326" y="799"/>
      <point x="304" y="781"/>
      <point x="272" y="781" type="curve" smooth="yes"/>
      <point x="241" y="781"/>
      <point x="220" y="799"/>
      <point x="218" y="812" type="curve"/>
      <point x="158" y="812" type="line"/>
      <point x="158" y="771"/>
      <point x="202" y="723"/>
      <point x="272" y="723" type="curve" smooth="yes"/>
      <point x="343" y="723"/>
      <point x="386" y="771"/>
      <point x="386" y="812" type="curve"/>
    </contour>
  </outline>
</glyph>
<glyph name="Uring" format="1">
  <advance width="544"/>
  <unicode hex="016E"/>
  <outline>
    <contour>
      <point x="479" y="630" type="line"/>
      <point x="399" y="630" type="line"/>
      <point x="399" y="201" type="line" smooth="yes"/>
      <point x="399" y="111"/>
      <point x="352" y="63"/>
      <point x="272" y="63" type="curve" smooth="yes"/>
      <point x="193" y="63"/>
      <point x="146" y="111"/>
      <point x="146" y="201" type="curve" smooth="yes"/>
      <point x="146" y="630" type="line"/>
      <point x="64" y="630" type="line"/>
      <point x="64" y="205" type="line" smooth="yes"/>
      <point x="64" y="63"/>
      <point x="142" y="-11"/>
      <point x="272" y="-11" type="curve" smooth="yes"/>
      <point x="401" y="-11"/>
      <point x="479" y="63"/>
      <point x="479" y="205" type="curve" smooth="yes"/>
    </contour>
    <contour>
      <point x="224" y="841"/>
      <point x="184" y="802"/>
      <point x="184" y="753" type="curve" smooth="yes"/>
      <point x="184" y="703"/>
      <point x="225" y="665"/>
      <point x="272" y="665" type="curve" smooth="yes"/>
      <point x="321" y="665"/>
      <point x="361" y="704"/>
      <point x="361" y="753" type="curve" smooth="yes"/>
      <point x="361" y="801"/>
      <point x="321" y="841"/>
      <point x="272" y="841" type="curve" smooth="yes"/>
    </contour>
    <contour>
      <point x="297" y="800"/>
      <point x="319" y="779"/>
      <point x="319" y="753" type="curve" smooth="yes"/>
      <point x="319" y="727"/>
      <point x="297" y="706"/>
      <point x="272" y="706" type="curve" smooth="yes"/>
      <point x="246" y="706"/>
      <point x="226" y="727"/>
      <point x="226" y="753" type="curve" smooth="yes"/>
      <point x="226" y="779"/>
      <point x="246" y="800"/>
      <point x="272" y="800" type="curve" smooth="yes"/>
    </contour>
  </outline>
</glyph>
<glyph name="uring" format="1">
  <advance width="419"/>
  <unicode hex="016F"/>
  <outline>
    <contour>
      <point x="364" y="0" type="line"/>
      <point x="364" y="484" type="line"/>
      <point x="289" y="484" type="line"/>
      <point x="289" y="188" type="line" smooth="yes"/>
      <point x="289" y="105"/>
      <point x="246" y="56"/>
      <point x="199" y="56" type="curve" smooth="yes"/>
      <point x="158" y="56"/>
      <point x="131" y="74"/>
      <point x="131" y="140" type="curve" smooth="yes"/>
      <point x="131" y="484" type="line"/>
      <point x="55" y="484" type="line"/>
      <point x="55" y="135" type="line" smooth="yes"/>
      <point x="55" y="28"/>
      <point x="102" y="-11"/>
      <point x="175" y="-11" type="curve" smooth="yes"/>
      <point x="223" y="-11"/>
      <point x="265" y="8"/>
      <point x="291" y="56" type="curve"/>
      <point x="297" y="56" type="line"/>
      <point x="307" y="0" type="line"/>
    </contour>
    <contour>
      <point x="161" y="694"/>
      <point x="122" y="654"/>
      <point x="122" y="606" type="curve" smooth="yes"/>
      <point x="122" y="555"/>
      <point x="162" y="517"/>
      <point x="210" y="517" type="curve" smooth="yes"/>
      <point x="258" y="517"/>
      <point x="297" y="556"/>
      <point x="297" y="606" type="curve" smooth="yes"/>
      <point x="297" y="653"/>
      <point x="259" y="694"/>
      <point x="210" y="694" type="curve" smooth="yes"/>
    </contour>
    <contour>
      <point x="234" y="652"/>
      <point x="257" y="631"/>
      <point x="257" y="606" type="curve" smooth="yes"/>
      <point x="257" y="580"/>
      <point x="234" y="558"/>
      <point x="210" y="558" type="curve" smooth="yes"/>
      <point x="184" y="558"/>
      <point x="162" y="580"/>
      <point x="162" y="606" type="curve" smooth="yes"/>
      <point x="162" y="631"/>
      <point x="184" y="652"/>
      <point x="210" y="652" type="curve" smooth="yes"/>
    </contour>
  </outline>
</glyph>
<glyph name="Uhungarumlaut" format="1">
  <advance width="544"/>
  <unicode hex="0170"/>
  <outline>
    <contour>
      <point x="479" y="630" type="line"/>
      <point x="399" y="630" type="line"/>
      <point x="399" y="201" type="line" smooth="yes"/>
      <point x="399" y="111"/>
      <point x="352" y="63"/>
      <point x="272" y="63" type="curve" smooth="yes"/>
      <point x="193" y="63"/>
      <point x="146" y="111"/>
      <point x="146" y="201" type="curve" smooth="yes"/>
      <point x="146" y="630" type="line"/>
      <point x="64" y="630" type="line"/>
      <point x="64" y="205" type="line" smooth="yes"/>
      <point x="64" y="63"/>
      <point x="142" y="-11"/>
      <point x="272" y="-11" type="curve" smooth="yes"/>
      <point x="401" y="-11"/>
      <point x="479" y="63"/>
      <point x="479" y="205" type="curve" smooth="yes"/>
    </contour>
    <contour>
      <point x="323" y="812" type="line"/>
      <point x="241" y="812" type="line"/>
      <point x="184" y="691" type="line"/>
      <point x="248" y="691" type="line"/>
      <point x="324" y="809" type="line"/>
    </contour>
    <contour>
      <point x="443" y="812" type="line"/>
      <point x="361" y="812" type="line"/>
      <point x="305" y="691" type="line"/>
      <point x="367" y="691" type="line"/>
      <point x="444" y="809" type="line"/>
    </contour>
  </outline>
</glyph>
<glyph name="uogonek" format="1">
  <advance width="419"/>
  <unicode hex="0173"/>
  <outline>
    <contour>
      <point x="364" y="484" type="line"/>
      <point x="289" y="484" type="line"/>
      <point x="289" y="188" type="line" smooth="yes"/>
      <point x="289" y="105"/>
      <point x="246" y="56"/>
      <point x="199" y="56" type="curve" smooth="yes"/>
      <point x="158" y="56"/>
      <point x="131" y="74"/>
      <point x="131" y="140" type="curve" smooth="yes"/>
      <point x="131" y="484" type="line"/>
      <point x="55" y="484" type="line"/>
      <point x="55" y="135" type="line" smooth="yes"/>
      <point x="55" y="28"/>
      <point x="102" y="-11"/>
      <point x="175" y="-11" type="curve" smooth="yes"/>
      <point x="223" y="-11"/>
      <point x="265" y="8"/>
      <point x="291" y="56" type="curve"/>
      <point x="297" y="56" type="line"/>
      <point x="307" y="0" type="line"/>
      <point x="313" y="0" type="line"/>
      <point x="307" y="4" type="line"/>
      <point x="287" y="-18"/>
      <point x="270" y="-44"/>
      <point x="270" y="-84" type="curve" smooth="yes"/>
      <point x="270" y="-148"/>
      <point x="317" y="-167"/>
      <point x="357" y="-167" type="curve" smooth="yes"/>
      <point x="375" y="-167"/>
      <point x="393" y="-162"/>
      <point x="413" y="-155" type="curve"/>
      <point x="413" y="-107" type="line"/>
      <point x="384" y="-107" type="line" smooth="yes"/>
      <point x="353" y="-107"/>
      <point x="342" y="-83"/>
      <point x="342" y="-57" type="curve" smooth="yes"/>
      <point x="342" y="-35"/>
      <point x="354" y="-14"/>
      <point x="364" y="0" type="curve"/>
    </contour>
  </outline>
</glyph>
<glyph name="wcircumflex" format="1">
  <advance width="544"/>
  <unicode hex="0175"/>
  <outline>
    <contour>
      <point x="422" y="0" type="line"/>
      <point x="543" y="484" type="line"/>
      <point x="466" y="484" type="line"/>
      <point x="406" y="211" type="line" smooth="yes"/>
      <point x="393" y="156"/>
      <point x="386" y="97"/>
      <point x="386" y="97" type="curve" smooth="yes"/>
      <point x="383" y="97" type="line" smooth="yes"/>
      <point x="383" y="97"/>
      <point x="376" y="162"/>
      <point x="368" y="211" type="curve" smooth="yes"/>
      <point x="318" y="484" type="line"/>
      <point x="231" y="484" type="line"/>
      <point x="182" y="211" type="line" smooth="yes"/>
      <point x="174" y="162"/>
      <point x="167" y="97"/>
      <point x="167" y="97" type="curve" smooth="yes"/>
      <point x="163" y="97" type="line" smooth="yes"/>
      <point x="163" y="97"/>
      <point x="154" y="172"/>
      <point x="145" y="211" type="curve" smooth="yes"/>
      <point x="83" y="484" type="line"/>
      <point x="1" y="484" type="line"/>
      <point x="122" y="0" type="line"/>
      <point x="205" y="0" type="line"/>
      <point x="255" y="276" type="line" smooth="yes"/>
      <point x="264" y="327"/>
      <point x="269" y="387"/>
      <point x="269" y="387" type="curve"/>
      <point x="274" y="387" type="line"/>
      <point x="274" y="387"/>
      <point x="279" y="326"/>
      <point x="288" y="276" type="curve" smooth="yes"/>
      <point x="338" y="0" type="line"/>
    </contour>
    <contour>
      <point x="387" y="540" type="line"/>
      <point x="308" y="664" type="line"/>
      <point x="236" y="664" type="line"/>
      <point x="157" y="540" type="line"/>
      <point x="231" y="540" type="line"/>
      <point x="274" y="613" type="line"/>
      <point x="313" y="540" type="line"/>
    </contour>
  </outline>
</glyph>
<glyph name="Ycircumflex" format="1">
  <advance width="503"/>
  <unicode hex="0176"/>
  <outline>
    <contour>
      <point x="292" y="261" type="line"/>
      <point x="495" y="630" type="line"/>
      <point x="417" y="630" type="line"/>
      <point x="260" y="338" type="line"/>
      <point x="257" y="338" type="line"/>
      <point x="97" y="630" type="line"/>
      <point x="7" y="630" type="line"/>
      <point x="211" y="261" type="line"/>
      <point x="211" y="0" type="line"/>
      <point x="292" y="0" type="line"/>
    </contour>
    <contour>
      <point x="366" y="686" type="line"/>
      <point x="288" y="811" type="line"/>
      <point x="216" y="811" type="line"/>
      <point x="137" y="686" type="line"/>
      <point x="210" y="686" type="line"/>
      <point x="252" y="759" type="line"/>
      <point x="292" y="686" type="line"/>
    </contour>
  </outline>
</glyph>
<glyph name="Zacute" format="1">
  <advance width="461"/>
  <unicode hex="0179"/>
  <outline>
    <contour>
      <point x="434" y="630" type="line"/>
      <point x="37" y="630" type="line"/>
      <point x="37" y="557" type="line"/>
      <point x="318" y="557" type="line"/>
      <point x="19" y="35" type="line"/>
      <point x="19" y="0" type="line"/>
      <point x="440" y="0" type="line"/>
      <point x="440" y="74" type="line"/>
      <point x="133" y="74" type="line"/>
      <point x="434" y="596" type="line"/>
    </contour>
    <contour>
      <point x="337" y="812" type="line"/>
      <point x="255" y="812" type="line"/>
      <point x="176" y="691" type="line"/>
      <point x="239" y="691" type="line"/>
      <point x="338" y="809" type="line"/>
    </contour>
  </outline>
</glyph>
<glyph name="florin" format="1">
  <advance width="419"/>
  <unicode hex="0192"/>
  <outline>
    <contour>
      <point x="251" y="672"/>
      <point x="223" y="626"/>
      <point x="212" y="561" type="curve" smooth="yes"/>
      <point x="193" y="437" type="line"/>
      <point x="128" y="437" type="line"/>
      <point x="118" y="369" type="line"/>
      <point x="183" y="369" type="line"/>
      <point x="121" y="-59" type="line"/>
      <point x="119" y="-88"/>
      <point x="100" y="-104"/>
      <point x="72" y="-104" type="curve" smooth="yes"/>
      <point x="31" y="-104" type="line"/>
      <point x="25" y="-156" type="line"/>
      <point x="38" y="-162"/>
      <point x="62" y="-167"/>
      <point x="84" y="-167" type="curve" smooth="yes"/>
      <point x="158" y="-167"/>
      <point x="187" y="-122"/>
      <point x="197" y="-56" type="curve" smooth="yes"/>
      <point x="258" y="369" type="line"/>
      <point x="342" y="369" type="line"/>
      <point x="353" y="437" type="line"/>
      <point x="268" y="437" type="line"/>
      <point x="289" y="565" type="line"/>
      <point x="290" y="593"/>
      <point x="309" y="608"/>
      <point x="337" y="608" type="curve" smooth="yes"/>
      <point x="378" y="608" type="line"/>
      <point x="385" y="661" type="line"/>
      <point x="370" y="667"/>
      <point x="346" y="672"/>
      <point x="324" y="672" type="curve" smooth="yes"/>
    </contour>
  </outline>
</glyph>
<glyph name="aringacute" format="1">
  <advance width="419"/>
  <unicode hex="01FB"/>
  <outline>
    <contour>
      <point x="114" y="495"/>
      <point x="50" y="448"/>
      <point x="50" y="361" type="curve" smooth="yes"/>
      <point x="50" y="353"/>
      <point x="50" y="345"/>
      <point x="51" y="340" type="curve"/>
      <point x="125" y="340" type="line"/>
      <point x="125" y="352" type="line" smooth="yes"/>
      <point x="125" y="388"/>
      <point x="142" y="427"/>
      <point x="200" y="427" type="curve" smooth="yes"/>
      <point x="261" y="427"/>
      <point x="276" y="395"/>
      <point x="276" y="349" type="curve" smooth="yes"/>
      <point x="276" y="287" type="line"/>
      <point x="135" y="287"/>
      <point x="31" y="258"/>
      <point x="31" y="125" type="curve" smooth="yes"/>
      <point x="31" y="8"/>
      <point x="110" y="-11"/>
      <point x="158" y="-11" type="curve" smooth="yes"/>
      <point x="209" y="-11"/>
      <point x="251" y="12"/>
      <point x="276" y="52" type="curve"/>
      <point x="281" y="52" type="line"/>
      <point x="289" y="17"/>
      <point x="317" y="-7"/>
      <point x="357" y="-7" type="curve" smooth="yes"/>
      <point x="381" y="-7"/>
      <point x="398" y="-1"/>
      <point x="407" y="4" type="curve"/>
      <point x="407" y="56" type="line"/>
      <point x="376" y="56" type="line" smooth="yes"/>
      <point x="364" y="56"/>
      <point x="352" y="66"/>
      <point x="352" y="88" type="curve" smooth="yes"/>
      <point x="352" y="360" type="line" smooth="yes"/>
      <point x="352" y="445"/>
      <point x="303" y="495"/>
      <point x="205" y="495" type="curve" smooth="yes"/>
    </contour>
    <contour>
      <point x="276" y="176" type="line"/>
      <point x="276" y="96"/>
      <point x="224" y="56"/>
      <point x="176" y="56" type="curve" smooth="yes"/>
      <point x="133" y="56"/>
      <point x="110" y="75"/>
      <point x="110" y="130" type="curve" smooth="yes"/>
      <point x="110" y="205"/>
      <point x="178" y="219"/>
      <point x="276" y="219" type="curve"/>
    </contour>
    <contour>
      <point x="234" y="645"/>
      <point x="257" y="627"/>
      <point x="257" y="602" type="curve" smooth="yes"/>
      <point x="257" y="577"/>
      <point x="234" y="558"/>
      <point x="210" y="558" type="curve" smooth="yes"/>
      <point x="185" y="558"/>
      <point x="162" y="577"/>
      <point x="162" y="602" type="curve" smooth="yes"/>
      <point x="162" y="627"/>
      <point x="185" y="645"/>
      <point x="210" y="645" type="curve" smooth="yes"/>
    </contour>
    <contour>
      <point x="161" y="685"/>
      <point x="122" y="649"/>
      <point x="122" y="602" type="curve" smooth="yes"/>
      <point x="122" y="554"/>
      <point x="162" y="519"/>
      <point x="210" y="519" type="curve" smooth="yes"/>
      <point x="259" y="519"/>
      <point x="297" y="555"/>
      <point x="297" y="602" type="curve" smooth="yes"/>
      <point x="297" y="648"/>
      <point x="260" y="685"/>
      <point x="210" y="685" type="curve" smooth="yes"/>
    </contour>
    <contour>
      <point x="332" y="812" type="line"/>
      <point x="250" y="812" type="line"/>
      <point x="180" y="706" type="line"/>
      <point x="243" y="706" type="line"/>
      <point x="333" y="809" type="line"/>
    </contour>
  </outline>
</glyph>
<glyph name="AEacute" format="1">
  <advance width="754"/>
  <unicode hex="01FC"/>
  <outline>
    <contour>
      <point x="714" y="630" type="line"/>
      <point x="257" y="630" type="line"/>
      <point x="-1" y="0" type="line"/>
      <point x="80" y="0" type="line"/>
      <point x="134" y="140" type="line"/>
      <point x="385" y="140" type="line"/>
      <point x="416" y="0" type="line"/>
      <point x="720" y="0" type="line"/>
      <point x="720" y="74" type="line"/>
      <point x="487" y="74" type="line"/>
      <point x="439" y="286" type="line"/>
      <point x="674" y="286" type="line"/>
      <point x="674" y="360" type="line"/>
      <point x="422" y="360" type="line"/>
      <point x="376" y="557" type="line"/>
      <point x="714" y="557" type="line"/>
    </contour>
    <contour>
      <point x="297" y="556" type="line"/>
      <point x="301" y="537"/>
      <point x="303" y="519"/>
      <point x="307" y="499" type="curve" smooth="yes"/>
      <point x="369" y="214" type="line"/>
      <point x="162" y="214" type="line"/>
      <point x="274" y="499" type="line" smooth="yes"/>
      <point x="282" y="519"/>
      <point x="287" y="537"/>
      <point x="293" y="556" type="curve"/>
    </contour>
    <contour>
      <point x="574" y="812" type="line"/>
      <point x="491" y="812" type="line"/>
      <point x="412" y="691" type="line"/>
      <point x="475" y="691" type="line"/>
      <point x="574" y="809" type="line"/>
    </contour>
  </outline>
</glyph>
<glyph name="Oslashacute" format="1">
  <advance width="587"/>
  <unicode hex="01FE"/>
  <outline>
    <contour>
      <point x="542" y="665" type="line"/>
      <point x="483" y="665" type="line"/>
      <point x="440" y="596" type="line"/>
      <point x="400" y="626"/>
      <point x="352" y="642"/>
      <point x="293" y="642" type="curve" smooth="yes"/>
      <point x="138" y="642"/>
      <point x="45" y="535"/>
      <point x="45" y="315" type="curve" smooth="yes"/>
      <point x="45" y="206"/>
      <point x="68" y="124"/>
      <point x="111" y="70" type="curve"/>
      <point x="46" y="-34" type="line"/>
      <point x="105" y="-34" type="line"/>
      <point x="147" y="34" type="line"/>
      <point x="186" y="4"/>
      <point x="235" y="-11"/>
      <point x="293" y="-11" type="curve" smooth="yes"/>
      <point x="448" y="-11"/>
      <point x="542" y="97"/>
      <point x="542" y="315" type="curve" smooth="yes"/>
      <point x="542" y="424"/>
      <point x="518" y="505"/>
      <point x="475" y="560" type="curve"/>
    </contour>
    <contour>
      <point x="428" y="485" type="line"/>
      <point x="447" y="448"/>
      <point x="457" y="399"/>
      <point x="457" y="338" type="curve" smooth="yes"/>
      <point x="457" y="292" type="line" smooth="yes"/>
      <point x="457" y="138"/>
      <point x="394" y="63"/>
      <point x="293" y="63" type="curve" smooth="yes"/>
      <point x="251" y="63"/>
      <point x="216" y="76"/>
      <point x="189" y="102" type="curve"/>
    </contour>
    <contour>
      <point x="335" y="567"/>
      <point x="369" y="554"/>
      <point x="397" y="527" type="curve"/>
      <point x="158" y="146" type="line"/>
      <point x="139" y="182"/>
      <point x="130" y="231"/>
      <point x="130" y="292" type="curve" smooth="yes"/>
      <point x="130" y="338" type="line" smooth="yes"/>
      <point x="130" y="492"/>
      <point x="192" y="567"/>
      <point x="293" y="567" type="curve" smooth="yes"/>
    </contour>
    <contour>
      <point x="400" y="812" type="line"/>
      <point x="318" y="812" type="line"/>
      <point x="239" y="691" type="line"/>
      <point x="303" y="691" type="line"/>
      <point x="401" y="809" type="line"/>
    </contour>
  </outline>
</glyph>
<glyph name="oslashacute" format="1">
  <advance width="461"/>
  <unicode hex="01FF"/>
  <outline>
    <contour>
      <point x="402" y="513" type="line"/>
      <point x="353" y="513" type="line"/>
      <point x="327" y="466" type="line"/>
      <point x="301" y="486"/>
      <point x="268" y="495"/>
      <point x="230" y="495" type="curve" smooth="yes"/>
      <point x="116" y="495"/>
      <point x="57" y="416"/>
      <point x="57" y="241" type="curve" smooth="yes"/>
      <point x="57" y="155"/>
      <point x="72" y="92"/>
      <point x="100" y="51" type="curve"/>
      <point x="57" y="-29" type="line"/>
      <point x="107" y="-29" type="line"/>
      <point x="132" y="18" type="line"/>
      <point x="158" y="-2"/>
      <point x="191" y="-11"/>
      <point x="230" y="-11" type="curve" smooth="yes"/>
      <point x="343" y="-11"/>
      <point x="402" y="68"/>
      <point x="402" y="241" type="curve" smooth="yes"/>
      <point x="402" y="329"/>
      <point x="388" y="392"/>
      <point x="359" y="433" type="curve"/>
    </contour>
    <contour>
      <point x="313" y="349" type="line"/>
      <point x="320" y="326"/>
      <point x="323" y="295"/>
      <point x="323" y="259" type="curve" smooth="yes"/>
      <point x="323" y="225" type="line" smooth="yes"/>
      <point x="323" y="113"/>
      <point x="292" y="56"/>
      <point x="230" y="56" type="curve" smooth="yes"/>
      <point x="204" y="56"/>
      <point x="184" y="66"/>
      <point x="170" y="83" type="curve"/>
    </contour>
    <contour>
      <point x="255" y="427"/>
      <point x="275" y="418"/>
      <point x="290" y="400" type="curve"/>
      <point x="146" y="133" type="line"/>
      <point x="138" y="158"/>
      <point x="136" y="188"/>
      <point x="136" y="225" type="curve" smooth="yes"/>
      <point x="136" y="259" type="line" smooth="yes"/>
      <point x="136" y="370"/>
      <point x="167" y="427"/>
      <point x="230" y="427" type="curve" smooth="yes"/>
    </contour>
    <contour>
      <point x="337" y="665" type="line"/>
      <point x="255" y="665" type="line"/>
      <point x="176" y="543" type="line"/>
      <point x="239" y="543" type="line"/>
      <point x="338" y="661" type="line"/>
    </contour>
  </outline>
</glyph>
<glyph name="Tcommaaccent" format="1">
  <advance width="461"/>
  <unicode hex="021A"/>
  <outline>
    <contour>
      <point x="442" y="630" type="line"/>
      <point x="18" y="630" type="line"/>
      <point x="18" y="557" type="line"/>
      <point x="189" y="557" type="line"/>
      <point x="189" y="0" type="line"/>
      <point x="270" y="0" type="line"/>
      <point x="270" y="557" type="line"/>
      <point x="442" y="557" type="line"/>
    </contour>
    <contour>
      <point x="269" y="-55" type="line"/>
      <point x="191" y="-55" type="line"/>
      <point x="191" y="-138" type="line"/>
      <point x="223" y="-138" type="line"/>
      <point x="202" y="-204" type="line"/>
      <point x="242" y="-204" type="line"/>
      <point x="269" y="-132" type="line"/>
    </contour>
  </outline>
</glyph>
<glyph name="caron" format="1">
  <advance width="251"/>
  <unicode hex="02C7"/>
  <outline>
    <contour>
      <point x="159" y="541" type="line"/>
      <point x="238" y="665" type="line"/>
      <point x="164" y="665" type="line"/>
      <point x="123" y="592" type="line"/>
      <point x="83" y="665" type="line"/>
      <point x="9" y="665" type="line"/>
      <point x="87" y="541" type="line"/>
    </contour>
    <contour>
      <point x="124" y="484" type="move" name="_top"/>
    </contour>
  </outline>
</glyph>
<glyph name="ogonek" format="1">
  <advance width="251"/>
  <unicode hex="02DB"/>
  <outline>
    <contour>
      <point x="165" y="11" type="line"/>
      <point x="110" y="11" type="line"/>
      <point x="87" y="-12"/>
      <point x="67" y="-40"/>
      <point x="67" y="-84" type="curve" smooth="yes"/>
      <point x="67" y="-148"/>
      <point x="113" y="-167"/>
      <point x="153" y="-167" type="curve" smooth="yes"/>
      <point x="171" y="-167"/>
      <point x="189" y="-162"/>
      <point x="209" y="-155" type="curve"/>
      <point x="209" y="-107" type="line"/>
      <point x="179" y="-107" type="line" smooth="yes"/>
      <point x="149" y="-107"/>
      <point x="138" y="-83"/>
      <point x="138" y="-57" type="curve" smooth="yes"/>
      <point x="138" y="-31"/>
      <point x="155" y="-5"/>
      <point x="165" y="7" type="curve"/>
    </contour>
    <contour>
      <point x="166" y="9" type="move" name="_ogonek"/>
    </contour>
  </outline>
</glyph>
<glyph name="hungarumlaut" format="1">
  <advance width="251"/>
  <unicode hex="02DD"/>
  <outline>
    <contour>
      <point x="264" y="661" type="line"/>
      <point x="263" y="665" type="line"/>
      <point x="180" y="665" type="line"/>
      <point x="123" y="543" type="line"/>
      <point x="186" y="543" type="line"/>
    </contour>
    <contour>
      <point x="145" y="661" type="line"/>
      <point x="144" y="665" type="line"/>
      <point x="60" y="665" type="line"/>
      <point x="4" y="543" type="line"/>
      <point x="68" y="543" type="line"/>
    </contour>
    <contour>
      <point x="134" y="484" type="move" name="_top"/>
    </contour>
  </outline>
</glyph>
<glyph name="gravecomb" format="1">
  <advance width="251"/>
  <unicode hex="0300"/>
  <outline>
    <contour>
      <point x="187" y="543" type="line"/>
      <point x="108" y="665" type="line"/>
      <point x="26" y="665" type="line"/>
      <point x="25" y="661" type="line"/>
      <point x="124" y="543" type="line"/>
    </contour>
    <contour>
      <point x="106" y="665" type="move" name="top"/>
    </contour>
    <contour>
      <point x="107" y="484" type="move" name="_top"/>
    </contour>
  </outline>
</glyph>
<glyph name="acutecomb" format="1">
  <advance width="251"/>
  <unicode hex="0301"/>
  <outline>
    <contour>
      <point x="226" y="661" type="line"/>
      <point x="225" y="665" type="line"/>
      <point x="141" y="665" type="line"/>
      <point x="62" y="543" type="line"/>
      <point x="126" y="543" type="line"/>
    </contour>
    <contour>
      <point x="144" y="665" type="move" name="top"/>
    </contour>
    <contour>
      <point x="145" y="484" type="move" name="_top"/>
    </contour>
  </outline>
</glyph>
